%TF.GenerationSoftware,KiCad,Pcbnew,8.0.0*%
%TF.CreationDate,2024-03-02T01:18:58-06:00*%
%TF.ProjectId,kicad-power-hat,6b696361-642d-4706-9f77-65722d686174,rev?*%
%TF.SameCoordinates,Original*%
%TF.FileFunction,Legend,Top*%
%TF.FilePolarity,Positive*%
%FSLAX46Y46*%
G04 Gerber Fmt 4.6, Leading zero omitted, Abs format (unit mm)*
G04 Created by KiCad (PCBNEW 8.0.0) date 2024-03-02 01:18:58*
%MOMM*%
%LPD*%
G01*
G04 APERTURE LIST*
%ADD10C,0.150000*%
%ADD11C,0.120000*%
G04 APERTURE END LIST*
D10*
X124991905Y-99514819D02*
X124991905Y-98514819D01*
X124991905Y-98514819D02*
X125230000Y-98514819D01*
X125230000Y-98514819D02*
X125372857Y-98562438D01*
X125372857Y-98562438D02*
X125468095Y-98657676D01*
X125468095Y-98657676D02*
X125515714Y-98752914D01*
X125515714Y-98752914D02*
X125563333Y-98943390D01*
X125563333Y-98943390D02*
X125563333Y-99086247D01*
X125563333Y-99086247D02*
X125515714Y-99276723D01*
X125515714Y-99276723D02*
X125468095Y-99371961D01*
X125468095Y-99371961D02*
X125372857Y-99467200D01*
X125372857Y-99467200D02*
X125230000Y-99514819D01*
X125230000Y-99514819D02*
X124991905Y-99514819D01*
X125896667Y-98514819D02*
X126515714Y-98514819D01*
X126515714Y-98514819D02*
X126182381Y-98895771D01*
X126182381Y-98895771D02*
X126325238Y-98895771D01*
X126325238Y-98895771D02*
X126420476Y-98943390D01*
X126420476Y-98943390D02*
X126468095Y-98991009D01*
X126468095Y-98991009D02*
X126515714Y-99086247D01*
X126515714Y-99086247D02*
X126515714Y-99324342D01*
X126515714Y-99324342D02*
X126468095Y-99419580D01*
X126468095Y-99419580D02*
X126420476Y-99467200D01*
X126420476Y-99467200D02*
X126325238Y-99514819D01*
X126325238Y-99514819D02*
X126039524Y-99514819D01*
X126039524Y-99514819D02*
X125944286Y-99467200D01*
X125944286Y-99467200D02*
X125896667Y-99419580D01*
X140803333Y-99474580D02*
X140755714Y-99522200D01*
X140755714Y-99522200D02*
X140612857Y-99569819D01*
X140612857Y-99569819D02*
X140517619Y-99569819D01*
X140517619Y-99569819D02*
X140374762Y-99522200D01*
X140374762Y-99522200D02*
X140279524Y-99426961D01*
X140279524Y-99426961D02*
X140231905Y-99331723D01*
X140231905Y-99331723D02*
X140184286Y-99141247D01*
X140184286Y-99141247D02*
X140184286Y-98998390D01*
X140184286Y-98998390D02*
X140231905Y-98807914D01*
X140231905Y-98807914D02*
X140279524Y-98712676D01*
X140279524Y-98712676D02*
X140374762Y-98617438D01*
X140374762Y-98617438D02*
X140517619Y-98569819D01*
X140517619Y-98569819D02*
X140612857Y-98569819D01*
X140612857Y-98569819D02*
X140755714Y-98617438D01*
X140755714Y-98617438D02*
X140803333Y-98665057D01*
X141755714Y-99569819D02*
X141184286Y-99569819D01*
X141470000Y-99569819D02*
X141470000Y-98569819D01*
X141470000Y-98569819D02*
X141374762Y-98712676D01*
X141374762Y-98712676D02*
X141279524Y-98807914D01*
X141279524Y-98807914D02*
X141184286Y-98855533D01*
X101588095Y-114484819D02*
X101588095Y-115294342D01*
X101588095Y-115294342D02*
X101635714Y-115389580D01*
X101635714Y-115389580D02*
X101683333Y-115437200D01*
X101683333Y-115437200D02*
X101778571Y-115484819D01*
X101778571Y-115484819D02*
X101969047Y-115484819D01*
X101969047Y-115484819D02*
X102064285Y-115437200D01*
X102064285Y-115437200D02*
X102111904Y-115389580D01*
X102111904Y-115389580D02*
X102159523Y-115294342D01*
X102159523Y-115294342D02*
X102159523Y-114484819D01*
X102588095Y-114580057D02*
X102635714Y-114532438D01*
X102635714Y-114532438D02*
X102730952Y-114484819D01*
X102730952Y-114484819D02*
X102969047Y-114484819D01*
X102969047Y-114484819D02*
X103064285Y-114532438D01*
X103064285Y-114532438D02*
X103111904Y-114580057D01*
X103111904Y-114580057D02*
X103159523Y-114675295D01*
X103159523Y-114675295D02*
X103159523Y-114770533D01*
X103159523Y-114770533D02*
X103111904Y-114913390D01*
X103111904Y-114913390D02*
X102540476Y-115484819D01*
X102540476Y-115484819D02*
X103159523Y-115484819D01*
X113117333Y-140916819D02*
X112784000Y-140440628D01*
X112545905Y-140916819D02*
X112545905Y-139916819D01*
X112545905Y-139916819D02*
X112926857Y-139916819D01*
X112926857Y-139916819D02*
X113022095Y-139964438D01*
X113022095Y-139964438D02*
X113069714Y-140012057D01*
X113069714Y-140012057D02*
X113117333Y-140107295D01*
X113117333Y-140107295D02*
X113117333Y-140250152D01*
X113117333Y-140250152D02*
X113069714Y-140345390D01*
X113069714Y-140345390D02*
X113022095Y-140393009D01*
X113022095Y-140393009D02*
X112926857Y-140440628D01*
X112926857Y-140440628D02*
X112545905Y-140440628D01*
X114069714Y-140916819D02*
X113498286Y-140916819D01*
X113784000Y-140916819D02*
X113784000Y-139916819D01*
X113784000Y-139916819D02*
X113688762Y-140059676D01*
X113688762Y-140059676D02*
X113593524Y-140154914D01*
X113593524Y-140154914D02*
X113498286Y-140202533D01*
X128611333Y-140790819D02*
X128278000Y-140314628D01*
X128039905Y-140790819D02*
X128039905Y-139790819D01*
X128039905Y-139790819D02*
X128420857Y-139790819D01*
X128420857Y-139790819D02*
X128516095Y-139838438D01*
X128516095Y-139838438D02*
X128563714Y-139886057D01*
X128563714Y-139886057D02*
X128611333Y-139981295D01*
X128611333Y-139981295D02*
X128611333Y-140124152D01*
X128611333Y-140124152D02*
X128563714Y-140219390D01*
X128563714Y-140219390D02*
X128516095Y-140267009D01*
X128516095Y-140267009D02*
X128420857Y-140314628D01*
X128420857Y-140314628D02*
X128039905Y-140314628D01*
X129516095Y-139790819D02*
X129039905Y-139790819D01*
X129039905Y-139790819D02*
X128992286Y-140267009D01*
X128992286Y-140267009D02*
X129039905Y-140219390D01*
X129039905Y-140219390D02*
X129135143Y-140171771D01*
X129135143Y-140171771D02*
X129373238Y-140171771D01*
X129373238Y-140171771D02*
X129468476Y-140219390D01*
X129468476Y-140219390D02*
X129516095Y-140267009D01*
X129516095Y-140267009D02*
X129563714Y-140362247D01*
X129563714Y-140362247D02*
X129563714Y-140600342D01*
X129563714Y-140600342D02*
X129516095Y-140695580D01*
X129516095Y-140695580D02*
X129468476Y-140743200D01*
X129468476Y-140743200D02*
X129373238Y-140790819D01*
X129373238Y-140790819D02*
X129135143Y-140790819D01*
X129135143Y-140790819D02*
X129039905Y-140743200D01*
X129039905Y-140743200D02*
X128992286Y-140695580D01*
X125055334Y-135074818D02*
X124722001Y-134598627D01*
X124483906Y-135074818D02*
X124483906Y-134074818D01*
X124483906Y-134074818D02*
X124864858Y-134074818D01*
X124864858Y-134074818D02*
X124960096Y-134122437D01*
X124960096Y-134122437D02*
X125007715Y-134170056D01*
X125007715Y-134170056D02*
X125055334Y-134265294D01*
X125055334Y-134265294D02*
X125055334Y-134408151D01*
X125055334Y-134408151D02*
X125007715Y-134503389D01*
X125007715Y-134503389D02*
X124960096Y-134551008D01*
X124960096Y-134551008D02*
X124864858Y-134598627D01*
X124864858Y-134598627D02*
X124483906Y-134598627D01*
X125912477Y-134408151D02*
X125912477Y-135074818D01*
X125674382Y-134027199D02*
X125436287Y-134741484D01*
X125436287Y-134741484D02*
X126055334Y-134741484D01*
X144359333Y-140790819D02*
X144026000Y-140314628D01*
X143787905Y-140790819D02*
X143787905Y-139790819D01*
X143787905Y-139790819D02*
X144168857Y-139790819D01*
X144168857Y-139790819D02*
X144264095Y-139838438D01*
X144264095Y-139838438D02*
X144311714Y-139886057D01*
X144311714Y-139886057D02*
X144359333Y-139981295D01*
X144359333Y-139981295D02*
X144359333Y-140124152D01*
X144359333Y-140124152D02*
X144311714Y-140219390D01*
X144311714Y-140219390D02*
X144264095Y-140267009D01*
X144264095Y-140267009D02*
X144168857Y-140314628D01*
X144168857Y-140314628D02*
X143787905Y-140314628D01*
X144692667Y-139790819D02*
X145359333Y-139790819D01*
X145359333Y-139790819D02*
X144930762Y-140790819D01*
X140549333Y-135074819D02*
X140216000Y-134598628D01*
X139977905Y-135074819D02*
X139977905Y-134074819D01*
X139977905Y-134074819D02*
X140358857Y-134074819D01*
X140358857Y-134074819D02*
X140454095Y-134122438D01*
X140454095Y-134122438D02*
X140501714Y-134170057D01*
X140501714Y-134170057D02*
X140549333Y-134265295D01*
X140549333Y-134265295D02*
X140549333Y-134408152D01*
X140549333Y-134408152D02*
X140501714Y-134503390D01*
X140501714Y-134503390D02*
X140454095Y-134551009D01*
X140454095Y-134551009D02*
X140358857Y-134598628D01*
X140358857Y-134598628D02*
X139977905Y-134598628D01*
X141406476Y-134074819D02*
X141216000Y-134074819D01*
X141216000Y-134074819D02*
X141120762Y-134122438D01*
X141120762Y-134122438D02*
X141073143Y-134170057D01*
X141073143Y-134170057D02*
X140977905Y-134312914D01*
X140977905Y-134312914D02*
X140930286Y-134503390D01*
X140930286Y-134503390D02*
X140930286Y-134884342D01*
X140930286Y-134884342D02*
X140977905Y-134979580D01*
X140977905Y-134979580D02*
X141025524Y-135027200D01*
X141025524Y-135027200D02*
X141120762Y-135074819D01*
X141120762Y-135074819D02*
X141311238Y-135074819D01*
X141311238Y-135074819D02*
X141406476Y-135027200D01*
X141406476Y-135027200D02*
X141454095Y-134979580D01*
X141454095Y-134979580D02*
X141501714Y-134884342D01*
X141501714Y-134884342D02*
X141501714Y-134646247D01*
X141501714Y-134646247D02*
X141454095Y-134551009D01*
X141454095Y-134551009D02*
X141406476Y-134503390D01*
X141406476Y-134503390D02*
X141311238Y-134455771D01*
X141311238Y-134455771D02*
X141120762Y-134455771D01*
X141120762Y-134455771D02*
X141025524Y-134503390D01*
X141025524Y-134503390D02*
X140977905Y-134551009D01*
X140977905Y-134551009D02*
X140930286Y-134646247D01*
X119277319Y-135274666D02*
X118801128Y-135607999D01*
X119277319Y-135846094D02*
X118277319Y-135846094D01*
X118277319Y-135846094D02*
X118277319Y-135465142D01*
X118277319Y-135465142D02*
X118324938Y-135369904D01*
X118324938Y-135369904D02*
X118372557Y-135322285D01*
X118372557Y-135322285D02*
X118467795Y-135274666D01*
X118467795Y-135274666D02*
X118610652Y-135274666D01*
X118610652Y-135274666D02*
X118705890Y-135322285D01*
X118705890Y-135322285D02*
X118753509Y-135369904D01*
X118753509Y-135369904D02*
X118801128Y-135465142D01*
X118801128Y-135465142D02*
X118801128Y-135846094D01*
X118372557Y-134893713D02*
X118324938Y-134846094D01*
X118324938Y-134846094D02*
X118277319Y-134750856D01*
X118277319Y-134750856D02*
X118277319Y-134512761D01*
X118277319Y-134512761D02*
X118324938Y-134417523D01*
X118324938Y-134417523D02*
X118372557Y-134369904D01*
X118372557Y-134369904D02*
X118467795Y-134322285D01*
X118467795Y-134322285D02*
X118563033Y-134322285D01*
X118563033Y-134322285D02*
X118705890Y-134369904D01*
X118705890Y-134369904D02*
X119277319Y-134941332D01*
X119277319Y-134941332D02*
X119277319Y-134322285D01*
X115975319Y-135274666D02*
X115499128Y-135607999D01*
X115975319Y-135846094D02*
X114975319Y-135846094D01*
X114975319Y-135846094D02*
X114975319Y-135465142D01*
X114975319Y-135465142D02*
X115022938Y-135369904D01*
X115022938Y-135369904D02*
X115070557Y-135322285D01*
X115070557Y-135322285D02*
X115165795Y-135274666D01*
X115165795Y-135274666D02*
X115308652Y-135274666D01*
X115308652Y-135274666D02*
X115403890Y-135322285D01*
X115403890Y-135322285D02*
X115451509Y-135369904D01*
X115451509Y-135369904D02*
X115499128Y-135465142D01*
X115499128Y-135465142D02*
X115499128Y-135846094D01*
X114975319Y-134941332D02*
X114975319Y-134322285D01*
X114975319Y-134322285D02*
X115356271Y-134655618D01*
X115356271Y-134655618D02*
X115356271Y-134512761D01*
X115356271Y-134512761D02*
X115403890Y-134417523D01*
X115403890Y-134417523D02*
X115451509Y-134369904D01*
X115451509Y-134369904D02*
X115546747Y-134322285D01*
X115546747Y-134322285D02*
X115784842Y-134322285D01*
X115784842Y-134322285D02*
X115880080Y-134369904D01*
X115880080Y-134369904D02*
X115927700Y-134417523D01*
X115927700Y-134417523D02*
X115975319Y-134512761D01*
X115975319Y-134512761D02*
X115975319Y-134798475D01*
X115975319Y-134798475D02*
X115927700Y-134893713D01*
X115927700Y-134893713D02*
X115880080Y-134941332D01*
X128428761Y-135170057D02*
X128333523Y-135122438D01*
X128333523Y-135122438D02*
X128238285Y-135027200D01*
X128238285Y-135027200D02*
X128095428Y-134884342D01*
X128095428Y-134884342D02*
X128000190Y-134836723D01*
X128000190Y-134836723D02*
X127904952Y-134836723D01*
X127952571Y-135074819D02*
X127857333Y-135027200D01*
X127857333Y-135027200D02*
X127762095Y-134931961D01*
X127762095Y-134931961D02*
X127714476Y-134741485D01*
X127714476Y-134741485D02*
X127714476Y-134408152D01*
X127714476Y-134408152D02*
X127762095Y-134217676D01*
X127762095Y-134217676D02*
X127857333Y-134122438D01*
X127857333Y-134122438D02*
X127952571Y-134074819D01*
X127952571Y-134074819D02*
X128143047Y-134074819D01*
X128143047Y-134074819D02*
X128238285Y-134122438D01*
X128238285Y-134122438D02*
X128333523Y-134217676D01*
X128333523Y-134217676D02*
X128381142Y-134408152D01*
X128381142Y-134408152D02*
X128381142Y-134741485D01*
X128381142Y-134741485D02*
X128333523Y-134931961D01*
X128333523Y-134931961D02*
X128238285Y-135027200D01*
X128238285Y-135027200D02*
X128143047Y-135074819D01*
X128143047Y-135074819D02*
X127952571Y-135074819D01*
X128762095Y-134170057D02*
X128809714Y-134122438D01*
X128809714Y-134122438D02*
X128904952Y-134074819D01*
X128904952Y-134074819D02*
X129143047Y-134074819D01*
X129143047Y-134074819D02*
X129238285Y-134122438D01*
X129238285Y-134122438D02*
X129285904Y-134170057D01*
X129285904Y-134170057D02*
X129333523Y-134265295D01*
X129333523Y-134265295D02*
X129333523Y-134360533D01*
X129333523Y-134360533D02*
X129285904Y-134503390D01*
X129285904Y-134503390D02*
X128714476Y-135074819D01*
X128714476Y-135074819D02*
X129333523Y-135074819D01*
X143922761Y-135170057D02*
X143827523Y-135122438D01*
X143827523Y-135122438D02*
X143732285Y-135027200D01*
X143732285Y-135027200D02*
X143589428Y-134884342D01*
X143589428Y-134884342D02*
X143494190Y-134836723D01*
X143494190Y-134836723D02*
X143398952Y-134836723D01*
X143446571Y-135074819D02*
X143351333Y-135027200D01*
X143351333Y-135027200D02*
X143256095Y-134931961D01*
X143256095Y-134931961D02*
X143208476Y-134741485D01*
X143208476Y-134741485D02*
X143208476Y-134408152D01*
X143208476Y-134408152D02*
X143256095Y-134217676D01*
X143256095Y-134217676D02*
X143351333Y-134122438D01*
X143351333Y-134122438D02*
X143446571Y-134074819D01*
X143446571Y-134074819D02*
X143637047Y-134074819D01*
X143637047Y-134074819D02*
X143732285Y-134122438D01*
X143732285Y-134122438D02*
X143827523Y-134217676D01*
X143827523Y-134217676D02*
X143875142Y-134408152D01*
X143875142Y-134408152D02*
X143875142Y-134741485D01*
X143875142Y-134741485D02*
X143827523Y-134931961D01*
X143827523Y-134931961D02*
X143732285Y-135027200D01*
X143732285Y-135027200D02*
X143637047Y-135074819D01*
X143637047Y-135074819D02*
X143446571Y-135074819D01*
X144208476Y-134074819D02*
X144827523Y-134074819D01*
X144827523Y-134074819D02*
X144494190Y-134455771D01*
X144494190Y-134455771D02*
X144637047Y-134455771D01*
X144637047Y-134455771D02*
X144732285Y-134503390D01*
X144732285Y-134503390D02*
X144779904Y-134551009D01*
X144779904Y-134551009D02*
X144827523Y-134646247D01*
X144827523Y-134646247D02*
X144827523Y-134884342D01*
X144827523Y-134884342D02*
X144779904Y-134979580D01*
X144779904Y-134979580D02*
X144732285Y-135027200D01*
X144732285Y-135027200D02*
X144637047Y-135074819D01*
X144637047Y-135074819D02*
X144351333Y-135074819D01*
X144351333Y-135074819D02*
X144256095Y-135027200D01*
X144256095Y-135027200D02*
X144208476Y-134979580D01*
X109632761Y-138078057D02*
X109537523Y-138030438D01*
X109537523Y-138030438D02*
X109442285Y-137935200D01*
X109442285Y-137935200D02*
X109299428Y-137792342D01*
X109299428Y-137792342D02*
X109204190Y-137744723D01*
X109204190Y-137744723D02*
X109108952Y-137744723D01*
X109156571Y-137982819D02*
X109061333Y-137935200D01*
X109061333Y-137935200D02*
X108966095Y-137839961D01*
X108966095Y-137839961D02*
X108918476Y-137649485D01*
X108918476Y-137649485D02*
X108918476Y-137316152D01*
X108918476Y-137316152D02*
X108966095Y-137125676D01*
X108966095Y-137125676D02*
X109061333Y-137030438D01*
X109061333Y-137030438D02*
X109156571Y-136982819D01*
X109156571Y-136982819D02*
X109347047Y-136982819D01*
X109347047Y-136982819D02*
X109442285Y-137030438D01*
X109442285Y-137030438D02*
X109537523Y-137125676D01*
X109537523Y-137125676D02*
X109585142Y-137316152D01*
X109585142Y-137316152D02*
X109585142Y-137649485D01*
X109585142Y-137649485D02*
X109537523Y-137839961D01*
X109537523Y-137839961D02*
X109442285Y-137935200D01*
X109442285Y-137935200D02*
X109347047Y-137982819D01*
X109347047Y-137982819D02*
X109156571Y-137982819D01*
X110537523Y-137982819D02*
X109966095Y-137982819D01*
X110251809Y-137982819D02*
X110251809Y-136982819D01*
X110251809Y-136982819D02*
X110156571Y-137125676D01*
X110156571Y-137125676D02*
X110061333Y-137220914D01*
X110061333Y-137220914D02*
X109966095Y-137268533D01*
X111449999Y-114214819D02*
X110973809Y-114214819D01*
X110973809Y-114214819D02*
X110973809Y-113214819D01*
X112307142Y-114214819D02*
X111735714Y-114214819D01*
X112021428Y-114214819D02*
X112021428Y-113214819D01*
X112021428Y-113214819D02*
X111926190Y-113357676D01*
X111926190Y-113357676D02*
X111830952Y-113452914D01*
X111830952Y-113452914D02*
X111735714Y-113500533D01*
X97556666Y-127724819D02*
X97556666Y-128439104D01*
X97556666Y-128439104D02*
X97509047Y-128581961D01*
X97509047Y-128581961D02*
X97413809Y-128677200D01*
X97413809Y-128677200D02*
X97270952Y-128724819D01*
X97270952Y-128724819D02*
X97175714Y-128724819D01*
X97937619Y-127724819D02*
X98556666Y-127724819D01*
X98556666Y-127724819D02*
X98223333Y-128105771D01*
X98223333Y-128105771D02*
X98366190Y-128105771D01*
X98366190Y-128105771D02*
X98461428Y-128153390D01*
X98461428Y-128153390D02*
X98509047Y-128201009D01*
X98509047Y-128201009D02*
X98556666Y-128296247D01*
X98556666Y-128296247D02*
X98556666Y-128534342D01*
X98556666Y-128534342D02*
X98509047Y-128629580D01*
X98509047Y-128629580D02*
X98461428Y-128677200D01*
X98461428Y-128677200D02*
X98366190Y-128724819D01*
X98366190Y-128724819D02*
X98080476Y-128724819D01*
X98080476Y-128724819D02*
X97985238Y-128677200D01*
X97985238Y-128677200D02*
X97937619Y-128629580D01*
X100631666Y-97879819D02*
X100631666Y-98594104D01*
X100631666Y-98594104D02*
X100584047Y-98736961D01*
X100584047Y-98736961D02*
X100488809Y-98832200D01*
X100488809Y-98832200D02*
X100345952Y-98879819D01*
X100345952Y-98879819D02*
X100250714Y-98879819D01*
X101631666Y-98879819D02*
X101060238Y-98879819D01*
X101345952Y-98879819D02*
X101345952Y-97879819D01*
X101345952Y-97879819D02*
X101250714Y-98022676D01*
X101250714Y-98022676D02*
X101155476Y-98117914D01*
X101155476Y-98117914D02*
X101060238Y-98165533D01*
X101266666Y-99784819D02*
X101266666Y-100499104D01*
X101266666Y-100499104D02*
X101219047Y-100641961D01*
X101219047Y-100641961D02*
X101123809Y-100737200D01*
X101123809Y-100737200D02*
X100980952Y-100784819D01*
X100980952Y-100784819D02*
X100885714Y-100784819D01*
X101695238Y-99880057D02*
X101742857Y-99832438D01*
X101742857Y-99832438D02*
X101838095Y-99784819D01*
X101838095Y-99784819D02*
X102076190Y-99784819D01*
X102076190Y-99784819D02*
X102171428Y-99832438D01*
X102171428Y-99832438D02*
X102219047Y-99880057D01*
X102219047Y-99880057D02*
X102266666Y-99975295D01*
X102266666Y-99975295D02*
X102266666Y-100070533D01*
X102266666Y-100070533D02*
X102219047Y-100213390D01*
X102219047Y-100213390D02*
X101647619Y-100784819D01*
X101647619Y-100784819D02*
X102266666Y-100784819D01*
X108886666Y-99516009D02*
X108553333Y-99516009D01*
X108553333Y-100039819D02*
X108553333Y-99039819D01*
X108553333Y-99039819D02*
X109029523Y-99039819D01*
X109934285Y-100039819D02*
X109362857Y-100039819D01*
X109648571Y-100039819D02*
X109648571Y-99039819D01*
X109648571Y-99039819D02*
X109553333Y-99182676D01*
X109553333Y-99182676D02*
X109458095Y-99277914D01*
X109458095Y-99277914D02*
X109362857Y-99325533D01*
X108839405Y-141010819D02*
X108839405Y-140010819D01*
X108839405Y-140010819D02*
X109077500Y-140010819D01*
X109077500Y-140010819D02*
X109220357Y-140058438D01*
X109220357Y-140058438D02*
X109315595Y-140153676D01*
X109315595Y-140153676D02*
X109363214Y-140248914D01*
X109363214Y-140248914D02*
X109410833Y-140439390D01*
X109410833Y-140439390D02*
X109410833Y-140582247D01*
X109410833Y-140582247D02*
X109363214Y-140772723D01*
X109363214Y-140772723D02*
X109315595Y-140867961D01*
X109315595Y-140867961D02*
X109220357Y-140963200D01*
X109220357Y-140963200D02*
X109077500Y-141010819D01*
X109077500Y-141010819D02*
X108839405Y-141010819D01*
X110363214Y-141010819D02*
X109791786Y-141010819D01*
X110077500Y-141010819D02*
X110077500Y-140010819D01*
X110077500Y-140010819D02*
X109982262Y-140153676D01*
X109982262Y-140153676D02*
X109887024Y-140248914D01*
X109887024Y-140248914D02*
X109791786Y-140296533D01*
X124460405Y-141010819D02*
X124460405Y-140010819D01*
X124460405Y-140010819D02*
X124698500Y-140010819D01*
X124698500Y-140010819D02*
X124841357Y-140058438D01*
X124841357Y-140058438D02*
X124936595Y-140153676D01*
X124936595Y-140153676D02*
X124984214Y-140248914D01*
X124984214Y-140248914D02*
X125031833Y-140439390D01*
X125031833Y-140439390D02*
X125031833Y-140582247D01*
X125031833Y-140582247D02*
X124984214Y-140772723D01*
X124984214Y-140772723D02*
X124936595Y-140867961D01*
X124936595Y-140867961D02*
X124841357Y-140963200D01*
X124841357Y-140963200D02*
X124698500Y-141010819D01*
X124698500Y-141010819D02*
X124460405Y-141010819D01*
X125888976Y-140344152D02*
X125888976Y-141010819D01*
X125650881Y-139963200D02*
X125412786Y-140677485D01*
X125412786Y-140677485D02*
X126031833Y-140677485D01*
X140081405Y-141010819D02*
X140081405Y-140010819D01*
X140081405Y-140010819D02*
X140319500Y-140010819D01*
X140319500Y-140010819D02*
X140462357Y-140058438D01*
X140462357Y-140058438D02*
X140557595Y-140153676D01*
X140557595Y-140153676D02*
X140605214Y-140248914D01*
X140605214Y-140248914D02*
X140652833Y-140439390D01*
X140652833Y-140439390D02*
X140652833Y-140582247D01*
X140652833Y-140582247D02*
X140605214Y-140772723D01*
X140605214Y-140772723D02*
X140557595Y-140867961D01*
X140557595Y-140867961D02*
X140462357Y-140963200D01*
X140462357Y-140963200D02*
X140319500Y-141010819D01*
X140319500Y-141010819D02*
X140081405Y-141010819D01*
X141509976Y-140010819D02*
X141319500Y-140010819D01*
X141319500Y-140010819D02*
X141224262Y-140058438D01*
X141224262Y-140058438D02*
X141176643Y-140106057D01*
X141176643Y-140106057D02*
X141081405Y-140248914D01*
X141081405Y-140248914D02*
X141033786Y-140439390D01*
X141033786Y-140439390D02*
X141033786Y-140820342D01*
X141033786Y-140820342D02*
X141081405Y-140915580D01*
X141081405Y-140915580D02*
X141129024Y-140963200D01*
X141129024Y-140963200D02*
X141224262Y-141010819D01*
X141224262Y-141010819D02*
X141414738Y-141010819D01*
X141414738Y-141010819D02*
X141509976Y-140963200D01*
X141509976Y-140963200D02*
X141557595Y-140915580D01*
X141557595Y-140915580D02*
X141605214Y-140820342D01*
X141605214Y-140820342D02*
X141605214Y-140582247D01*
X141605214Y-140582247D02*
X141557595Y-140487009D01*
X141557595Y-140487009D02*
X141509976Y-140439390D01*
X141509976Y-140439390D02*
X141414738Y-140391771D01*
X141414738Y-140391771D02*
X141224262Y-140391771D01*
X141224262Y-140391771D02*
X141129024Y-140439390D01*
X141129024Y-140439390D02*
X141081405Y-140487009D01*
X141081405Y-140487009D02*
X141033786Y-140582247D01*
X129954819Y-122140594D02*
X128954819Y-122140594D01*
X128954819Y-122140594D02*
X128954819Y-121902499D01*
X128954819Y-121902499D02*
X129002438Y-121759642D01*
X129002438Y-121759642D02*
X129097676Y-121664404D01*
X129097676Y-121664404D02*
X129192914Y-121616785D01*
X129192914Y-121616785D02*
X129383390Y-121569166D01*
X129383390Y-121569166D02*
X129526247Y-121569166D01*
X129526247Y-121569166D02*
X129716723Y-121616785D01*
X129716723Y-121616785D02*
X129811961Y-121664404D01*
X129811961Y-121664404D02*
X129907200Y-121759642D01*
X129907200Y-121759642D02*
X129954819Y-121902499D01*
X129954819Y-121902499D02*
X129954819Y-122140594D01*
X128954819Y-120664404D02*
X128954819Y-121140594D01*
X128954819Y-121140594D02*
X129431009Y-121188213D01*
X129431009Y-121188213D02*
X129383390Y-121140594D01*
X129383390Y-121140594D02*
X129335771Y-121045356D01*
X129335771Y-121045356D02*
X129335771Y-120807261D01*
X129335771Y-120807261D02*
X129383390Y-120712023D01*
X129383390Y-120712023D02*
X129431009Y-120664404D01*
X129431009Y-120664404D02*
X129526247Y-120616785D01*
X129526247Y-120616785D02*
X129764342Y-120616785D01*
X129764342Y-120616785D02*
X129859580Y-120664404D01*
X129859580Y-120664404D02*
X129907200Y-120712023D01*
X129907200Y-120712023D02*
X129954819Y-120807261D01*
X129954819Y-120807261D02*
X129954819Y-121045356D01*
X129954819Y-121045356D02*
X129907200Y-121140594D01*
X129907200Y-121140594D02*
X129859580Y-121188213D01*
X112926905Y-105417319D02*
X112926905Y-104417319D01*
X112926905Y-104417319D02*
X113165000Y-104417319D01*
X113165000Y-104417319D02*
X113307857Y-104464938D01*
X113307857Y-104464938D02*
X113403095Y-104560176D01*
X113403095Y-104560176D02*
X113450714Y-104655414D01*
X113450714Y-104655414D02*
X113498333Y-104845890D01*
X113498333Y-104845890D02*
X113498333Y-104988747D01*
X113498333Y-104988747D02*
X113450714Y-105179223D01*
X113450714Y-105179223D02*
X113403095Y-105274461D01*
X113403095Y-105274461D02*
X113307857Y-105369700D01*
X113307857Y-105369700D02*
X113165000Y-105417319D01*
X113165000Y-105417319D02*
X112926905Y-105417319D01*
X113879286Y-104512557D02*
X113926905Y-104464938D01*
X113926905Y-104464938D02*
X114022143Y-104417319D01*
X114022143Y-104417319D02*
X114260238Y-104417319D01*
X114260238Y-104417319D02*
X114355476Y-104464938D01*
X114355476Y-104464938D02*
X114403095Y-104512557D01*
X114403095Y-104512557D02*
X114450714Y-104607795D01*
X114450714Y-104607795D02*
X114450714Y-104703033D01*
X114450714Y-104703033D02*
X114403095Y-104845890D01*
X114403095Y-104845890D02*
X113831667Y-105417319D01*
X113831667Y-105417319D02*
X114450714Y-105417319D01*
X140918333Y-115294580D02*
X140870714Y-115342200D01*
X140870714Y-115342200D02*
X140727857Y-115389819D01*
X140727857Y-115389819D02*
X140632619Y-115389819D01*
X140632619Y-115389819D02*
X140489762Y-115342200D01*
X140489762Y-115342200D02*
X140394524Y-115246961D01*
X140394524Y-115246961D02*
X140346905Y-115151723D01*
X140346905Y-115151723D02*
X140299286Y-114961247D01*
X140299286Y-114961247D02*
X140299286Y-114818390D01*
X140299286Y-114818390D02*
X140346905Y-114627914D01*
X140346905Y-114627914D02*
X140394524Y-114532676D01*
X140394524Y-114532676D02*
X140489762Y-114437438D01*
X140489762Y-114437438D02*
X140632619Y-114389819D01*
X140632619Y-114389819D02*
X140727857Y-114389819D01*
X140727857Y-114389819D02*
X140870714Y-114437438D01*
X140870714Y-114437438D02*
X140918333Y-114485057D01*
X141299286Y-114485057D02*
X141346905Y-114437438D01*
X141346905Y-114437438D02*
X141442143Y-114389819D01*
X141442143Y-114389819D02*
X141680238Y-114389819D01*
X141680238Y-114389819D02*
X141775476Y-114437438D01*
X141775476Y-114437438D02*
X141823095Y-114485057D01*
X141823095Y-114485057D02*
X141870714Y-114580295D01*
X141870714Y-114580295D02*
X141870714Y-114675533D01*
X141870714Y-114675533D02*
X141823095Y-114818390D01*
X141823095Y-114818390D02*
X141251667Y-115389819D01*
X141251667Y-115389819D02*
X141870714Y-115389819D01*
D11*
%TO.C,D3*%
X126755000Y-105965000D02*
X126755000Y-100605000D01*
X123735000Y-100605000D02*
X121465000Y-100605000D01*
X122665000Y-111325000D02*
X121465000Y-111325000D01*
X118435000Y-111325000D02*
X118435000Y-100605000D01*
X126905000Y-111855000D02*
X126905000Y-111575000D01*
X127185000Y-111575000D01*
X126905000Y-111855000D01*
G36*
X126905000Y-111855000D02*
G01*
X126905000Y-111575000D01*
X127185000Y-111575000D01*
X126905000Y-111855000D01*
G37*
%TO.C,C1*%
X134065000Y-112215000D02*
X134065000Y-110965000D01*
X133440000Y-111590000D02*
X134690000Y-111590000D01*
X132329437Y-110725000D02*
X135315000Y-110725000D01*
X132329437Y-110725000D02*
X131265000Y-109660563D01*
X140720563Y-110725000D02*
X137735000Y-110725000D01*
X140720563Y-110725000D02*
X141785000Y-109660563D01*
X131265000Y-109660563D02*
X131265000Y-100205000D01*
X141785000Y-109660563D02*
X141785000Y-100205000D01*
X131265000Y-100205000D02*
X135315000Y-100205000D01*
X141785000Y-100205000D02*
X137735000Y-100205000D01*
%TO.C,U1*%
X101675000Y-135965000D02*
X101345000Y-136205000D01*
X101345000Y-135725000D01*
X101675000Y-135965000D01*
G36*
X101675000Y-135965000D02*
G01*
X101345000Y-136205000D01*
X101345000Y-135725000D01*
X101675000Y-135965000D01*
G37*
X106700000Y-133265000D02*
X106700000Y-131315000D01*
X106700000Y-133265000D02*
X106700000Y-135215000D01*
X101580000Y-133265000D02*
X101580000Y-131315000D01*
X101580000Y-133265000D02*
X101580000Y-135215000D01*
%TO.C,U2*%
X103480000Y-126580000D02*
X103480000Y-125630000D01*
X103480000Y-116180000D02*
X103480000Y-117130000D01*
X101980000Y-126580000D02*
X103480000Y-126580000D01*
X101980000Y-116180000D02*
X103480000Y-116180000D01*
X106282500Y-125960000D02*
X105802500Y-125960000D01*
X106042500Y-125630000D01*
X106282500Y-125960000D01*
G36*
X106282500Y-125960000D02*
G01*
X105802500Y-125960000D01*
X106042500Y-125630000D01*
X106282500Y-125960000D01*
G37*
%TO.C,R1*%
X113056936Y-141251000D02*
X113511064Y-141251000D01*
X113056936Y-142721000D02*
X113511064Y-142721000D01*
%TO.C,R5*%
X128550936Y-141251000D02*
X129005064Y-141251000D01*
X128550936Y-142721000D02*
X129005064Y-142721000D01*
%TO.C,R4*%
X124565500Y-137387064D02*
X124565500Y-136932936D01*
X126035500Y-137387064D02*
X126035500Y-136932936D01*
%TO.C,R7*%
X144298936Y-141251000D02*
X144753064Y-141251000D01*
X144298936Y-142721000D02*
X144753064Y-142721000D01*
%TO.C,R6*%
X140156500Y-137387064D02*
X140156500Y-136932936D01*
X141626500Y-137387064D02*
X141626500Y-136932936D01*
%TO.C,R2*%
X116437500Y-134880936D02*
X116437500Y-135335064D01*
X117907500Y-134880936D02*
X117907500Y-135335064D01*
%TO.C,R3*%
X113135500Y-134880936D02*
X113135500Y-135335064D01*
X114605500Y-134880936D02*
X114605500Y-135335064D01*
%TO.C,Q2*%
X127440000Y-135650000D02*
X127200000Y-135320000D01*
X127680000Y-135320000D01*
X127440000Y-135650000D01*
G36*
X127440000Y-135650000D02*
G01*
X127200000Y-135320000D01*
X127680000Y-135320000D01*
X127440000Y-135650000D01*
G37*
X128602500Y-138720000D02*
X129252500Y-138720000D01*
X128602500Y-138720000D02*
X127952500Y-138720000D01*
X128602500Y-135600000D02*
X129252500Y-135600000D01*
X128602500Y-135600000D02*
X127952500Y-135600000D01*
%TO.C,Q3*%
X144272000Y-135600000D02*
X143622000Y-135600000D01*
X144272000Y-135600000D02*
X144922000Y-135600000D01*
X144272000Y-138720000D02*
X143622000Y-138720000D01*
X144272000Y-138720000D02*
X144922000Y-138720000D01*
X143109500Y-135650000D02*
X142869500Y-135320000D01*
X143349500Y-135320000D01*
X143109500Y-135650000D01*
G36*
X143109500Y-135650000D02*
G01*
X142869500Y-135320000D01*
X143349500Y-135320000D01*
X143109500Y-135650000D01*
G37*
%TO.C,Q1*%
X111130500Y-136968000D02*
X110650500Y-136968000D01*
X110890500Y-136638000D01*
X111130500Y-136968000D01*
G36*
X111130500Y-136968000D02*
G01*
X110650500Y-136968000D01*
X110890500Y-136638000D01*
X111130500Y-136968000D01*
G37*
X109728000Y-133568000D02*
X109078000Y-133568000D01*
X109728000Y-133568000D02*
X110378000Y-133568000D01*
X109728000Y-136688000D02*
X109078000Y-136688000D01*
X109728000Y-136688000D02*
X110378000Y-136688000D01*
%TO.C,L1*%
X110821666Y-127890000D02*
X114371666Y-127890000D01*
X110821666Y-127890000D02*
X110821666Y-114870000D01*
X123841666Y-127890000D02*
X120291666Y-127890000D01*
X123841666Y-127890000D02*
X123841666Y-114870000D01*
X110821666Y-114870000D02*
X114371666Y-114870000D01*
X123841666Y-114870000D02*
X120291666Y-114870000D01*
%TO.C,J3*%
X92690000Y-129010000D02*
X91950000Y-129010000D01*
X91950000Y-129010000D02*
X91950000Y-129510000D01*
X98510000Y-129250000D02*
X92190000Y-129250000D01*
X98510000Y-129250000D02*
X98510000Y-137450000D01*
X98050000Y-129250000D02*
X98050000Y-137450000D01*
X92750000Y-129250000D02*
X92750000Y-130020000D01*
X92190000Y-129250000D02*
X92190000Y-130020000D01*
X92750000Y-131600000D02*
X92750000Y-132560000D01*
X92190000Y-131600000D02*
X92190000Y-132560000D01*
X92750000Y-134140000D02*
X92750000Y-135100000D01*
X92190000Y-134140000D02*
X92190000Y-135100000D01*
X92750000Y-136680000D02*
X92750000Y-137450000D01*
X92190000Y-136680000D02*
X92190000Y-137450000D01*
X98510000Y-137450000D02*
X92190000Y-137450000D01*
%TO.C,J1*%
X100910000Y-92020000D02*
X151830000Y-92020000D01*
X103510000Y-94620000D02*
X100910000Y-94620000D01*
X100910000Y-94620000D02*
X100910000Y-92020000D01*
X151830000Y-97220000D02*
X151830000Y-92020000D01*
X103510000Y-97220000D02*
X103510000Y-94620000D01*
X103510000Y-97220000D02*
X151830000Y-97220000D01*
X102240000Y-97220000D02*
X100910000Y-97220000D01*
X100910000Y-97220000D02*
X100910000Y-95890000D01*
%TO.C,J2*%
X92690000Y-101295000D02*
X91950000Y-101295000D01*
X91950000Y-101295000D02*
X91950000Y-101795000D01*
X102111000Y-101535000D02*
X92190000Y-101535000D01*
X102111000Y-101535000D02*
X102111000Y-111815000D01*
X99151000Y-101535000D02*
X99151000Y-111815000D01*
X94250000Y-101535000D02*
X94250000Y-111815000D01*
X92750000Y-101535000D02*
X92750000Y-111815000D01*
X92190000Y-101535000D02*
X92190000Y-111815000D01*
X95827000Y-107988000D02*
X95781000Y-107941000D01*
X95611000Y-108181000D02*
X95576000Y-108146000D01*
X98125000Y-110285000D02*
X98089000Y-110250000D01*
X97919000Y-110490000D02*
X97873000Y-110443000D01*
X102111000Y-111815000D02*
X92190000Y-111815000D01*
X96166958Y-102599574D02*
G75*
G02*
X97533999Y-102600001I683041J-1535419D01*
G01*
X98385426Y-103451958D02*
G75*
G02*
X98384999Y-104818999I-1535419J-683041D01*
G01*
X95169748Y-104163805D02*
G75*
G02*
X95315001Y-103451000I1680253J28806D01*
G01*
X95315245Y-104818318D02*
G75*
G02*
X95170001Y-104135000I1534755J683318D01*
G01*
X97533042Y-105670426D02*
G75*
G02*
X96166000Y-105670000I-683042J1535426D01*
G01*
X98530000Y-109215000D02*
G75*
G02*
X95170000Y-109215000I-1680000J0D01*
G01*
X95170000Y-109215000D02*
G75*
G02*
X98530000Y-109215000I1680000J0D01*
G01*
%TO.C,F1*%
X106161248Y-100525000D02*
X108933752Y-100525000D01*
X106161248Y-103945000D02*
X108933752Y-103945000D01*
%TO.C,D1*%
X108092500Y-141251000D02*
X108092500Y-142721000D01*
X108092500Y-142721000D02*
X110377500Y-142721000D01*
X110377500Y-141251000D02*
X108092500Y-141251000D01*
%TO.C,D4*%
X123713500Y-141251000D02*
X123713500Y-142721000D01*
X123713500Y-142721000D02*
X125998500Y-142721000D01*
X125998500Y-141251000D02*
X123713500Y-141251000D01*
%TO.C,D6*%
X139334500Y-141251000D02*
X139334500Y-142721000D01*
X139334500Y-142721000D02*
X141619500Y-142721000D01*
X141619500Y-141251000D02*
X139334500Y-141251000D01*
%TO.C,D5*%
X128650000Y-117892500D02*
X125350000Y-117892500D01*
X128650000Y-117892500D02*
X128650000Y-123402500D01*
X125350000Y-117892500D02*
X125350000Y-123402500D01*
%TO.C,D2*%
X114355000Y-112165000D02*
X105845000Y-112165000D01*
X114355000Y-105665000D02*
X114355000Y-112165000D01*
X114355000Y-105665000D02*
X105845000Y-105665000D01*
%TO.C,C2*%
X134180000Y-128130000D02*
X134180000Y-126880000D01*
X133555000Y-127505000D02*
X134805000Y-127505000D01*
X132444437Y-126640000D02*
X135430000Y-126640000D01*
X132444437Y-126640000D02*
X131380000Y-125575563D01*
X140835563Y-126640000D02*
X137850000Y-126640000D01*
X140835563Y-126640000D02*
X141900000Y-125575563D01*
X131380000Y-125575563D02*
X131380000Y-116120000D01*
X141900000Y-125575563D02*
X141900000Y-116120000D01*
X131380000Y-116120000D02*
X135430000Y-116120000D01*
X141900000Y-116120000D02*
X137850000Y-116120000D01*
%TD*%
M02*
