%TF.GenerationSoftware,KiCad,Pcbnew,8.0.0*%
%TF.CreationDate,2024-03-02T01:19:25-06:00*%
%TF.ProjectId,kicad-power-hat,6b696361-642d-4706-9f77-65722d686174,rev?*%
%TF.SameCoordinates,Original*%
%TF.FileFunction,Drillmap*%
%TF.FilePolarity,Positive*%
%FSLAX45Y45*%
G04 Gerber Fmt 4.5, Leading zero omitted, Abs format (unit mm)*
G04 Created by KiCad (PCBNEW 8.0.0) date 2024-03-02 01:19:25*
%MOMM*%
%LPD*%
G01*
G04 APERTURE LIST*
%ADD10C,0.050000*%
%ADD11C,0.200000*%
%ADD12C,0.110000*%
%ADD13C,0.270000*%
G04 APERTURE END LIST*
D10*
X9525000Y-14711500D02*
X15750000Y-14711500D01*
X9175000Y-9461500D02*
X9175000Y-14361500D01*
X15750000Y-9111500D02*
X9525000Y-9111500D01*
X16100000Y-14361500D02*
X16100000Y-9461500D01*
X16100000Y-14361500D02*
G75*
G02*
X15750000Y-14711500I-350000J0D01*
G01*
X15750000Y-9111500D02*
G75*
G02*
X16100000Y-9461500I0J-350000D01*
G01*
X9175000Y-9461500D02*
G75*
G02*
X9525000Y-9111500I350000J0D01*
G01*
X9525000Y-14711500D02*
G75*
G02*
X9175000Y-14361500I0J350000D01*
G01*
D11*
D12*
X9226000Y-13026000D02*
X9336000Y-13136000D01*
X9336000Y-13026000D02*
X9226000Y-13136000D01*
X9226000Y-13280000D02*
X9336000Y-13390000D01*
X9336000Y-13280000D02*
X9226000Y-13390000D01*
X9226000Y-13534000D02*
X9336000Y-13644000D01*
X9336000Y-13534000D02*
X9226000Y-13644000D01*
D13*
X9660000Y-9461500D02*
G75*
G02*
X9390000Y-9461500I-135000J0D01*
G01*
X9390000Y-9461500D02*
G75*
G02*
X9660000Y-9461500I135000J0D01*
G01*
X9660000Y-14361500D02*
G75*
G02*
X9390000Y-14361500I-135000J0D01*
G01*
X9390000Y-14361500D02*
G75*
G02*
X9660000Y-14361500I135000J0D01*
G01*
X15883000Y-9461500D02*
G75*
G02*
X15613000Y-9461500I-135000J0D01*
G01*
X15613000Y-9461500D02*
G75*
G02*
X15883000Y-9461500I135000J0D01*
G01*
X15883000Y-14361500D02*
G75*
G02*
X15613000Y-14361500I-135000J0D01*
G01*
X15613000Y-14361500D02*
G75*
G02*
X15883000Y-14361500I135000J0D01*
G01*
D11*
X9433277Y-15025484D02*
X9433277Y-14825484D01*
X9433277Y-14825484D02*
X9480896Y-14825484D01*
X9480896Y-14825484D02*
X9509467Y-14835008D01*
X9509467Y-14835008D02*
X9528515Y-14854055D01*
X9528515Y-14854055D02*
X9538039Y-14873103D01*
X9538039Y-14873103D02*
X9547563Y-14911198D01*
X9547563Y-14911198D02*
X9547563Y-14939769D01*
X9547563Y-14939769D02*
X9538039Y-14977865D01*
X9538039Y-14977865D02*
X9528515Y-14996912D01*
X9528515Y-14996912D02*
X9509467Y-15015960D01*
X9509467Y-15015960D02*
X9480896Y-15025484D01*
X9480896Y-15025484D02*
X9433277Y-15025484D01*
X9633277Y-15025484D02*
X9633277Y-14892150D01*
X9633277Y-14930246D02*
X9642801Y-14911198D01*
X9642801Y-14911198D02*
X9652324Y-14901674D01*
X9652324Y-14901674D02*
X9671372Y-14892150D01*
X9671372Y-14892150D02*
X9690420Y-14892150D01*
X9757086Y-15025484D02*
X9757086Y-14892150D01*
X9757086Y-14825484D02*
X9747563Y-14835008D01*
X9747563Y-14835008D02*
X9757086Y-14844531D01*
X9757086Y-14844531D02*
X9766610Y-14835008D01*
X9766610Y-14835008D02*
X9757086Y-14825484D01*
X9757086Y-14825484D02*
X9757086Y-14844531D01*
X9880896Y-15025484D02*
X9861848Y-15015960D01*
X9861848Y-15015960D02*
X9852324Y-14996912D01*
X9852324Y-14996912D02*
X9852324Y-14825484D01*
X9985658Y-15025484D02*
X9966610Y-15015960D01*
X9966610Y-15015960D02*
X9957086Y-14996912D01*
X9957086Y-14996912D02*
X9957086Y-14825484D01*
X10214229Y-15025484D02*
X10214229Y-14825484D01*
X10214229Y-14825484D02*
X10280896Y-14968341D01*
X10280896Y-14968341D02*
X10347563Y-14825484D01*
X10347563Y-14825484D02*
X10347563Y-15025484D01*
X10528515Y-15025484D02*
X10528515Y-14920722D01*
X10528515Y-14920722D02*
X10518991Y-14901674D01*
X10518991Y-14901674D02*
X10499944Y-14892150D01*
X10499944Y-14892150D02*
X10461848Y-14892150D01*
X10461848Y-14892150D02*
X10442801Y-14901674D01*
X10528515Y-15015960D02*
X10509467Y-15025484D01*
X10509467Y-15025484D02*
X10461848Y-15025484D01*
X10461848Y-15025484D02*
X10442801Y-15015960D01*
X10442801Y-15015960D02*
X10433277Y-14996912D01*
X10433277Y-14996912D02*
X10433277Y-14977865D01*
X10433277Y-14977865D02*
X10442801Y-14958817D01*
X10442801Y-14958817D02*
X10461848Y-14949293D01*
X10461848Y-14949293D02*
X10509467Y-14949293D01*
X10509467Y-14949293D02*
X10528515Y-14939769D01*
X10623753Y-14892150D02*
X10623753Y-15092150D01*
X10623753Y-14901674D02*
X10642801Y-14892150D01*
X10642801Y-14892150D02*
X10680896Y-14892150D01*
X10680896Y-14892150D02*
X10699944Y-14901674D01*
X10699944Y-14901674D02*
X10709467Y-14911198D01*
X10709467Y-14911198D02*
X10718991Y-14930246D01*
X10718991Y-14930246D02*
X10718991Y-14987388D01*
X10718991Y-14987388D02*
X10709467Y-15006436D01*
X10709467Y-15006436D02*
X10699944Y-15015960D01*
X10699944Y-15015960D02*
X10680896Y-15025484D01*
X10680896Y-15025484D02*
X10642801Y-15025484D01*
X10642801Y-15025484D02*
X10623753Y-15015960D01*
X10804705Y-15006436D02*
X10814229Y-15015960D01*
X10814229Y-15015960D02*
X10804705Y-15025484D01*
X10804705Y-15025484D02*
X10795182Y-15015960D01*
X10795182Y-15015960D02*
X10804705Y-15006436D01*
X10804705Y-15006436D02*
X10804705Y-15025484D01*
X10804705Y-14901674D02*
X10814229Y-14911198D01*
X10814229Y-14911198D02*
X10804705Y-14920722D01*
X10804705Y-14920722D02*
X10795182Y-14911198D01*
X10795182Y-14911198D02*
X10804705Y-14901674D01*
X10804705Y-14901674D02*
X10804705Y-14920722D01*
D12*
X9062500Y-15299000D02*
X9172500Y-15409000D01*
X9172500Y-15299000D02*
X9062500Y-15409000D01*
D11*
X9538039Y-15445484D02*
X9423753Y-15445484D01*
X9480896Y-15445484D02*
X9480896Y-15245484D01*
X9480896Y-15245484D02*
X9461848Y-15274055D01*
X9461848Y-15274055D02*
X9442801Y-15293103D01*
X9442801Y-15293103D02*
X9423753Y-15302627D01*
X9623753Y-15426436D02*
X9633277Y-15435960D01*
X9633277Y-15435960D02*
X9623753Y-15445484D01*
X9623753Y-15445484D02*
X9614229Y-15435960D01*
X9614229Y-15435960D02*
X9623753Y-15426436D01*
X9623753Y-15426436D02*
X9623753Y-15445484D01*
X9823753Y-15445484D02*
X9709467Y-15445484D01*
X9766610Y-15445484D02*
X9766610Y-15245484D01*
X9766610Y-15245484D02*
X9747563Y-15274055D01*
X9747563Y-15274055D02*
X9728515Y-15293103D01*
X9728515Y-15293103D02*
X9709467Y-15302627D01*
X9947563Y-15245484D02*
X9966610Y-15245484D01*
X9966610Y-15245484D02*
X9985658Y-15255008D01*
X9985658Y-15255008D02*
X9995182Y-15264531D01*
X9995182Y-15264531D02*
X10004705Y-15283579D01*
X10004705Y-15283579D02*
X10014229Y-15321674D01*
X10014229Y-15321674D02*
X10014229Y-15369293D01*
X10014229Y-15369293D02*
X10004705Y-15407388D01*
X10004705Y-15407388D02*
X9995182Y-15426436D01*
X9995182Y-15426436D02*
X9985658Y-15435960D01*
X9985658Y-15435960D02*
X9966610Y-15445484D01*
X9966610Y-15445484D02*
X9947563Y-15445484D01*
X9947563Y-15445484D02*
X9928515Y-15435960D01*
X9928515Y-15435960D02*
X9918991Y-15426436D01*
X9918991Y-15426436D02*
X9909467Y-15407388D01*
X9909467Y-15407388D02*
X9899944Y-15369293D01*
X9899944Y-15369293D02*
X9899944Y-15321674D01*
X9899944Y-15321674D02*
X9909467Y-15283579D01*
X9909467Y-15283579D02*
X9918991Y-15264531D01*
X9918991Y-15264531D02*
X9928515Y-15255008D01*
X9928515Y-15255008D02*
X9947563Y-15245484D01*
X10138039Y-15245484D02*
X10157086Y-15245484D01*
X10157086Y-15245484D02*
X10176134Y-15255008D01*
X10176134Y-15255008D02*
X10185658Y-15264531D01*
X10185658Y-15264531D02*
X10195182Y-15283579D01*
X10195182Y-15283579D02*
X10204705Y-15321674D01*
X10204705Y-15321674D02*
X10204705Y-15369293D01*
X10204705Y-15369293D02*
X10195182Y-15407388D01*
X10195182Y-15407388D02*
X10185658Y-15426436D01*
X10185658Y-15426436D02*
X10176134Y-15435960D01*
X10176134Y-15435960D02*
X10157086Y-15445484D01*
X10157086Y-15445484D02*
X10138039Y-15445484D01*
X10138039Y-15445484D02*
X10118991Y-15435960D01*
X10118991Y-15435960D02*
X10109467Y-15426436D01*
X10109467Y-15426436D02*
X10099944Y-15407388D01*
X10099944Y-15407388D02*
X10090420Y-15369293D01*
X10090420Y-15369293D02*
X10090420Y-15321674D01*
X10090420Y-15321674D02*
X10099944Y-15283579D01*
X10099944Y-15283579D02*
X10109467Y-15264531D01*
X10109467Y-15264531D02*
X10118991Y-15255008D01*
X10118991Y-15255008D02*
X10138039Y-15245484D01*
X10290420Y-15445484D02*
X10290420Y-15312150D01*
X10290420Y-15331198D02*
X10299944Y-15321674D01*
X10299944Y-15321674D02*
X10318991Y-15312150D01*
X10318991Y-15312150D02*
X10347563Y-15312150D01*
X10347563Y-15312150D02*
X10366610Y-15321674D01*
X10366610Y-15321674D02*
X10376134Y-15340722D01*
X10376134Y-15340722D02*
X10376134Y-15445484D01*
X10376134Y-15340722D02*
X10385658Y-15321674D01*
X10385658Y-15321674D02*
X10404705Y-15312150D01*
X10404705Y-15312150D02*
X10433277Y-15312150D01*
X10433277Y-15312150D02*
X10452325Y-15321674D01*
X10452325Y-15321674D02*
X10461848Y-15340722D01*
X10461848Y-15340722D02*
X10461848Y-15445484D01*
X10557086Y-15445484D02*
X10557086Y-15312150D01*
X10557086Y-15331198D02*
X10566610Y-15321674D01*
X10566610Y-15321674D02*
X10585658Y-15312150D01*
X10585658Y-15312150D02*
X10614229Y-15312150D01*
X10614229Y-15312150D02*
X10633277Y-15321674D01*
X10633277Y-15321674D02*
X10642801Y-15340722D01*
X10642801Y-15340722D02*
X10642801Y-15445484D01*
X10642801Y-15340722D02*
X10652325Y-15321674D01*
X10652325Y-15321674D02*
X10671372Y-15312150D01*
X10671372Y-15312150D02*
X10699944Y-15312150D01*
X10699944Y-15312150D02*
X10718991Y-15321674D01*
X10718991Y-15321674D02*
X10728515Y-15340722D01*
X10728515Y-15340722D02*
X10728515Y-15445484D01*
X11118991Y-15235960D02*
X10947563Y-15493103D01*
X11376134Y-15245484D02*
X11395182Y-15245484D01*
X11395182Y-15245484D02*
X11414229Y-15255008D01*
X11414229Y-15255008D02*
X11423753Y-15264531D01*
X11423753Y-15264531D02*
X11433277Y-15283579D01*
X11433277Y-15283579D02*
X11442801Y-15321674D01*
X11442801Y-15321674D02*
X11442801Y-15369293D01*
X11442801Y-15369293D02*
X11433277Y-15407388D01*
X11433277Y-15407388D02*
X11423753Y-15426436D01*
X11423753Y-15426436D02*
X11414229Y-15435960D01*
X11414229Y-15435960D02*
X11395182Y-15445484D01*
X11395182Y-15445484D02*
X11376134Y-15445484D01*
X11376134Y-15445484D02*
X11357086Y-15435960D01*
X11357086Y-15435960D02*
X11347563Y-15426436D01*
X11347563Y-15426436D02*
X11338039Y-15407388D01*
X11338039Y-15407388D02*
X11328515Y-15369293D01*
X11328515Y-15369293D02*
X11328515Y-15321674D01*
X11328515Y-15321674D02*
X11338039Y-15283579D01*
X11338039Y-15283579D02*
X11347563Y-15264531D01*
X11347563Y-15264531D02*
X11357086Y-15255008D01*
X11357086Y-15255008D02*
X11376134Y-15245484D01*
X11528515Y-15426436D02*
X11538039Y-15435960D01*
X11538039Y-15435960D02*
X11528515Y-15445484D01*
X11528515Y-15445484D02*
X11518991Y-15435960D01*
X11518991Y-15435960D02*
X11528515Y-15426436D01*
X11528515Y-15426436D02*
X11528515Y-15445484D01*
X11661848Y-15245484D02*
X11680896Y-15245484D01*
X11680896Y-15245484D02*
X11699944Y-15255008D01*
X11699944Y-15255008D02*
X11709467Y-15264531D01*
X11709467Y-15264531D02*
X11718991Y-15283579D01*
X11718991Y-15283579D02*
X11728515Y-15321674D01*
X11728515Y-15321674D02*
X11728515Y-15369293D01*
X11728515Y-15369293D02*
X11718991Y-15407388D01*
X11718991Y-15407388D02*
X11709467Y-15426436D01*
X11709467Y-15426436D02*
X11699944Y-15435960D01*
X11699944Y-15435960D02*
X11680896Y-15445484D01*
X11680896Y-15445484D02*
X11661848Y-15445484D01*
X11661848Y-15445484D02*
X11642801Y-15435960D01*
X11642801Y-15435960D02*
X11633277Y-15426436D01*
X11633277Y-15426436D02*
X11623753Y-15407388D01*
X11623753Y-15407388D02*
X11614229Y-15369293D01*
X11614229Y-15369293D02*
X11614229Y-15321674D01*
X11614229Y-15321674D02*
X11623753Y-15283579D01*
X11623753Y-15283579D02*
X11633277Y-15264531D01*
X11633277Y-15264531D02*
X11642801Y-15255008D01*
X11642801Y-15255008D02*
X11661848Y-15245484D01*
X11899944Y-15312150D02*
X11899944Y-15445484D01*
X11852325Y-15235960D02*
X11804706Y-15378817D01*
X11804706Y-15378817D02*
X11928515Y-15378817D01*
X11985658Y-15245484D02*
X12109467Y-15245484D01*
X12109467Y-15245484D02*
X12042801Y-15321674D01*
X12042801Y-15321674D02*
X12071372Y-15321674D01*
X12071372Y-15321674D02*
X12090420Y-15331198D01*
X12090420Y-15331198D02*
X12099944Y-15340722D01*
X12099944Y-15340722D02*
X12109467Y-15359769D01*
X12109467Y-15359769D02*
X12109467Y-15407388D01*
X12109467Y-15407388D02*
X12099944Y-15426436D01*
X12099944Y-15426436D02*
X12090420Y-15435960D01*
X12090420Y-15435960D02*
X12071372Y-15445484D01*
X12071372Y-15445484D02*
X12014229Y-15445484D01*
X12014229Y-15445484D02*
X11995182Y-15435960D01*
X11995182Y-15435960D02*
X11985658Y-15426436D01*
X12176134Y-15245484D02*
X12299944Y-15245484D01*
X12299944Y-15245484D02*
X12233277Y-15321674D01*
X12233277Y-15321674D02*
X12261848Y-15321674D01*
X12261848Y-15321674D02*
X12280896Y-15331198D01*
X12280896Y-15331198D02*
X12290420Y-15340722D01*
X12290420Y-15340722D02*
X12299944Y-15359769D01*
X12299944Y-15359769D02*
X12299944Y-15407388D01*
X12299944Y-15407388D02*
X12290420Y-15426436D01*
X12290420Y-15426436D02*
X12280896Y-15435960D01*
X12280896Y-15435960D02*
X12261848Y-15445484D01*
X12261848Y-15445484D02*
X12204706Y-15445484D01*
X12204706Y-15445484D02*
X12185658Y-15435960D01*
X12185658Y-15435960D02*
X12176134Y-15426436D01*
X12376134Y-15245484D02*
X12376134Y-15283579D01*
X12452325Y-15245484D02*
X12452325Y-15283579D01*
X12747563Y-15521674D02*
X12738039Y-15512150D01*
X12738039Y-15512150D02*
X12718991Y-15483579D01*
X12718991Y-15483579D02*
X12709468Y-15464531D01*
X12709468Y-15464531D02*
X12699944Y-15435960D01*
X12699944Y-15435960D02*
X12690420Y-15388341D01*
X12690420Y-15388341D02*
X12690420Y-15350246D01*
X12690420Y-15350246D02*
X12699944Y-15302627D01*
X12699944Y-15302627D02*
X12709468Y-15274055D01*
X12709468Y-15274055D02*
X12718991Y-15255008D01*
X12718991Y-15255008D02*
X12738039Y-15226436D01*
X12738039Y-15226436D02*
X12747563Y-15216912D01*
X12804706Y-15245484D02*
X12928515Y-15245484D01*
X12928515Y-15245484D02*
X12861848Y-15321674D01*
X12861848Y-15321674D02*
X12890420Y-15321674D01*
X12890420Y-15321674D02*
X12909468Y-15331198D01*
X12909468Y-15331198D02*
X12918991Y-15340722D01*
X12918991Y-15340722D02*
X12928515Y-15359769D01*
X12928515Y-15359769D02*
X12928515Y-15407388D01*
X12928515Y-15407388D02*
X12918991Y-15426436D01*
X12918991Y-15426436D02*
X12909468Y-15435960D01*
X12909468Y-15435960D02*
X12890420Y-15445484D01*
X12890420Y-15445484D02*
X12833277Y-15445484D01*
X12833277Y-15445484D02*
X12814229Y-15435960D01*
X12814229Y-15435960D02*
X12804706Y-15426436D01*
X13166610Y-15445484D02*
X13166610Y-15245484D01*
X13252325Y-15445484D02*
X13252325Y-15340722D01*
X13252325Y-15340722D02*
X13242801Y-15321674D01*
X13242801Y-15321674D02*
X13223753Y-15312150D01*
X13223753Y-15312150D02*
X13195182Y-15312150D01*
X13195182Y-15312150D02*
X13176134Y-15321674D01*
X13176134Y-15321674D02*
X13166610Y-15331198D01*
X13376134Y-15445484D02*
X13357087Y-15435960D01*
X13357087Y-15435960D02*
X13347563Y-15426436D01*
X13347563Y-15426436D02*
X13338039Y-15407388D01*
X13338039Y-15407388D02*
X13338039Y-15350246D01*
X13338039Y-15350246D02*
X13347563Y-15331198D01*
X13347563Y-15331198D02*
X13357087Y-15321674D01*
X13357087Y-15321674D02*
X13376134Y-15312150D01*
X13376134Y-15312150D02*
X13404706Y-15312150D01*
X13404706Y-15312150D02*
X13423753Y-15321674D01*
X13423753Y-15321674D02*
X13433277Y-15331198D01*
X13433277Y-15331198D02*
X13442801Y-15350246D01*
X13442801Y-15350246D02*
X13442801Y-15407388D01*
X13442801Y-15407388D02*
X13433277Y-15426436D01*
X13433277Y-15426436D02*
X13423753Y-15435960D01*
X13423753Y-15435960D02*
X13404706Y-15445484D01*
X13404706Y-15445484D02*
X13376134Y-15445484D01*
X13557087Y-15445484D02*
X13538039Y-15435960D01*
X13538039Y-15435960D02*
X13528515Y-15416912D01*
X13528515Y-15416912D02*
X13528515Y-15245484D01*
X13709468Y-15435960D02*
X13690420Y-15445484D01*
X13690420Y-15445484D02*
X13652325Y-15445484D01*
X13652325Y-15445484D02*
X13633277Y-15435960D01*
X13633277Y-15435960D02*
X13623753Y-15416912D01*
X13623753Y-15416912D02*
X13623753Y-15340722D01*
X13623753Y-15340722D02*
X13633277Y-15321674D01*
X13633277Y-15321674D02*
X13652325Y-15312150D01*
X13652325Y-15312150D02*
X13690420Y-15312150D01*
X13690420Y-15312150D02*
X13709468Y-15321674D01*
X13709468Y-15321674D02*
X13718991Y-15340722D01*
X13718991Y-15340722D02*
X13718991Y-15359769D01*
X13718991Y-15359769D02*
X13623753Y-15378817D01*
X13795182Y-15435960D02*
X13814230Y-15445484D01*
X13814230Y-15445484D02*
X13852325Y-15445484D01*
X13852325Y-15445484D02*
X13871372Y-15435960D01*
X13871372Y-15435960D02*
X13880896Y-15416912D01*
X13880896Y-15416912D02*
X13880896Y-15407388D01*
X13880896Y-15407388D02*
X13871372Y-15388341D01*
X13871372Y-15388341D02*
X13852325Y-15378817D01*
X13852325Y-15378817D02*
X13823753Y-15378817D01*
X13823753Y-15378817D02*
X13804706Y-15369293D01*
X13804706Y-15369293D02*
X13795182Y-15350246D01*
X13795182Y-15350246D02*
X13795182Y-15340722D01*
X13795182Y-15340722D02*
X13804706Y-15321674D01*
X13804706Y-15321674D02*
X13823753Y-15312150D01*
X13823753Y-15312150D02*
X13852325Y-15312150D01*
X13852325Y-15312150D02*
X13871372Y-15321674D01*
X13947563Y-15521674D02*
X13957087Y-15512150D01*
X13957087Y-15512150D02*
X13976134Y-15483579D01*
X13976134Y-15483579D02*
X13985658Y-15464531D01*
X13985658Y-15464531D02*
X13995182Y-15435960D01*
X13995182Y-15435960D02*
X14004706Y-15388341D01*
X14004706Y-15388341D02*
X14004706Y-15350246D01*
X14004706Y-15350246D02*
X13995182Y-15302627D01*
X13995182Y-15302627D02*
X13985658Y-15274055D01*
X13985658Y-15274055D02*
X13976134Y-15255008D01*
X13976134Y-15255008D02*
X13957087Y-15226436D01*
X13957087Y-15226436D02*
X13947563Y-15216912D01*
X14309468Y-15521674D02*
X14299944Y-15512150D01*
X14299944Y-15512150D02*
X14280896Y-15483579D01*
X14280896Y-15483579D02*
X14271372Y-15464531D01*
X14271372Y-15464531D02*
X14261849Y-15435960D01*
X14261849Y-15435960D02*
X14252325Y-15388341D01*
X14252325Y-15388341D02*
X14252325Y-15350246D01*
X14252325Y-15350246D02*
X14261849Y-15302627D01*
X14261849Y-15302627D02*
X14271372Y-15274055D01*
X14271372Y-15274055D02*
X14280896Y-15255008D01*
X14280896Y-15255008D02*
X14299944Y-15226436D01*
X14299944Y-15226436D02*
X14309468Y-15216912D01*
X14385658Y-15312150D02*
X14385658Y-15445484D01*
X14385658Y-15331198D02*
X14395182Y-15321674D01*
X14395182Y-15321674D02*
X14414230Y-15312150D01*
X14414230Y-15312150D02*
X14442801Y-15312150D01*
X14442801Y-15312150D02*
X14461849Y-15321674D01*
X14461849Y-15321674D02*
X14471372Y-15340722D01*
X14471372Y-15340722D02*
X14471372Y-15445484D01*
X14595182Y-15445484D02*
X14576134Y-15435960D01*
X14576134Y-15435960D02*
X14566611Y-15426436D01*
X14566611Y-15426436D02*
X14557087Y-15407388D01*
X14557087Y-15407388D02*
X14557087Y-15350246D01*
X14557087Y-15350246D02*
X14566611Y-15331198D01*
X14566611Y-15331198D02*
X14576134Y-15321674D01*
X14576134Y-15321674D02*
X14595182Y-15312150D01*
X14595182Y-15312150D02*
X14623753Y-15312150D01*
X14623753Y-15312150D02*
X14642801Y-15321674D01*
X14642801Y-15321674D02*
X14652325Y-15331198D01*
X14652325Y-15331198D02*
X14661849Y-15350246D01*
X14661849Y-15350246D02*
X14661849Y-15407388D01*
X14661849Y-15407388D02*
X14652325Y-15426436D01*
X14652325Y-15426436D02*
X14642801Y-15435960D01*
X14642801Y-15435960D02*
X14623753Y-15445484D01*
X14623753Y-15445484D02*
X14595182Y-15445484D01*
X14718992Y-15312150D02*
X14795182Y-15312150D01*
X14747563Y-15245484D02*
X14747563Y-15416912D01*
X14747563Y-15416912D02*
X14757087Y-15435960D01*
X14757087Y-15435960D02*
X14776134Y-15445484D01*
X14776134Y-15445484D02*
X14795182Y-15445484D01*
X15014230Y-15312150D02*
X15014230Y-15512150D01*
X15014230Y-15321674D02*
X15033277Y-15312150D01*
X15033277Y-15312150D02*
X15071373Y-15312150D01*
X15071373Y-15312150D02*
X15090420Y-15321674D01*
X15090420Y-15321674D02*
X15099944Y-15331198D01*
X15099944Y-15331198D02*
X15109468Y-15350246D01*
X15109468Y-15350246D02*
X15109468Y-15407388D01*
X15109468Y-15407388D02*
X15099944Y-15426436D01*
X15099944Y-15426436D02*
X15090420Y-15435960D01*
X15090420Y-15435960D02*
X15071373Y-15445484D01*
X15071373Y-15445484D02*
X15033277Y-15445484D01*
X15033277Y-15445484D02*
X15014230Y-15435960D01*
X15223753Y-15445484D02*
X15204706Y-15435960D01*
X15204706Y-15435960D02*
X15195182Y-15416912D01*
X15195182Y-15416912D02*
X15195182Y-15245484D01*
X15385658Y-15445484D02*
X15385658Y-15340722D01*
X15385658Y-15340722D02*
X15376134Y-15321674D01*
X15376134Y-15321674D02*
X15357087Y-15312150D01*
X15357087Y-15312150D02*
X15318992Y-15312150D01*
X15318992Y-15312150D02*
X15299944Y-15321674D01*
X15385658Y-15435960D02*
X15366611Y-15445484D01*
X15366611Y-15445484D02*
X15318992Y-15445484D01*
X15318992Y-15445484D02*
X15299944Y-15435960D01*
X15299944Y-15435960D02*
X15290420Y-15416912D01*
X15290420Y-15416912D02*
X15290420Y-15397865D01*
X15290420Y-15397865D02*
X15299944Y-15378817D01*
X15299944Y-15378817D02*
X15318992Y-15369293D01*
X15318992Y-15369293D02*
X15366611Y-15369293D01*
X15366611Y-15369293D02*
X15385658Y-15359769D01*
X15452325Y-15312150D02*
X15528515Y-15312150D01*
X15480896Y-15245484D02*
X15480896Y-15416912D01*
X15480896Y-15416912D02*
X15490420Y-15435960D01*
X15490420Y-15435960D02*
X15509468Y-15445484D01*
X15509468Y-15445484D02*
X15528515Y-15445484D01*
X15671373Y-15435960D02*
X15652325Y-15445484D01*
X15652325Y-15445484D02*
X15614230Y-15445484D01*
X15614230Y-15445484D02*
X15595182Y-15435960D01*
X15595182Y-15435960D02*
X15585658Y-15416912D01*
X15585658Y-15416912D02*
X15585658Y-15340722D01*
X15585658Y-15340722D02*
X15595182Y-15321674D01*
X15595182Y-15321674D02*
X15614230Y-15312150D01*
X15614230Y-15312150D02*
X15652325Y-15312150D01*
X15652325Y-15312150D02*
X15671373Y-15321674D01*
X15671373Y-15321674D02*
X15680896Y-15340722D01*
X15680896Y-15340722D02*
X15680896Y-15359769D01*
X15680896Y-15359769D02*
X15585658Y-15378817D01*
X15852325Y-15445484D02*
X15852325Y-15245484D01*
X15852325Y-15435960D02*
X15833277Y-15445484D01*
X15833277Y-15445484D02*
X15795182Y-15445484D01*
X15795182Y-15445484D02*
X15776134Y-15435960D01*
X15776134Y-15435960D02*
X15766611Y-15426436D01*
X15766611Y-15426436D02*
X15757087Y-15407388D01*
X15757087Y-15407388D02*
X15757087Y-15350246D01*
X15757087Y-15350246D02*
X15766611Y-15331198D01*
X15766611Y-15331198D02*
X15776134Y-15321674D01*
X15776134Y-15321674D02*
X15795182Y-15312150D01*
X15795182Y-15312150D02*
X15833277Y-15312150D01*
X15833277Y-15312150D02*
X15852325Y-15321674D01*
X15928515Y-15521674D02*
X15938039Y-15512150D01*
X15938039Y-15512150D02*
X15957087Y-15483579D01*
X15957087Y-15483579D02*
X15966611Y-15464531D01*
X15966611Y-15464531D02*
X15976134Y-15435960D01*
X15976134Y-15435960D02*
X15985658Y-15388341D01*
X15985658Y-15388341D02*
X15985658Y-15350246D01*
X15985658Y-15350246D02*
X15976134Y-15302627D01*
X15976134Y-15302627D02*
X15966611Y-15274055D01*
X15966611Y-15274055D02*
X15957087Y-15255008D01*
X15957087Y-15255008D02*
X15938039Y-15226436D01*
X15938039Y-15226436D02*
X15928515Y-15216912D01*
X9172500Y-15618000D02*
G75*
G02*
X8972500Y-15618000I-100000J0D01*
G01*
X8972500Y-15618000D02*
G75*
G02*
X9172500Y-15618000I100000J0D01*
G01*
X9423753Y-15528531D02*
X9433277Y-15519008D01*
X9433277Y-15519008D02*
X9452324Y-15509484D01*
X9452324Y-15509484D02*
X9499944Y-15509484D01*
X9499944Y-15509484D02*
X9518991Y-15519008D01*
X9518991Y-15519008D02*
X9528515Y-15528531D01*
X9528515Y-15528531D02*
X9538039Y-15547579D01*
X9538039Y-15547579D02*
X9538039Y-15566627D01*
X9538039Y-15566627D02*
X9528515Y-15595198D01*
X9528515Y-15595198D02*
X9414229Y-15709484D01*
X9414229Y-15709484D02*
X9538039Y-15709484D01*
X9623753Y-15690436D02*
X9633277Y-15699960D01*
X9633277Y-15699960D02*
X9623753Y-15709484D01*
X9623753Y-15709484D02*
X9614229Y-15699960D01*
X9614229Y-15699960D02*
X9623753Y-15690436D01*
X9623753Y-15690436D02*
X9623753Y-15709484D01*
X9699944Y-15509484D02*
X9833277Y-15509484D01*
X9833277Y-15509484D02*
X9747563Y-15709484D01*
X9947563Y-15509484D02*
X9966610Y-15509484D01*
X9966610Y-15509484D02*
X9985658Y-15519008D01*
X9985658Y-15519008D02*
X9995182Y-15528531D01*
X9995182Y-15528531D02*
X10004705Y-15547579D01*
X10004705Y-15547579D02*
X10014229Y-15585674D01*
X10014229Y-15585674D02*
X10014229Y-15633293D01*
X10014229Y-15633293D02*
X10004705Y-15671388D01*
X10004705Y-15671388D02*
X9995182Y-15690436D01*
X9995182Y-15690436D02*
X9985658Y-15699960D01*
X9985658Y-15699960D02*
X9966610Y-15709484D01*
X9966610Y-15709484D02*
X9947563Y-15709484D01*
X9947563Y-15709484D02*
X9928515Y-15699960D01*
X9928515Y-15699960D02*
X9918991Y-15690436D01*
X9918991Y-15690436D02*
X9909467Y-15671388D01*
X9909467Y-15671388D02*
X9899944Y-15633293D01*
X9899944Y-15633293D02*
X9899944Y-15585674D01*
X9899944Y-15585674D02*
X9909467Y-15547579D01*
X9909467Y-15547579D02*
X9918991Y-15528531D01*
X9918991Y-15528531D02*
X9928515Y-15519008D01*
X9928515Y-15519008D02*
X9947563Y-15509484D01*
X10138039Y-15509484D02*
X10157086Y-15509484D01*
X10157086Y-15509484D02*
X10176134Y-15519008D01*
X10176134Y-15519008D02*
X10185658Y-15528531D01*
X10185658Y-15528531D02*
X10195182Y-15547579D01*
X10195182Y-15547579D02*
X10204705Y-15585674D01*
X10204705Y-15585674D02*
X10204705Y-15633293D01*
X10204705Y-15633293D02*
X10195182Y-15671388D01*
X10195182Y-15671388D02*
X10185658Y-15690436D01*
X10185658Y-15690436D02*
X10176134Y-15699960D01*
X10176134Y-15699960D02*
X10157086Y-15709484D01*
X10157086Y-15709484D02*
X10138039Y-15709484D01*
X10138039Y-15709484D02*
X10118991Y-15699960D01*
X10118991Y-15699960D02*
X10109467Y-15690436D01*
X10109467Y-15690436D02*
X10099944Y-15671388D01*
X10099944Y-15671388D02*
X10090420Y-15633293D01*
X10090420Y-15633293D02*
X10090420Y-15585674D01*
X10090420Y-15585674D02*
X10099944Y-15547579D01*
X10099944Y-15547579D02*
X10109467Y-15528531D01*
X10109467Y-15528531D02*
X10118991Y-15519008D01*
X10118991Y-15519008D02*
X10138039Y-15509484D01*
X10290420Y-15709484D02*
X10290420Y-15576150D01*
X10290420Y-15595198D02*
X10299944Y-15585674D01*
X10299944Y-15585674D02*
X10318991Y-15576150D01*
X10318991Y-15576150D02*
X10347563Y-15576150D01*
X10347563Y-15576150D02*
X10366610Y-15585674D01*
X10366610Y-15585674D02*
X10376134Y-15604722D01*
X10376134Y-15604722D02*
X10376134Y-15709484D01*
X10376134Y-15604722D02*
X10385658Y-15585674D01*
X10385658Y-15585674D02*
X10404705Y-15576150D01*
X10404705Y-15576150D02*
X10433277Y-15576150D01*
X10433277Y-15576150D02*
X10452325Y-15585674D01*
X10452325Y-15585674D02*
X10461848Y-15604722D01*
X10461848Y-15604722D02*
X10461848Y-15709484D01*
X10557086Y-15709484D02*
X10557086Y-15576150D01*
X10557086Y-15595198D02*
X10566610Y-15585674D01*
X10566610Y-15585674D02*
X10585658Y-15576150D01*
X10585658Y-15576150D02*
X10614229Y-15576150D01*
X10614229Y-15576150D02*
X10633277Y-15585674D01*
X10633277Y-15585674D02*
X10642801Y-15604722D01*
X10642801Y-15604722D02*
X10642801Y-15709484D01*
X10642801Y-15604722D02*
X10652325Y-15585674D01*
X10652325Y-15585674D02*
X10671372Y-15576150D01*
X10671372Y-15576150D02*
X10699944Y-15576150D01*
X10699944Y-15576150D02*
X10718991Y-15585674D01*
X10718991Y-15585674D02*
X10728515Y-15604722D01*
X10728515Y-15604722D02*
X10728515Y-15709484D01*
X11118991Y-15499960D02*
X10947563Y-15757103D01*
X11376134Y-15509484D02*
X11395182Y-15509484D01*
X11395182Y-15509484D02*
X11414229Y-15519008D01*
X11414229Y-15519008D02*
X11423753Y-15528531D01*
X11423753Y-15528531D02*
X11433277Y-15547579D01*
X11433277Y-15547579D02*
X11442801Y-15585674D01*
X11442801Y-15585674D02*
X11442801Y-15633293D01*
X11442801Y-15633293D02*
X11433277Y-15671388D01*
X11433277Y-15671388D02*
X11423753Y-15690436D01*
X11423753Y-15690436D02*
X11414229Y-15699960D01*
X11414229Y-15699960D02*
X11395182Y-15709484D01*
X11395182Y-15709484D02*
X11376134Y-15709484D01*
X11376134Y-15709484D02*
X11357086Y-15699960D01*
X11357086Y-15699960D02*
X11347563Y-15690436D01*
X11347563Y-15690436D02*
X11338039Y-15671388D01*
X11338039Y-15671388D02*
X11328515Y-15633293D01*
X11328515Y-15633293D02*
X11328515Y-15585674D01*
X11328515Y-15585674D02*
X11338039Y-15547579D01*
X11338039Y-15547579D02*
X11347563Y-15528531D01*
X11347563Y-15528531D02*
X11357086Y-15519008D01*
X11357086Y-15519008D02*
X11376134Y-15509484D01*
X11528515Y-15690436D02*
X11538039Y-15699960D01*
X11538039Y-15699960D02*
X11528515Y-15709484D01*
X11528515Y-15709484D02*
X11518991Y-15699960D01*
X11518991Y-15699960D02*
X11528515Y-15690436D01*
X11528515Y-15690436D02*
X11528515Y-15709484D01*
X11728515Y-15709484D02*
X11614229Y-15709484D01*
X11671372Y-15709484D02*
X11671372Y-15509484D01*
X11671372Y-15509484D02*
X11652325Y-15538055D01*
X11652325Y-15538055D02*
X11633277Y-15557103D01*
X11633277Y-15557103D02*
X11614229Y-15566627D01*
X11852325Y-15509484D02*
X11871372Y-15509484D01*
X11871372Y-15509484D02*
X11890420Y-15519008D01*
X11890420Y-15519008D02*
X11899944Y-15528531D01*
X11899944Y-15528531D02*
X11909467Y-15547579D01*
X11909467Y-15547579D02*
X11918991Y-15585674D01*
X11918991Y-15585674D02*
X11918991Y-15633293D01*
X11918991Y-15633293D02*
X11909467Y-15671388D01*
X11909467Y-15671388D02*
X11899944Y-15690436D01*
X11899944Y-15690436D02*
X11890420Y-15699960D01*
X11890420Y-15699960D02*
X11871372Y-15709484D01*
X11871372Y-15709484D02*
X11852325Y-15709484D01*
X11852325Y-15709484D02*
X11833277Y-15699960D01*
X11833277Y-15699960D02*
X11823753Y-15690436D01*
X11823753Y-15690436D02*
X11814229Y-15671388D01*
X11814229Y-15671388D02*
X11804706Y-15633293D01*
X11804706Y-15633293D02*
X11804706Y-15585674D01*
X11804706Y-15585674D02*
X11814229Y-15547579D01*
X11814229Y-15547579D02*
X11823753Y-15528531D01*
X11823753Y-15528531D02*
X11833277Y-15519008D01*
X11833277Y-15519008D02*
X11852325Y-15509484D01*
X12090420Y-15509484D02*
X12052325Y-15509484D01*
X12052325Y-15509484D02*
X12033277Y-15519008D01*
X12033277Y-15519008D02*
X12023753Y-15528531D01*
X12023753Y-15528531D02*
X12004706Y-15557103D01*
X12004706Y-15557103D02*
X11995182Y-15595198D01*
X11995182Y-15595198D02*
X11995182Y-15671388D01*
X11995182Y-15671388D02*
X12004706Y-15690436D01*
X12004706Y-15690436D02*
X12014229Y-15699960D01*
X12014229Y-15699960D02*
X12033277Y-15709484D01*
X12033277Y-15709484D02*
X12071372Y-15709484D01*
X12071372Y-15709484D02*
X12090420Y-15699960D01*
X12090420Y-15699960D02*
X12099944Y-15690436D01*
X12099944Y-15690436D02*
X12109467Y-15671388D01*
X12109467Y-15671388D02*
X12109467Y-15623769D01*
X12109467Y-15623769D02*
X12099944Y-15604722D01*
X12099944Y-15604722D02*
X12090420Y-15595198D01*
X12090420Y-15595198D02*
X12071372Y-15585674D01*
X12071372Y-15585674D02*
X12033277Y-15585674D01*
X12033277Y-15585674D02*
X12014229Y-15595198D01*
X12014229Y-15595198D02*
X12004706Y-15604722D01*
X12004706Y-15604722D02*
X11995182Y-15623769D01*
X12176134Y-15509484D02*
X12299944Y-15509484D01*
X12299944Y-15509484D02*
X12233277Y-15585674D01*
X12233277Y-15585674D02*
X12261848Y-15585674D01*
X12261848Y-15585674D02*
X12280896Y-15595198D01*
X12280896Y-15595198D02*
X12290420Y-15604722D01*
X12290420Y-15604722D02*
X12299944Y-15623769D01*
X12299944Y-15623769D02*
X12299944Y-15671388D01*
X12299944Y-15671388D02*
X12290420Y-15690436D01*
X12290420Y-15690436D02*
X12280896Y-15699960D01*
X12280896Y-15699960D02*
X12261848Y-15709484D01*
X12261848Y-15709484D02*
X12204706Y-15709484D01*
X12204706Y-15709484D02*
X12185658Y-15699960D01*
X12185658Y-15699960D02*
X12176134Y-15690436D01*
X12376134Y-15509484D02*
X12376134Y-15547579D01*
X12452325Y-15509484D02*
X12452325Y-15547579D01*
X12747563Y-15785674D02*
X12738039Y-15776150D01*
X12738039Y-15776150D02*
X12718991Y-15747579D01*
X12718991Y-15747579D02*
X12709468Y-15728531D01*
X12709468Y-15728531D02*
X12699944Y-15699960D01*
X12699944Y-15699960D02*
X12690420Y-15652341D01*
X12690420Y-15652341D02*
X12690420Y-15614246D01*
X12690420Y-15614246D02*
X12699944Y-15566627D01*
X12699944Y-15566627D02*
X12709468Y-15538055D01*
X12709468Y-15538055D02*
X12718991Y-15519008D01*
X12718991Y-15519008D02*
X12738039Y-15490436D01*
X12738039Y-15490436D02*
X12747563Y-15480912D01*
X12909468Y-15576150D02*
X12909468Y-15709484D01*
X12861848Y-15499960D02*
X12814229Y-15642817D01*
X12814229Y-15642817D02*
X12938039Y-15642817D01*
X13166610Y-15709484D02*
X13166610Y-15509484D01*
X13252325Y-15709484D02*
X13252325Y-15604722D01*
X13252325Y-15604722D02*
X13242801Y-15585674D01*
X13242801Y-15585674D02*
X13223753Y-15576150D01*
X13223753Y-15576150D02*
X13195182Y-15576150D01*
X13195182Y-15576150D02*
X13176134Y-15585674D01*
X13176134Y-15585674D02*
X13166610Y-15595198D01*
X13376134Y-15709484D02*
X13357087Y-15699960D01*
X13357087Y-15699960D02*
X13347563Y-15690436D01*
X13347563Y-15690436D02*
X13338039Y-15671388D01*
X13338039Y-15671388D02*
X13338039Y-15614246D01*
X13338039Y-15614246D02*
X13347563Y-15595198D01*
X13347563Y-15595198D02*
X13357087Y-15585674D01*
X13357087Y-15585674D02*
X13376134Y-15576150D01*
X13376134Y-15576150D02*
X13404706Y-15576150D01*
X13404706Y-15576150D02*
X13423753Y-15585674D01*
X13423753Y-15585674D02*
X13433277Y-15595198D01*
X13433277Y-15595198D02*
X13442801Y-15614246D01*
X13442801Y-15614246D02*
X13442801Y-15671388D01*
X13442801Y-15671388D02*
X13433277Y-15690436D01*
X13433277Y-15690436D02*
X13423753Y-15699960D01*
X13423753Y-15699960D02*
X13404706Y-15709484D01*
X13404706Y-15709484D02*
X13376134Y-15709484D01*
X13557087Y-15709484D02*
X13538039Y-15699960D01*
X13538039Y-15699960D02*
X13528515Y-15680912D01*
X13528515Y-15680912D02*
X13528515Y-15509484D01*
X13709468Y-15699960D02*
X13690420Y-15709484D01*
X13690420Y-15709484D02*
X13652325Y-15709484D01*
X13652325Y-15709484D02*
X13633277Y-15699960D01*
X13633277Y-15699960D02*
X13623753Y-15680912D01*
X13623753Y-15680912D02*
X13623753Y-15604722D01*
X13623753Y-15604722D02*
X13633277Y-15585674D01*
X13633277Y-15585674D02*
X13652325Y-15576150D01*
X13652325Y-15576150D02*
X13690420Y-15576150D01*
X13690420Y-15576150D02*
X13709468Y-15585674D01*
X13709468Y-15585674D02*
X13718991Y-15604722D01*
X13718991Y-15604722D02*
X13718991Y-15623769D01*
X13718991Y-15623769D02*
X13623753Y-15642817D01*
X13795182Y-15699960D02*
X13814230Y-15709484D01*
X13814230Y-15709484D02*
X13852325Y-15709484D01*
X13852325Y-15709484D02*
X13871372Y-15699960D01*
X13871372Y-15699960D02*
X13880896Y-15680912D01*
X13880896Y-15680912D02*
X13880896Y-15671388D01*
X13880896Y-15671388D02*
X13871372Y-15652341D01*
X13871372Y-15652341D02*
X13852325Y-15642817D01*
X13852325Y-15642817D02*
X13823753Y-15642817D01*
X13823753Y-15642817D02*
X13804706Y-15633293D01*
X13804706Y-15633293D02*
X13795182Y-15614246D01*
X13795182Y-15614246D02*
X13795182Y-15604722D01*
X13795182Y-15604722D02*
X13804706Y-15585674D01*
X13804706Y-15585674D02*
X13823753Y-15576150D01*
X13823753Y-15576150D02*
X13852325Y-15576150D01*
X13852325Y-15576150D02*
X13871372Y-15585674D01*
X13947563Y-15785674D02*
X13957087Y-15776150D01*
X13957087Y-15776150D02*
X13976134Y-15747579D01*
X13976134Y-15747579D02*
X13985658Y-15728531D01*
X13985658Y-15728531D02*
X13995182Y-15699960D01*
X13995182Y-15699960D02*
X14004706Y-15652341D01*
X14004706Y-15652341D02*
X14004706Y-15614246D01*
X14004706Y-15614246D02*
X13995182Y-15566627D01*
X13995182Y-15566627D02*
X13985658Y-15538055D01*
X13985658Y-15538055D02*
X13976134Y-15519008D01*
X13976134Y-15519008D02*
X13957087Y-15490436D01*
X13957087Y-15490436D02*
X13947563Y-15480912D01*
X14309468Y-15785674D02*
X14299944Y-15776150D01*
X14299944Y-15776150D02*
X14280896Y-15747579D01*
X14280896Y-15747579D02*
X14271372Y-15728531D01*
X14271372Y-15728531D02*
X14261849Y-15699960D01*
X14261849Y-15699960D02*
X14252325Y-15652341D01*
X14252325Y-15652341D02*
X14252325Y-15614246D01*
X14252325Y-15614246D02*
X14261849Y-15566627D01*
X14261849Y-15566627D02*
X14271372Y-15538055D01*
X14271372Y-15538055D02*
X14280896Y-15519008D01*
X14280896Y-15519008D02*
X14299944Y-15490436D01*
X14299944Y-15490436D02*
X14309468Y-15480912D01*
X14385658Y-15576150D02*
X14385658Y-15709484D01*
X14385658Y-15595198D02*
X14395182Y-15585674D01*
X14395182Y-15585674D02*
X14414230Y-15576150D01*
X14414230Y-15576150D02*
X14442801Y-15576150D01*
X14442801Y-15576150D02*
X14461849Y-15585674D01*
X14461849Y-15585674D02*
X14471372Y-15604722D01*
X14471372Y-15604722D02*
X14471372Y-15709484D01*
X14595182Y-15709484D02*
X14576134Y-15699960D01*
X14576134Y-15699960D02*
X14566611Y-15690436D01*
X14566611Y-15690436D02*
X14557087Y-15671388D01*
X14557087Y-15671388D02*
X14557087Y-15614246D01*
X14557087Y-15614246D02*
X14566611Y-15595198D01*
X14566611Y-15595198D02*
X14576134Y-15585674D01*
X14576134Y-15585674D02*
X14595182Y-15576150D01*
X14595182Y-15576150D02*
X14623753Y-15576150D01*
X14623753Y-15576150D02*
X14642801Y-15585674D01*
X14642801Y-15585674D02*
X14652325Y-15595198D01*
X14652325Y-15595198D02*
X14661849Y-15614246D01*
X14661849Y-15614246D02*
X14661849Y-15671388D01*
X14661849Y-15671388D02*
X14652325Y-15690436D01*
X14652325Y-15690436D02*
X14642801Y-15699960D01*
X14642801Y-15699960D02*
X14623753Y-15709484D01*
X14623753Y-15709484D02*
X14595182Y-15709484D01*
X14718992Y-15576150D02*
X14795182Y-15576150D01*
X14747563Y-15509484D02*
X14747563Y-15680912D01*
X14747563Y-15680912D02*
X14757087Y-15699960D01*
X14757087Y-15699960D02*
X14776134Y-15709484D01*
X14776134Y-15709484D02*
X14795182Y-15709484D01*
X15014230Y-15576150D02*
X15014230Y-15776150D01*
X15014230Y-15585674D02*
X15033277Y-15576150D01*
X15033277Y-15576150D02*
X15071373Y-15576150D01*
X15071373Y-15576150D02*
X15090420Y-15585674D01*
X15090420Y-15585674D02*
X15099944Y-15595198D01*
X15099944Y-15595198D02*
X15109468Y-15614246D01*
X15109468Y-15614246D02*
X15109468Y-15671388D01*
X15109468Y-15671388D02*
X15099944Y-15690436D01*
X15099944Y-15690436D02*
X15090420Y-15699960D01*
X15090420Y-15699960D02*
X15071373Y-15709484D01*
X15071373Y-15709484D02*
X15033277Y-15709484D01*
X15033277Y-15709484D02*
X15014230Y-15699960D01*
X15223753Y-15709484D02*
X15204706Y-15699960D01*
X15204706Y-15699960D02*
X15195182Y-15680912D01*
X15195182Y-15680912D02*
X15195182Y-15509484D01*
X15385658Y-15709484D02*
X15385658Y-15604722D01*
X15385658Y-15604722D02*
X15376134Y-15585674D01*
X15376134Y-15585674D02*
X15357087Y-15576150D01*
X15357087Y-15576150D02*
X15318992Y-15576150D01*
X15318992Y-15576150D02*
X15299944Y-15585674D01*
X15385658Y-15699960D02*
X15366611Y-15709484D01*
X15366611Y-15709484D02*
X15318992Y-15709484D01*
X15318992Y-15709484D02*
X15299944Y-15699960D01*
X15299944Y-15699960D02*
X15290420Y-15680912D01*
X15290420Y-15680912D02*
X15290420Y-15661865D01*
X15290420Y-15661865D02*
X15299944Y-15642817D01*
X15299944Y-15642817D02*
X15318992Y-15633293D01*
X15318992Y-15633293D02*
X15366611Y-15633293D01*
X15366611Y-15633293D02*
X15385658Y-15623769D01*
X15452325Y-15576150D02*
X15528515Y-15576150D01*
X15480896Y-15509484D02*
X15480896Y-15680912D01*
X15480896Y-15680912D02*
X15490420Y-15699960D01*
X15490420Y-15699960D02*
X15509468Y-15709484D01*
X15509468Y-15709484D02*
X15528515Y-15709484D01*
X15671373Y-15699960D02*
X15652325Y-15709484D01*
X15652325Y-15709484D02*
X15614230Y-15709484D01*
X15614230Y-15709484D02*
X15595182Y-15699960D01*
X15595182Y-15699960D02*
X15585658Y-15680912D01*
X15585658Y-15680912D02*
X15585658Y-15604722D01*
X15585658Y-15604722D02*
X15595182Y-15585674D01*
X15595182Y-15585674D02*
X15614230Y-15576150D01*
X15614230Y-15576150D02*
X15652325Y-15576150D01*
X15652325Y-15576150D02*
X15671373Y-15585674D01*
X15671373Y-15585674D02*
X15680896Y-15604722D01*
X15680896Y-15604722D02*
X15680896Y-15623769D01*
X15680896Y-15623769D02*
X15585658Y-15642817D01*
X15852325Y-15709484D02*
X15852325Y-15509484D01*
X15852325Y-15699960D02*
X15833277Y-15709484D01*
X15833277Y-15709484D02*
X15795182Y-15709484D01*
X15795182Y-15709484D02*
X15776134Y-15699960D01*
X15776134Y-15699960D02*
X15766611Y-15690436D01*
X15766611Y-15690436D02*
X15757087Y-15671388D01*
X15757087Y-15671388D02*
X15757087Y-15614246D01*
X15757087Y-15614246D02*
X15766611Y-15595198D01*
X15766611Y-15595198D02*
X15776134Y-15585674D01*
X15776134Y-15585674D02*
X15795182Y-15576150D01*
X15795182Y-15576150D02*
X15833277Y-15576150D01*
X15833277Y-15576150D02*
X15852325Y-15585674D01*
X15928515Y-15785674D02*
X15938039Y-15776150D01*
X15938039Y-15776150D02*
X15957087Y-15747579D01*
X15957087Y-15747579D02*
X15966611Y-15728531D01*
X15966611Y-15728531D02*
X15976134Y-15699960D01*
X15976134Y-15699960D02*
X15985658Y-15652341D01*
X15985658Y-15652341D02*
X15985658Y-15614246D01*
X15985658Y-15614246D02*
X15976134Y-15566627D01*
X15976134Y-15566627D02*
X15966611Y-15538055D01*
X15966611Y-15538055D02*
X15957087Y-15519008D01*
X15957087Y-15519008D02*
X15938039Y-15490436D01*
X15938039Y-15490436D02*
X15928515Y-15480912D01*
M02*
