%TF.GenerationSoftware,KiCad,Pcbnew,8.0.0*%
%TF.CreationDate,2024-03-02T01:18:58-06:00*%
%TF.ProjectId,kicad-power-hat,6b696361-642d-4706-9f77-65722d686174,rev?*%
%TF.SameCoordinates,Original*%
%TF.FileFunction,Copper,L2,Bot*%
%TF.FilePolarity,Positive*%
%FSLAX46Y46*%
G04 Gerber Fmt 4.6, Leading zero omitted, Abs format (unit mm)*
G04 Created by KiCad (PCBNEW 8.0.0) date 2024-03-02 01:18:58*
%MOMM*%
%LPD*%
G01*
G04 APERTURE LIST*
%TA.AperFunction,ComponentPad*%
%ADD10R,2.200000X2.200000*%
%TD*%
%TA.AperFunction,ComponentPad*%
%ADD11C,2.200000*%
%TD*%
%TA.AperFunction,ComponentPad*%
%ADD12O,1.700000X1.700000*%
%TD*%
%TA.AperFunction,ComponentPad*%
%ADD13R,1.700000X1.700000*%
%TD*%
%TA.AperFunction,ComponentPad*%
%ADD14R,2.600000X2.600000*%
%TD*%
%TA.AperFunction,ComponentPad*%
%ADD15C,2.600000*%
%TD*%
%TA.AperFunction,ViaPad*%
%ADD16C,0.600000*%
%TD*%
%TA.AperFunction,ViaPad*%
%ADD17C,0.900000*%
%TD*%
%TA.AperFunction,ViaPad*%
%ADD18C,1.200000*%
%TD*%
%TA.AperFunction,Conductor*%
%ADD19C,0.300000*%
%TD*%
%TA.AperFunction,Conductor*%
%ADD20C,0.600000*%
%TD*%
%TA.AperFunction,Conductor*%
%ADD21C,1.000000*%
%TD*%
G04 APERTURE END LIST*
D10*
%TO.P,J3,1,Pin_1*%
%TO.N,Net-(J3-Pin_1)*%
X95350000Y-130810000D03*
D11*
%TO.P,J3,2,Pin_2*%
%TO.N,Net-(J3-Pin_2)*%
X95350000Y-133350000D03*
%TO.P,J3,3,Pin_3*%
%TO.N,GND*%
X95350000Y-135890000D03*
%TD*%
D12*
%TO.P,J1,40,GPIO21/SCLK1*%
%TO.N,unconnected-(J1-GPIO21{slash}SCLK1-Pad40)*%
X150500000Y-93350000D03*
%TO.P,J1,39,GND*%
%TO.N,GND*%
X150500000Y-95890000D03*
%TO.P,J1,38,GPIO20/MOSI1*%
%TO.N,unconnected-(J1-GPIO20{slash}MOSI1-Pad38)*%
X147960000Y-93350000D03*
%TO.P,J1,37,GPIO26*%
%TO.N,unconnected-(J1-GPIO26-Pad37)*%
X147960000Y-95890000D03*
%TO.P,J1,36,GPIO16*%
%TO.N,unconnected-(J1-GPIO16-Pad36)*%
X145420000Y-93350000D03*
%TO.P,J1,35,GPIO19/MISO1*%
%TO.N,unconnected-(J1-GPIO19{slash}MISO1-Pad35)*%
X145420000Y-95890000D03*
%TO.P,J1,34,GND*%
%TO.N,GND*%
X142880000Y-93350000D03*
%TO.P,J1,33,PWM1/GPIO13*%
%TO.N,unconnected-(J1-PWM1{slash}GPIO13-Pad33)*%
X142880000Y-95890000D03*
%TO.P,J1,32,PWM0/GPIO12*%
%TO.N,unconnected-(J1-PWM0{slash}GPIO12-Pad32)*%
X140340000Y-93350000D03*
%TO.P,J1,31,GCLK2/GPIO6*%
%TO.N,unconnected-(J1-GCLK2{slash}GPIO6-Pad31)*%
X140340000Y-95890000D03*
%TO.P,J1,30,GND*%
%TO.N,GND*%
X137800000Y-93350000D03*
%TO.P,J1,29,GCLK1/GPIO5*%
%TO.N,unconnected-(J1-GCLK1{slash}GPIO5-Pad29)*%
X137800000Y-95890000D03*
%TO.P,J1,28,ID_SC/GPIO1*%
%TO.N,unconnected-(J1-ID_SC{slash}GPIO1-Pad28)*%
X135260000Y-93350000D03*
%TO.P,J1,27,ID_SD/GPIO0*%
%TO.N,unconnected-(J1-ID_SD{slash}GPIO0-Pad27)*%
X135260000Y-95890000D03*
%TO.P,J1,26,~{CE1}/GPIO7*%
%TO.N,unconnected-(J1-~{CE1}{slash}GPIO7-Pad26)*%
X132720000Y-93350000D03*
%TO.P,J1,25,GND*%
%TO.N,GND*%
X132720000Y-95890000D03*
%TO.P,J1,24,~{CE0}/GPIO8*%
%TO.N,unconnected-(J1-~{CE0}{slash}GPIO8-Pad24)*%
X130180000Y-93350000D03*
%TO.P,J1,23,SCLK0/GPIO11*%
%TO.N,unconnected-(J1-SCLK0{slash}GPIO11-Pad23)*%
X130180000Y-95890000D03*
%TO.P,J1,22,GPIO25*%
%TO.N,unconnected-(J1-GPIO25-Pad22)*%
X127640000Y-93350000D03*
%TO.P,J1,21,MISO0/GPIO9*%
%TO.N,unconnected-(J1-MISO0{slash}GPIO9-Pad21)*%
X127640000Y-95890000D03*
%TO.P,J1,20,GND*%
%TO.N,GND*%
X125100000Y-93350000D03*
%TO.P,J1,19,MOSI0/GPIO10*%
%TO.N,unconnected-(J1-MOSI0{slash}GPIO10-Pad19)*%
X125100000Y-95890000D03*
%TO.P,J1,18,GPIO24*%
%TO.N,unconnected-(J1-GPIO24-Pad18)*%
X122560000Y-93350000D03*
%TO.P,J1,17,3V3*%
%TO.N,3V3*%
X122560000Y-95890000D03*
%TO.P,J1,16,GPIO23*%
%TO.N,unconnected-(J1-GPIO23-Pad16)*%
X120020000Y-93350000D03*
%TO.P,J1,15,GPIO22*%
%TO.N,USRLED*%
X120020000Y-95890000D03*
%TO.P,J1,14,GND*%
%TO.N,GND*%
X117480000Y-93350000D03*
%TO.P,J1,13,GPIO27*%
%TO.N,unconnected-(J1-GPIO27-Pad13)*%
X117480000Y-95890000D03*
%TO.P,J1,12,GPIO18/PWM0*%
%TO.N,unconnected-(J1-GPIO18{slash}PWM0-Pad12)*%
X114940000Y-93350000D03*
%TO.P,J1,11,GPIO17*%
%TO.N,unconnected-(J1-GPIO17-Pad11)*%
X114940000Y-95890000D03*
%TO.P,J1,10,GPIO15/RXD*%
%TO.N,RXD*%
X112400000Y-93350000D03*
%TO.P,J1,9,GND*%
%TO.N,GND*%
X112400000Y-95890000D03*
%TO.P,J1,8,GPIO14/TXD*%
%TO.N,TXD*%
X109860000Y-93350000D03*
%TO.P,J1,7,GCLK0/GPIO4*%
%TO.N,unconnected-(J1-GCLK0{slash}GPIO4-Pad7)*%
X109860000Y-95890000D03*
%TO.P,J1,6,GND*%
%TO.N,GND*%
X107320000Y-93350000D03*
%TO.P,J1,5,SCL/GPIO3*%
%TO.N,unconnected-(J1-SCL{slash}GPIO3-Pad5)*%
X107320000Y-95890000D03*
%TO.P,J1,4,5V*%
%TO.N,5V*%
X104780000Y-93350000D03*
%TO.P,J1,3,SDA/GPIO2*%
%TO.N,unconnected-(J1-SDA{slash}GPIO2-Pad3)*%
X104780000Y-95890000D03*
%TO.P,J1,2,5V*%
%TO.N,5V*%
X102240000Y-93350000D03*
D13*
%TO.P,J1,1,3V3*%
%TO.N,3V3*%
X102240000Y-95890000D03*
%TD*%
D14*
%TO.P,J2,1,Pin_1*%
%TO.N,/AC N*%
X96850000Y-104135000D03*
D15*
%TO.P,J2,2,Pin_2*%
%TO.N,Net-(J2-Pin_2)*%
X96850000Y-109215000D03*
%TD*%
D16*
%TO.N,RXD*%
X115062000Y-139090400D03*
%TO.N,3V3*%
X100584034Y-134772366D03*
D17*
%TO.N,GND*%
X111252000Y-121412000D03*
X109252014Y-121380000D03*
X107188000Y-116586000D03*
X105156000Y-116586000D03*
X106172000Y-116586000D03*
X110236000Y-121380000D03*
D16*
%TO.N,USRLED*%
X123444000Y-138176000D03*
%TO.N,TXD*%
X115925600Y-134162800D03*
D17*
%TO.N,GND*%
X107188000Y-130556000D03*
X110744000Y-133096000D03*
X107442000Y-141986000D03*
X123190000Y-141986000D03*
X138684000Y-141986000D03*
D18*
%TO.N,5V*%
X120142004Y-119379990D03*
X132588000Y-125730000D03*
D17*
%TO.N,GND*%
X127508000Y-125984000D03*
X126238000Y-125984000D03*
X138938000Y-101346000D03*
X138938000Y-99568000D03*
X139192000Y-117602000D03*
X139192000Y-115570000D03*
X134112000Y-117602000D03*
X134112000Y-115570000D03*
X134112000Y-101346000D03*
X134112000Y-99568000D03*
X127762000Y-110490000D03*
X127762000Y-108712000D03*
X100330000Y-118872000D03*
X100330000Y-121412000D03*
X100330000Y-123952000D03*
X98298000Y-125222000D03*
X98298000Y-122682000D03*
X98298000Y-120142000D03*
X98298000Y-117602000D03*
X96266000Y-118872000D03*
X96266000Y-121412000D03*
X96266000Y-123952000D03*
X94234000Y-125222000D03*
X94234000Y-122682000D03*
X94234000Y-120142000D03*
X94234000Y-117602000D03*
%TO.N,3V3*%
X113839231Y-132540759D03*
X102209600Y-128371600D03*
D18*
%TO.N,5V*%
X111760000Y-119680000D03*
%TD*%
D19*
%TO.N,RXD*%
X115316000Y-138836400D02*
X115062000Y-139090400D01*
X115062000Y-135636000D02*
X115316000Y-135890000D01*
X115316000Y-135890000D02*
X115316000Y-138836400D01*
X109362943Y-92150000D02*
X111200000Y-92150000D01*
X108660000Y-92852943D02*
X109362943Y-92150000D01*
X108660000Y-96726000D02*
X108660000Y-92852943D01*
X103124000Y-98552000D02*
X104140000Y-97536000D01*
X111200000Y-92150000D02*
X112400000Y-93350000D01*
X104140000Y-97536000D02*
X107850000Y-97536000D01*
X103124000Y-105156000D02*
X103124000Y-98552000D01*
X107850000Y-97536000D02*
X108660000Y-96726000D01*
X115062000Y-117094000D02*
X103124000Y-105156000D01*
X115062000Y-135636000D02*
X115062000Y-117094000D01*
%TO.N,TXD*%
X115925600Y-101323600D02*
X115925600Y-134162800D01*
X111060000Y-96458000D02*
X115925600Y-101323600D01*
X111060000Y-94550000D02*
X111060000Y-96458000D01*
X109860000Y-93350000D02*
X111060000Y-94550000D01*
D20*
%TO.N,3V3*%
X110330472Y-129032000D02*
X113839231Y-132540759D01*
X109982000Y-129032000D02*
X110330472Y-129032000D01*
X109982000Y-129032000D02*
X102870000Y-129032000D01*
X102870000Y-129032000D02*
X102209600Y-128371600D01*
X100584034Y-134772366D02*
X100533200Y-134721532D01*
X100533200Y-134721532D02*
X100533200Y-130048000D01*
X100533200Y-130048000D02*
X102209600Y-128371600D01*
D19*
%TO.N,GND*%
X116280000Y-94550000D02*
X117480000Y-93350000D01*
X113740000Y-94550000D02*
X116280000Y-94550000D01*
X112400000Y-95890000D02*
X113740000Y-94550000D01*
D20*
%TO.N,3V3*%
X113792000Y-118110000D02*
X113792000Y-125222000D01*
X101346000Y-105664000D02*
X113792000Y-118110000D01*
X101346000Y-96784000D02*
X101346000Y-105664000D01*
X113792000Y-125222000D02*
X109982000Y-129032000D01*
X102240000Y-95890000D02*
X101346000Y-96784000D01*
D19*
%TO.N,USRLED*%
X123444000Y-127508000D02*
X123444000Y-138176000D01*
X117856000Y-98054000D02*
X117856000Y-121920000D01*
X117856000Y-121920000D02*
X123444000Y-127508000D01*
X120020000Y-95890000D02*
X117856000Y-98054000D01*
D21*
%TO.N,5V*%
X126237989Y-119379989D02*
X120142004Y-119379990D01*
X132588000Y-125730000D02*
X126237989Y-119379989D01*
X111760000Y-118618000D02*
X111760000Y-119680000D01*
X99695000Y-106553000D02*
X99695000Y-93980000D01*
X111760000Y-118618000D02*
X99695000Y-106553000D01*
X100325000Y-93350000D02*
X99695000Y-93980000D01*
X102240000Y-93350000D02*
X100325000Y-93350000D01*
%TD*%
%TA.AperFunction,Conductor*%
%TO.N,GND*%
G36*
X108745171Y-91635187D02*
G01*
X108790926Y-91687991D01*
X108800870Y-91757149D01*
X108771845Y-91820705D01*
X108765813Y-91827183D01*
X108317602Y-92275393D01*
X108256279Y-92308878D01*
X108186587Y-92303894D01*
X108158797Y-92289287D01*
X107997578Y-92176399D01*
X107783492Y-92076570D01*
X107783486Y-92076567D01*
X107570000Y-92019364D01*
X107570000Y-92916988D01*
X107512993Y-92884075D01*
X107385826Y-92850000D01*
X107254174Y-92850000D01*
X107127007Y-92884075D01*
X107070000Y-92916988D01*
X107070000Y-92019364D01*
X107069999Y-92019364D01*
X106856513Y-92076567D01*
X106856507Y-92076570D01*
X106642422Y-92176399D01*
X106642420Y-92176400D01*
X106448926Y-92311886D01*
X106448920Y-92311891D01*
X106281891Y-92478920D01*
X106281890Y-92478922D01*
X106151880Y-92664595D01*
X106097303Y-92708219D01*
X106027804Y-92715412D01*
X105965450Y-92683890D01*
X105948730Y-92664594D01*
X105818494Y-92478597D01*
X105651402Y-92311506D01*
X105651395Y-92311501D01*
X105457834Y-92175967D01*
X105457830Y-92175965D01*
X105457828Y-92175964D01*
X105243663Y-92076097D01*
X105243659Y-92076096D01*
X105243655Y-92076094D01*
X105015413Y-92014938D01*
X105015403Y-92014936D01*
X104780001Y-91994341D01*
X104779999Y-91994341D01*
X104544596Y-92014936D01*
X104544586Y-92014938D01*
X104316344Y-92076094D01*
X104316335Y-92076098D01*
X104102171Y-92175964D01*
X104102169Y-92175965D01*
X103908597Y-92311505D01*
X103741505Y-92478597D01*
X103611575Y-92664158D01*
X103556998Y-92707783D01*
X103487500Y-92714977D01*
X103425145Y-92683454D01*
X103408425Y-92664158D01*
X103278494Y-92478597D01*
X103111402Y-92311506D01*
X103111395Y-92311501D01*
X102917834Y-92175967D01*
X102917830Y-92175965D01*
X102917828Y-92175964D01*
X102703663Y-92076097D01*
X102703659Y-92076096D01*
X102703655Y-92076094D01*
X102475413Y-92014938D01*
X102475403Y-92014936D01*
X102240001Y-91994341D01*
X102239999Y-91994341D01*
X102004596Y-92014936D01*
X102004586Y-92014938D01*
X101776344Y-92076094D01*
X101776335Y-92076098D01*
X101562171Y-92175964D01*
X101562169Y-92175965D01*
X101368597Y-92311505D01*
X101366922Y-92313181D01*
X101366000Y-92313684D01*
X101364449Y-92314986D01*
X101364187Y-92314674D01*
X101305599Y-92346666D01*
X101279241Y-92349500D01*
X100429675Y-92349500D01*
X100429655Y-92349499D01*
X100423541Y-92349499D01*
X100226460Y-92349499D01*
X100226457Y-92349499D01*
X100033172Y-92387946D01*
X100033164Y-92387948D01*
X99851088Y-92463366D01*
X99851079Y-92463371D01*
X99687219Y-92572859D01*
X99687215Y-92572862D01*
X99206169Y-93053910D01*
X99057220Y-93202859D01*
X99057218Y-93202861D01*
X99013949Y-93246130D01*
X98917859Y-93342219D01*
X98808371Y-93506079D01*
X98808364Y-93506092D01*
X98775512Y-93585407D01*
X98775512Y-93585408D01*
X98732949Y-93688163D01*
X98732947Y-93688171D01*
X98713724Y-93784812D01*
X98694500Y-93881455D01*
X98694500Y-102369685D01*
X98674815Y-102436724D01*
X98622011Y-102482479D01*
X98552853Y-102492423D01*
X98496189Y-102468952D01*
X98453138Y-102436724D01*
X98392331Y-102391204D01*
X98392329Y-102391203D01*
X98392328Y-102391202D01*
X98257482Y-102340908D01*
X98257483Y-102340908D01*
X98197883Y-102334501D01*
X98197881Y-102334500D01*
X98197873Y-102334500D01*
X98197864Y-102334500D01*
X95502129Y-102334500D01*
X95502123Y-102334501D01*
X95442516Y-102340908D01*
X95307671Y-102391202D01*
X95307664Y-102391206D01*
X95192455Y-102477452D01*
X95192452Y-102477455D01*
X95106206Y-102592664D01*
X95106202Y-102592671D01*
X95055908Y-102727517D01*
X95049501Y-102787116D01*
X95049500Y-102787135D01*
X95049500Y-105482870D01*
X95049501Y-105482876D01*
X95055908Y-105542483D01*
X95106202Y-105677328D01*
X95106206Y-105677335D01*
X95192452Y-105792544D01*
X95192455Y-105792547D01*
X95307664Y-105878793D01*
X95307671Y-105878797D01*
X95442517Y-105929091D01*
X95442516Y-105929091D01*
X95449444Y-105929835D01*
X95502127Y-105935500D01*
X98197872Y-105935499D01*
X98257483Y-105929091D01*
X98392331Y-105878796D01*
X98496189Y-105801047D01*
X98561653Y-105776630D01*
X98629926Y-105791481D01*
X98679332Y-105840886D01*
X98694500Y-105900314D01*
X98694500Y-106651541D01*
X98694500Y-106651543D01*
X98694499Y-106651543D01*
X98732947Y-106844829D01*
X98732950Y-106844839D01*
X98808364Y-107026907D01*
X98808371Y-107026920D01*
X98917859Y-107190780D01*
X98917860Y-107190781D01*
X98917861Y-107190782D01*
X99057218Y-107330139D01*
X99057219Y-107330139D01*
X99064286Y-107337206D01*
X99064285Y-107337206D01*
X99064289Y-107337209D01*
X110723181Y-118996101D01*
X110756666Y-119057424D01*
X110759500Y-119083782D01*
X110759500Y-119191171D01*
X110746501Y-119246441D01*
X110729419Y-119280747D01*
X110673602Y-119476917D01*
X110654785Y-119679999D01*
X110654785Y-119680000D01*
X110673602Y-119883082D01*
X110729417Y-120079247D01*
X110729422Y-120079260D01*
X110820327Y-120261821D01*
X110943237Y-120424581D01*
X111093958Y-120561980D01*
X111093960Y-120561982D01*
X111193141Y-120623392D01*
X111267363Y-120669348D01*
X111457544Y-120743024D01*
X111658024Y-120780500D01*
X111658026Y-120780500D01*
X111861974Y-120780500D01*
X111861976Y-120780500D01*
X112062456Y-120743024D01*
X112252637Y-120669348D01*
X112426041Y-120561981D01*
X112576764Y-120424579D01*
X112699673Y-120261821D01*
X112756500Y-120147697D01*
X112804002Y-120096460D01*
X112871665Y-120079038D01*
X112938006Y-120100963D01*
X112981961Y-120155274D01*
X112991500Y-120202968D01*
X112991500Y-124839060D01*
X112971815Y-124906099D01*
X112955181Y-124926741D01*
X109686741Y-128195181D01*
X109625418Y-128228666D01*
X109599060Y-128231500D01*
X103252940Y-128231500D01*
X103185901Y-128211815D01*
X103165259Y-128195181D01*
X103164392Y-128194314D01*
X103133413Y-128142629D01*
X103091995Y-128006097D01*
X103003737Y-127840976D01*
X103003735Y-127840973D01*
X102884957Y-127696242D01*
X102740226Y-127577464D01*
X102740223Y-127577462D01*
X102575102Y-127489204D01*
X102395933Y-127434853D01*
X102395931Y-127434852D01*
X102209600Y-127416501D01*
X102023268Y-127434852D01*
X102023266Y-127434853D01*
X101844097Y-127489204D01*
X101678976Y-127577462D01*
X101678973Y-127577464D01*
X101534242Y-127696242D01*
X101415464Y-127840973D01*
X101415462Y-127840976D01*
X101327204Y-128006097D01*
X101285787Y-128142627D01*
X101254808Y-128194312D01*
X100239622Y-129209500D01*
X100022911Y-129426211D01*
X99981458Y-129467664D01*
X99911409Y-129537712D01*
X99823809Y-129668814D01*
X99823802Y-129668827D01*
X99763464Y-129814498D01*
X99763461Y-129814510D01*
X99732700Y-129969153D01*
X99732700Y-134800378D01*
X99763461Y-134955021D01*
X99763464Y-134955033D01*
X99823802Y-135100704D01*
X99823809Y-135100717D01*
X99911410Y-135231820D01*
X99911413Y-135231824D01*
X99954217Y-135274627D01*
X100081772Y-135402182D01*
X100147171Y-135443275D01*
X100150080Y-135445160D01*
X100204855Y-135481759D01*
X100205645Y-135482086D01*
X100224166Y-135491654D01*
X100234512Y-135498155D01*
X100295194Y-135519388D01*
X100301661Y-135521858D01*
X100350528Y-135542100D01*
X100350532Y-135542101D01*
X100350537Y-135542103D01*
X100364173Y-135544815D01*
X100380932Y-135549389D01*
X100404779Y-135557734D01*
X100455748Y-135563476D01*
X100466026Y-135565075D01*
X100493174Y-135570475D01*
X100505191Y-135572866D01*
X100505192Y-135572866D01*
X100532119Y-135572866D01*
X100546003Y-135573646D01*
X100584032Y-135577931D01*
X100584034Y-135577931D01*
X100584036Y-135577931D01*
X100622065Y-135573646D01*
X100635949Y-135572866D01*
X100662875Y-135572866D01*
X100662876Y-135572866D01*
X100702051Y-135565073D01*
X100712317Y-135563476D01*
X100763289Y-135557734D01*
X100787141Y-135549386D01*
X100803886Y-135544816D01*
X100817531Y-135542103D01*
X100866416Y-135521853D01*
X100872886Y-135519383D01*
X100933556Y-135498155D01*
X100943894Y-135491658D01*
X100962423Y-135482085D01*
X100963213Y-135481759D01*
X101018010Y-135445144D01*
X101020888Y-135443280D01*
X101020896Y-135443275D01*
X101086296Y-135402182D01*
X101213850Y-135274628D01*
X101254955Y-135209208D01*
X101256812Y-135206342D01*
X101293427Y-135151545D01*
X101293753Y-135150755D01*
X101303327Y-135132225D01*
X101309823Y-135121888D01*
X101331051Y-135061218D01*
X101333527Y-135054734D01*
X101353771Y-135005863D01*
X101356484Y-134992218D01*
X101361054Y-134975473D01*
X101369402Y-134951621D01*
X101375144Y-134900649D01*
X101376741Y-134890383D01*
X101384534Y-134851208D01*
X101384534Y-134824280D01*
X101385314Y-134810395D01*
X101389599Y-134772367D01*
X101389599Y-134772364D01*
X101385314Y-134734335D01*
X101384534Y-134720451D01*
X101384534Y-134693523D01*
X101376745Y-134654369D01*
X101375144Y-134644080D01*
X101369402Y-134593111D01*
X101361057Y-134569264D01*
X101356483Y-134552505D01*
X101353771Y-134538869D01*
X101343138Y-134513199D01*
X101333700Y-134465748D01*
X101333700Y-130430940D01*
X101353385Y-130363901D01*
X101370019Y-130343259D01*
X101744125Y-129969153D01*
X102121920Y-129591357D01*
X102183241Y-129557874D01*
X102252932Y-129562858D01*
X102297280Y-129591359D01*
X102359707Y-129653786D01*
X102359711Y-129653789D01*
X102490814Y-129741390D01*
X102490818Y-129741392D01*
X102490821Y-129741394D01*
X102636503Y-129801738D01*
X102791153Y-129832499D01*
X102791157Y-129832500D01*
X102791158Y-129832500D01*
X102948843Y-129832500D01*
X109903158Y-129832500D01*
X109947532Y-129832500D01*
X110014571Y-129852185D01*
X110035213Y-129868819D01*
X112884439Y-132718045D01*
X112915418Y-132769730D01*
X112956835Y-132906261D01*
X113045093Y-133071382D01*
X113045095Y-133071385D01*
X113163873Y-133216116D01*
X113308604Y-133334894D01*
X113308607Y-133334896D01*
X113422771Y-133395917D01*
X113473730Y-133423155D01*
X113651964Y-133477222D01*
X113652897Y-133477505D01*
X113652899Y-133477506D01*
X113669605Y-133479151D01*
X113839231Y-133495858D01*
X114025562Y-133477506D01*
X114204732Y-133423155D01*
X114215906Y-133417182D01*
X114229047Y-133410159D01*
X114297450Y-133395917D01*
X114362693Y-133420917D01*
X114404064Y-133477222D01*
X114411500Y-133519517D01*
X114411500Y-135700070D01*
X114433597Y-135811153D01*
X114433597Y-135811155D01*
X114436497Y-135825736D01*
X114436501Y-135825749D01*
X114485532Y-135944123D01*
X114485535Y-135944127D01*
X114556723Y-136050669D01*
X114629182Y-136123128D01*
X114662666Y-136184449D01*
X114665500Y-136210808D01*
X114665500Y-138325596D01*
X114645815Y-138392635D01*
X114607473Y-138430589D01*
X114559740Y-138460582D01*
X114559737Y-138460584D01*
X114432184Y-138588137D01*
X114336211Y-138740876D01*
X114276631Y-138911145D01*
X114276630Y-138911150D01*
X114256435Y-139090396D01*
X114256435Y-139090403D01*
X114276630Y-139269649D01*
X114276631Y-139269654D01*
X114336211Y-139439923D01*
X114432184Y-139592662D01*
X114559738Y-139720216D01*
X114712478Y-139816189D01*
X114882745Y-139875768D01*
X114882750Y-139875769D01*
X115061996Y-139895965D01*
X115062000Y-139895965D01*
X115062004Y-139895965D01*
X115241249Y-139875769D01*
X115241252Y-139875768D01*
X115241255Y-139875768D01*
X115411522Y-139816189D01*
X115564262Y-139720216D01*
X115691816Y-139592662D01*
X115787789Y-139439922D01*
X115847368Y-139269655D01*
X115851804Y-139230277D01*
X115871922Y-139175270D01*
X115892465Y-139144527D01*
X115941501Y-139026144D01*
X115954386Y-138961368D01*
X115966500Y-138900471D01*
X115966500Y-135825928D01*
X115941502Y-135700261D01*
X115941501Y-135700260D01*
X115941501Y-135700256D01*
X115892465Y-135581873D01*
X115844990Y-135510821D01*
X115844990Y-135510820D01*
X115821274Y-135475327D01*
X115748819Y-135402872D01*
X115715334Y-135341549D01*
X115712500Y-135315191D01*
X115712500Y-135083110D01*
X115732185Y-135016071D01*
X115784989Y-134970316D01*
X115850383Y-134959890D01*
X115891448Y-134964517D01*
X115925598Y-134968365D01*
X115925600Y-134968365D01*
X115925604Y-134968365D01*
X116104849Y-134948169D01*
X116104852Y-134948168D01*
X116104855Y-134948168D01*
X116275122Y-134888589D01*
X116427862Y-134792616D01*
X116555416Y-134665062D01*
X116651389Y-134512322D01*
X116710968Y-134342055D01*
X116716421Y-134293659D01*
X116731165Y-134162803D01*
X116731165Y-134162796D01*
X116710969Y-133983550D01*
X116710966Y-133983537D01*
X116651390Y-133813281D01*
X116651389Y-133813278D01*
X116629608Y-133778614D01*
X116595106Y-133723703D01*
X116576100Y-133657731D01*
X116576100Y-101259528D01*
X116551102Y-101133860D01*
X116551100Y-101133854D01*
X116530789Y-101084821D01*
X116530787Y-101084816D01*
X116502068Y-101015478D01*
X116502062Y-101015468D01*
X116430878Y-100908932D01*
X116430872Y-100908925D01*
X112867241Y-97345295D01*
X112833756Y-97283972D01*
X112838740Y-97214280D01*
X112880612Y-97158347D01*
X112902518Y-97145232D01*
X113077575Y-97063601D01*
X113077577Y-97063600D01*
X113271082Y-96928105D01*
X113438105Y-96761082D01*
X113568119Y-96575405D01*
X113622696Y-96531781D01*
X113692195Y-96524588D01*
X113754549Y-96556110D01*
X113771269Y-96575405D01*
X113901505Y-96761401D01*
X114068599Y-96928495D01*
X114112929Y-96959535D01*
X114262165Y-97064032D01*
X114262167Y-97064033D01*
X114262170Y-97064035D01*
X114476337Y-97163903D01*
X114704592Y-97225063D01*
X114892918Y-97241539D01*
X114939999Y-97245659D01*
X114940000Y-97245659D01*
X114940001Y-97245659D01*
X114979234Y-97242226D01*
X115175408Y-97225063D01*
X115403663Y-97163903D01*
X115617830Y-97064035D01*
X115811401Y-96928495D01*
X115978495Y-96761401D01*
X116108425Y-96575842D01*
X116163002Y-96532217D01*
X116232500Y-96525023D01*
X116294855Y-96556546D01*
X116311575Y-96575842D01*
X116441281Y-96761082D01*
X116441505Y-96761401D01*
X116608599Y-96928495D01*
X116652929Y-96959535D01*
X116802165Y-97064032D01*
X116802167Y-97064033D01*
X116802170Y-97064035D01*
X117016337Y-97163903D01*
X117244592Y-97225063D01*
X117458217Y-97243753D01*
X117523286Y-97269205D01*
X117564265Y-97325796D01*
X117568143Y-97395558D01*
X117535091Y-97454962D01*
X117350725Y-97639328D01*
X117350719Y-97639336D01*
X117292986Y-97725740D01*
X117292987Y-97725741D01*
X117292985Y-97725744D01*
X117279535Y-97745873D01*
X117279533Y-97745875D01*
X117279533Y-97745877D01*
X117230499Y-97864255D01*
X117230497Y-97864261D01*
X117205500Y-97989928D01*
X117205500Y-97989931D01*
X117205500Y-121984069D01*
X117205500Y-121984071D01*
X117205499Y-121984071D01*
X117230497Y-122109738D01*
X117230499Y-122109744D01*
X117279534Y-122228125D01*
X117350726Y-122334673D01*
X117350727Y-122334674D01*
X122757181Y-127741127D01*
X122790666Y-127802450D01*
X122793500Y-127828808D01*
X122793500Y-137670931D01*
X122774494Y-137736903D01*
X122718211Y-137826477D01*
X122718209Y-137826481D01*
X122658633Y-137996737D01*
X122658630Y-137996750D01*
X122638435Y-138175996D01*
X122638435Y-138176003D01*
X122658630Y-138355249D01*
X122658631Y-138355254D01*
X122718211Y-138525523D01*
X122757555Y-138588138D01*
X122814184Y-138678262D01*
X122941738Y-138805816D01*
X123094478Y-138901789D01*
X123264745Y-138961368D01*
X123264750Y-138961369D01*
X123443996Y-138981565D01*
X123444000Y-138981565D01*
X123444004Y-138981565D01*
X123623249Y-138961369D01*
X123623252Y-138961368D01*
X123623255Y-138961368D01*
X123793522Y-138901789D01*
X123946262Y-138805816D01*
X124073816Y-138678262D01*
X124169789Y-138525522D01*
X124229368Y-138355255D01*
X124249565Y-138176000D01*
X124229368Y-137996745D01*
X124229367Y-137996743D01*
X124229366Y-137996737D01*
X124169790Y-137826481D01*
X124169789Y-137826478D01*
X124148008Y-137791814D01*
X124113506Y-137736903D01*
X124094500Y-137670931D01*
X124094500Y-127443928D01*
X124069502Y-127318261D01*
X124069501Y-127318260D01*
X124069501Y-127318256D01*
X124020465Y-127199873D01*
X124020464Y-127199870D01*
X123949277Y-127093331D01*
X123949271Y-127093324D01*
X118542819Y-121686872D01*
X118509334Y-121625549D01*
X118506500Y-121599191D01*
X118506500Y-119379990D01*
X119036789Y-119379990D01*
X119055606Y-119583072D01*
X119111421Y-119779237D01*
X119111426Y-119779250D01*
X119202331Y-119961811D01*
X119325241Y-120124571D01*
X119464642Y-120251650D01*
X119475798Y-120261821D01*
X119475962Y-120261970D01*
X119475964Y-120261972D01*
X119575145Y-120323382D01*
X119649367Y-120369338D01*
X119839548Y-120443014D01*
X120040028Y-120480490D01*
X120040030Y-120480490D01*
X120243978Y-120480490D01*
X120243980Y-120480490D01*
X120444460Y-120443014D01*
X120555042Y-120400174D01*
X120584239Y-120388863D01*
X120629033Y-120380489D01*
X125772207Y-120380489D01*
X125839246Y-120400174D01*
X125859888Y-120416808D01*
X131529491Y-126086412D01*
X131554256Y-126124419D01*
X131554862Y-126124118D01*
X131648327Y-126311821D01*
X131771237Y-126474581D01*
X131921958Y-126611980D01*
X131921960Y-126611982D01*
X132021141Y-126673392D01*
X132095363Y-126719348D01*
X132285544Y-126793024D01*
X132486024Y-126830500D01*
X132486026Y-126830500D01*
X132689974Y-126830500D01*
X132689976Y-126830500D01*
X132890456Y-126793024D01*
X133080637Y-126719348D01*
X133254041Y-126611981D01*
X133404764Y-126474579D01*
X133527673Y-126311821D01*
X133618582Y-126129250D01*
X133674397Y-125933083D01*
X133693215Y-125730000D01*
X133674397Y-125526917D01*
X133618582Y-125330750D01*
X133527673Y-125148179D01*
X133404764Y-124985421D01*
X133404762Y-124985418D01*
X133254041Y-124848019D01*
X133254039Y-124848017D01*
X133080640Y-124740653D01*
X133080634Y-124740650D01*
X133013767Y-124714746D01*
X132995551Y-124707689D01*
X132952665Y-124679744D01*
X127022198Y-118749278D01*
X127022195Y-118749274D01*
X127022195Y-118749275D01*
X127015128Y-118742208D01*
X127015128Y-118742207D01*
X126875771Y-118602850D01*
X126875770Y-118602849D01*
X126875769Y-118602848D01*
X126711909Y-118493360D01*
X126711900Y-118493355D01*
X126628672Y-118458881D01*
X126583154Y-118440027D01*
X126556489Y-118428982D01*
X126529826Y-118417938D01*
X126529822Y-118417937D01*
X126392599Y-118390642D01*
X126336532Y-118379489D01*
X126336530Y-118379489D01*
X126336529Y-118379489D01*
X126139449Y-118379489D01*
X126139448Y-118379489D01*
X120629033Y-118379489D01*
X120584240Y-118371116D01*
X120444464Y-118316967D01*
X120444461Y-118316966D01*
X120444460Y-118316966D01*
X120243980Y-118279490D01*
X120040028Y-118279490D01*
X119839548Y-118316966D01*
X119839545Y-118316966D01*
X119839545Y-118316967D01*
X119649368Y-118390641D01*
X119649361Y-118390645D01*
X119475964Y-118498007D01*
X119475962Y-118498009D01*
X119325241Y-118635408D01*
X119202331Y-118798168D01*
X119111426Y-118980729D01*
X119111421Y-118980742D01*
X119055606Y-119176907D01*
X119036789Y-119379989D01*
X119036789Y-119379990D01*
X118506500Y-119379990D01*
X118506500Y-98374807D01*
X118526185Y-98307768D01*
X118542819Y-98287126D01*
X118965690Y-97864255D01*
X119592238Y-97237706D01*
X119653559Y-97204223D01*
X119712006Y-97205613D01*
X119784592Y-97225063D01*
X119972918Y-97241539D01*
X120019999Y-97245659D01*
X120020000Y-97245659D01*
X120020001Y-97245659D01*
X120059234Y-97242226D01*
X120255408Y-97225063D01*
X120483663Y-97163903D01*
X120697830Y-97064035D01*
X120891401Y-96928495D01*
X121058495Y-96761401D01*
X121188425Y-96575842D01*
X121243002Y-96532217D01*
X121312500Y-96525023D01*
X121374855Y-96556546D01*
X121391575Y-96575842D01*
X121521281Y-96761082D01*
X121521505Y-96761401D01*
X121688599Y-96928495D01*
X121732929Y-96959535D01*
X121882165Y-97064032D01*
X121882167Y-97064033D01*
X121882170Y-97064035D01*
X122096337Y-97163903D01*
X122324592Y-97225063D01*
X122512918Y-97241539D01*
X122559999Y-97245659D01*
X122560000Y-97245659D01*
X122560001Y-97245659D01*
X122599234Y-97242226D01*
X122795408Y-97225063D01*
X123023663Y-97163903D01*
X123237830Y-97064035D01*
X123431401Y-96928495D01*
X123598495Y-96761401D01*
X123728425Y-96575842D01*
X123783002Y-96532217D01*
X123852500Y-96525023D01*
X123914855Y-96556546D01*
X123931575Y-96575842D01*
X124061281Y-96761082D01*
X124061505Y-96761401D01*
X124228599Y-96928495D01*
X124272929Y-96959535D01*
X124422165Y-97064032D01*
X124422167Y-97064033D01*
X124422170Y-97064035D01*
X124636337Y-97163903D01*
X124864592Y-97225063D01*
X125052918Y-97241539D01*
X125099999Y-97245659D01*
X125100000Y-97245659D01*
X125100001Y-97245659D01*
X125139234Y-97242226D01*
X125335408Y-97225063D01*
X125563663Y-97163903D01*
X125777830Y-97064035D01*
X125971401Y-96928495D01*
X126138495Y-96761401D01*
X126268425Y-96575842D01*
X126323002Y-96532217D01*
X126392500Y-96525023D01*
X126454855Y-96556546D01*
X126471575Y-96575842D01*
X126601281Y-96761082D01*
X126601505Y-96761401D01*
X126768599Y-96928495D01*
X126812929Y-96959535D01*
X126962165Y-97064032D01*
X126962167Y-97064033D01*
X126962170Y-97064035D01*
X127176337Y-97163903D01*
X127404592Y-97225063D01*
X127592918Y-97241539D01*
X127639999Y-97245659D01*
X127640000Y-97245659D01*
X127640001Y-97245659D01*
X127679234Y-97242226D01*
X127875408Y-97225063D01*
X128103663Y-97163903D01*
X128317830Y-97064035D01*
X128511401Y-96928495D01*
X128678495Y-96761401D01*
X128808425Y-96575842D01*
X128863002Y-96532217D01*
X128932500Y-96525023D01*
X128994855Y-96556546D01*
X129011575Y-96575842D01*
X129141281Y-96761082D01*
X129141505Y-96761401D01*
X129308599Y-96928495D01*
X129352929Y-96959535D01*
X129502165Y-97064032D01*
X129502167Y-97064033D01*
X129502170Y-97064035D01*
X129716337Y-97163903D01*
X129944592Y-97225063D01*
X130132918Y-97241539D01*
X130179999Y-97245659D01*
X130180000Y-97245659D01*
X130180001Y-97245659D01*
X130219234Y-97242226D01*
X130415408Y-97225063D01*
X130643663Y-97163903D01*
X130857830Y-97064035D01*
X131051401Y-96928495D01*
X131218495Y-96761401D01*
X131348730Y-96575405D01*
X131403307Y-96531781D01*
X131472805Y-96524587D01*
X131535160Y-96556110D01*
X131551879Y-96575405D01*
X131681890Y-96761078D01*
X131848917Y-96928105D01*
X132042421Y-97063600D01*
X132256507Y-97163429D01*
X132256516Y-97163433D01*
X132470000Y-97220634D01*
X132470000Y-96323012D01*
X132527007Y-96355925D01*
X132654174Y-96390000D01*
X132785826Y-96390000D01*
X132912993Y-96355925D01*
X132970000Y-96323012D01*
X132970000Y-97220633D01*
X133183483Y-97163433D01*
X133183492Y-97163429D01*
X133397578Y-97063600D01*
X133591082Y-96928105D01*
X133758105Y-96761082D01*
X133888119Y-96575405D01*
X133942696Y-96531781D01*
X134012195Y-96524588D01*
X134074549Y-96556110D01*
X134091269Y-96575405D01*
X134221505Y-96761401D01*
X134388599Y-96928495D01*
X134432929Y-96959535D01*
X134582165Y-97064032D01*
X134582167Y-97064033D01*
X134582170Y-97064035D01*
X134796337Y-97163903D01*
X135024592Y-97225063D01*
X135212918Y-97241539D01*
X135259999Y-97245659D01*
X135260000Y-97245659D01*
X135260001Y-97245659D01*
X135299234Y-97242226D01*
X135495408Y-97225063D01*
X135723663Y-97163903D01*
X135937830Y-97064035D01*
X136131401Y-96928495D01*
X136298495Y-96761401D01*
X136428425Y-96575842D01*
X136483002Y-96532217D01*
X136552500Y-96525023D01*
X136614855Y-96556546D01*
X136631575Y-96575842D01*
X136761281Y-96761082D01*
X136761505Y-96761401D01*
X136928599Y-96928495D01*
X136972929Y-96959535D01*
X137122165Y-97064032D01*
X137122167Y-97064033D01*
X137122170Y-97064035D01*
X137336337Y-97163903D01*
X137564592Y-97225063D01*
X137752918Y-97241539D01*
X137799999Y-97245659D01*
X137800000Y-97245659D01*
X137800001Y-97245659D01*
X137839234Y-97242226D01*
X138035408Y-97225063D01*
X138263663Y-97163903D01*
X138477830Y-97064035D01*
X138671401Y-96928495D01*
X138838495Y-96761401D01*
X138968425Y-96575842D01*
X139023002Y-96532217D01*
X139092500Y-96525023D01*
X139154855Y-96556546D01*
X139171575Y-96575842D01*
X139301281Y-96761082D01*
X139301505Y-96761401D01*
X139468599Y-96928495D01*
X139512929Y-96959535D01*
X139662165Y-97064032D01*
X139662167Y-97064033D01*
X139662170Y-97064035D01*
X139876337Y-97163903D01*
X140104592Y-97225063D01*
X140292918Y-97241539D01*
X140339999Y-97245659D01*
X140340000Y-97245659D01*
X140340001Y-97245659D01*
X140379234Y-97242226D01*
X140575408Y-97225063D01*
X140803663Y-97163903D01*
X141017830Y-97064035D01*
X141211401Y-96928495D01*
X141378495Y-96761401D01*
X141508425Y-96575842D01*
X141563002Y-96532217D01*
X141632500Y-96525023D01*
X141694855Y-96556546D01*
X141711575Y-96575842D01*
X141841281Y-96761082D01*
X141841505Y-96761401D01*
X142008599Y-96928495D01*
X142052929Y-96959535D01*
X142202165Y-97064032D01*
X142202167Y-97064033D01*
X142202170Y-97064035D01*
X142416337Y-97163903D01*
X142644592Y-97225063D01*
X142832918Y-97241539D01*
X142879999Y-97245659D01*
X142880000Y-97245659D01*
X142880001Y-97245659D01*
X142919234Y-97242226D01*
X143115408Y-97225063D01*
X143343663Y-97163903D01*
X143557830Y-97064035D01*
X143751401Y-96928495D01*
X143918495Y-96761401D01*
X144048425Y-96575842D01*
X144103002Y-96532217D01*
X144172500Y-96525023D01*
X144234855Y-96556546D01*
X144251575Y-96575842D01*
X144381281Y-96761082D01*
X144381505Y-96761401D01*
X144548599Y-96928495D01*
X144592929Y-96959535D01*
X144742165Y-97064032D01*
X144742167Y-97064033D01*
X144742170Y-97064035D01*
X144956337Y-97163903D01*
X145184592Y-97225063D01*
X145372918Y-97241539D01*
X145419999Y-97245659D01*
X145420000Y-97245659D01*
X145420001Y-97245659D01*
X145459234Y-97242226D01*
X145655408Y-97225063D01*
X145883663Y-97163903D01*
X146097830Y-97064035D01*
X146291401Y-96928495D01*
X146458495Y-96761401D01*
X146588425Y-96575842D01*
X146643002Y-96532217D01*
X146712500Y-96525023D01*
X146774855Y-96556546D01*
X146791575Y-96575842D01*
X146921281Y-96761082D01*
X146921505Y-96761401D01*
X147088599Y-96928495D01*
X147132929Y-96959535D01*
X147282165Y-97064032D01*
X147282167Y-97064033D01*
X147282170Y-97064035D01*
X147496337Y-97163903D01*
X147724592Y-97225063D01*
X147912918Y-97241539D01*
X147959999Y-97245659D01*
X147960000Y-97245659D01*
X147960001Y-97245659D01*
X147999234Y-97242226D01*
X148195408Y-97225063D01*
X148423663Y-97163903D01*
X148637830Y-97064035D01*
X148831401Y-96928495D01*
X148998495Y-96761401D01*
X149128730Y-96575405D01*
X149183307Y-96531781D01*
X149252805Y-96524587D01*
X149315160Y-96556110D01*
X149331879Y-96575405D01*
X149461890Y-96761078D01*
X149628917Y-96928105D01*
X149822421Y-97063600D01*
X150036507Y-97163429D01*
X150036516Y-97163433D01*
X150250000Y-97220634D01*
X150250000Y-96323012D01*
X150307007Y-96355925D01*
X150434174Y-96390000D01*
X150565826Y-96390000D01*
X150692993Y-96355925D01*
X150750000Y-96323012D01*
X150750000Y-97220633D01*
X150963483Y-97163433D01*
X150963492Y-97163429D01*
X151177578Y-97063600D01*
X151371082Y-96928105D01*
X151538105Y-96761082D01*
X151673600Y-96567578D01*
X151773429Y-96353492D01*
X151773432Y-96353486D01*
X151830636Y-96140000D01*
X150933012Y-96140000D01*
X150965925Y-96082993D01*
X151000000Y-95955826D01*
X151000000Y-95824174D01*
X150965925Y-95697007D01*
X150933012Y-95640000D01*
X151830636Y-95640000D01*
X151830635Y-95639999D01*
X151773432Y-95426513D01*
X151773429Y-95426507D01*
X151673600Y-95212422D01*
X151673599Y-95212420D01*
X151538113Y-95018926D01*
X151538108Y-95018920D01*
X151371078Y-94851890D01*
X151212658Y-94740962D01*
X155879500Y-94740962D01*
X155897009Y-94851506D01*
X155918910Y-94989785D01*
X155996760Y-95229383D01*
X156010023Y-95255412D01*
X156095961Y-95424075D01*
X156111132Y-95453848D01*
X156259201Y-95657649D01*
X156259205Y-95657654D01*
X156437345Y-95835794D01*
X156437350Y-95835798D01*
X156602556Y-95955826D01*
X156641155Y-95983870D01*
X156784184Y-96056747D01*
X156865616Y-96098239D01*
X156865618Y-96098239D01*
X156865621Y-96098241D01*
X157105215Y-96176090D01*
X157354038Y-96215500D01*
X157354039Y-96215500D01*
X157605961Y-96215500D01*
X157605962Y-96215500D01*
X157854785Y-96176090D01*
X158094379Y-96098241D01*
X158318845Y-95983870D01*
X158522656Y-95835793D01*
X158700793Y-95657656D01*
X158848870Y-95453845D01*
X158963241Y-95229379D01*
X159041090Y-94989785D01*
X159080500Y-94740962D01*
X159080500Y-94489038D01*
X159041090Y-94240215D01*
X158963241Y-94000621D01*
X158963239Y-94000618D01*
X158963239Y-94000616D01*
X158902523Y-93881455D01*
X158848870Y-93776155D01*
X158784898Y-93688105D01*
X158700798Y-93572350D01*
X158700794Y-93572345D01*
X158522654Y-93394205D01*
X158522649Y-93394201D01*
X158318848Y-93246132D01*
X158318847Y-93246131D01*
X158318845Y-93246130D01*
X158233921Y-93202859D01*
X158094383Y-93131760D01*
X157854785Y-93053910D01*
X157785858Y-93042993D01*
X157605962Y-93014500D01*
X157354038Y-93014500D01*
X157229626Y-93034205D01*
X157105214Y-93053910D01*
X156865616Y-93131760D01*
X156641151Y-93246132D01*
X156437350Y-93394201D01*
X156437345Y-93394205D01*
X156259205Y-93572345D01*
X156259201Y-93572350D01*
X156111132Y-93776151D01*
X155996760Y-94000616D01*
X155918910Y-94240214D01*
X155898325Y-94370185D01*
X155879500Y-94489038D01*
X155879500Y-94740962D01*
X151212658Y-94740962D01*
X151185405Y-94721879D01*
X151141780Y-94667302D01*
X151134588Y-94597804D01*
X151166110Y-94535449D01*
X151185406Y-94518730D01*
X151186279Y-94518119D01*
X151371401Y-94388495D01*
X151538495Y-94221401D01*
X151674035Y-94027830D01*
X151773903Y-93813663D01*
X151835063Y-93585408D01*
X151855659Y-93350000D01*
X151835063Y-93114592D01*
X151773903Y-92886337D01*
X151674035Y-92672171D01*
X151668731Y-92664595D01*
X151538494Y-92478597D01*
X151371402Y-92311506D01*
X151371395Y-92311501D01*
X151177834Y-92175967D01*
X151177830Y-92175965D01*
X151177828Y-92175964D01*
X150963663Y-92076097D01*
X150963659Y-92076096D01*
X150963655Y-92076094D01*
X150735413Y-92014938D01*
X150735403Y-92014936D01*
X150500001Y-91994341D01*
X150499999Y-91994341D01*
X150264596Y-92014936D01*
X150264586Y-92014938D01*
X150036344Y-92076094D01*
X150036335Y-92076098D01*
X149822171Y-92175964D01*
X149822169Y-92175965D01*
X149628597Y-92311505D01*
X149461505Y-92478597D01*
X149331575Y-92664158D01*
X149276998Y-92707783D01*
X149207500Y-92714977D01*
X149145145Y-92683454D01*
X149128425Y-92664158D01*
X148998494Y-92478597D01*
X148831402Y-92311506D01*
X148831395Y-92311501D01*
X148637834Y-92175967D01*
X148637830Y-92175965D01*
X148637828Y-92175964D01*
X148423663Y-92076097D01*
X148423659Y-92076096D01*
X148423655Y-92076094D01*
X148195413Y-92014938D01*
X148195403Y-92014936D01*
X147960001Y-91994341D01*
X147959999Y-91994341D01*
X147724596Y-92014936D01*
X147724586Y-92014938D01*
X147496344Y-92076094D01*
X147496335Y-92076098D01*
X147282171Y-92175964D01*
X147282169Y-92175965D01*
X147088597Y-92311505D01*
X146921505Y-92478597D01*
X146791575Y-92664158D01*
X146736998Y-92707783D01*
X146667500Y-92714977D01*
X146605145Y-92683454D01*
X146588425Y-92664158D01*
X146458494Y-92478597D01*
X146291402Y-92311506D01*
X146291395Y-92311501D01*
X146097834Y-92175967D01*
X146097830Y-92175965D01*
X146097828Y-92175964D01*
X145883663Y-92076097D01*
X145883659Y-92076096D01*
X145883655Y-92076094D01*
X145655413Y-92014938D01*
X145655403Y-92014936D01*
X145420001Y-91994341D01*
X145419999Y-91994341D01*
X145184596Y-92014936D01*
X145184586Y-92014938D01*
X144956344Y-92076094D01*
X144956335Y-92076098D01*
X144742171Y-92175964D01*
X144742169Y-92175965D01*
X144548597Y-92311505D01*
X144381508Y-92478594D01*
X144251269Y-92664595D01*
X144196692Y-92708219D01*
X144127193Y-92715412D01*
X144064839Y-92683890D01*
X144048119Y-92664594D01*
X143918113Y-92478926D01*
X143918108Y-92478920D01*
X143751082Y-92311894D01*
X143557578Y-92176399D01*
X143343492Y-92076570D01*
X143343486Y-92076567D01*
X143130000Y-92019364D01*
X143130000Y-92916988D01*
X143072993Y-92884075D01*
X142945826Y-92850000D01*
X142814174Y-92850000D01*
X142687007Y-92884075D01*
X142630000Y-92916988D01*
X142630000Y-92019364D01*
X142629999Y-92019364D01*
X142416513Y-92076567D01*
X142416507Y-92076570D01*
X142202422Y-92176399D01*
X142202420Y-92176400D01*
X142008926Y-92311886D01*
X142008920Y-92311891D01*
X141841891Y-92478920D01*
X141841890Y-92478922D01*
X141711880Y-92664595D01*
X141657303Y-92708219D01*
X141587804Y-92715412D01*
X141525450Y-92683890D01*
X141508730Y-92664594D01*
X141378494Y-92478597D01*
X141211402Y-92311506D01*
X141211395Y-92311501D01*
X141017834Y-92175967D01*
X141017830Y-92175965D01*
X141017828Y-92175964D01*
X140803663Y-92076097D01*
X140803659Y-92076096D01*
X140803655Y-92076094D01*
X140575413Y-92014938D01*
X140575403Y-92014936D01*
X140340001Y-91994341D01*
X140339999Y-91994341D01*
X140104596Y-92014936D01*
X140104586Y-92014938D01*
X139876344Y-92076094D01*
X139876335Y-92076098D01*
X139662171Y-92175964D01*
X139662169Y-92175965D01*
X139468597Y-92311505D01*
X139301508Y-92478594D01*
X139171269Y-92664595D01*
X139116692Y-92708219D01*
X139047193Y-92715412D01*
X138984839Y-92683890D01*
X138968119Y-92664594D01*
X138838113Y-92478926D01*
X138838108Y-92478920D01*
X138671082Y-92311894D01*
X138477578Y-92176399D01*
X138263492Y-92076570D01*
X138263486Y-92076567D01*
X138050000Y-92019364D01*
X138050000Y-92916988D01*
X137992993Y-92884075D01*
X137865826Y-92850000D01*
X137734174Y-92850000D01*
X137607007Y-92884075D01*
X137550000Y-92916988D01*
X137550000Y-92019364D01*
X137549999Y-92019364D01*
X137336513Y-92076567D01*
X137336507Y-92076570D01*
X137122422Y-92176399D01*
X137122420Y-92176400D01*
X136928926Y-92311886D01*
X136928920Y-92311891D01*
X136761891Y-92478920D01*
X136761890Y-92478922D01*
X136631880Y-92664595D01*
X136577303Y-92708219D01*
X136507804Y-92715412D01*
X136445450Y-92683890D01*
X136428730Y-92664594D01*
X136298494Y-92478597D01*
X136131402Y-92311506D01*
X136131395Y-92311501D01*
X135937834Y-92175967D01*
X135937830Y-92175965D01*
X135937828Y-92175964D01*
X135723663Y-92076097D01*
X135723659Y-92076096D01*
X135723655Y-92076094D01*
X135495413Y-92014938D01*
X135495403Y-92014936D01*
X135260001Y-91994341D01*
X135259999Y-91994341D01*
X135024596Y-92014936D01*
X135024586Y-92014938D01*
X134796344Y-92076094D01*
X134796335Y-92076098D01*
X134582171Y-92175964D01*
X134582169Y-92175965D01*
X134388597Y-92311505D01*
X134221505Y-92478597D01*
X134091575Y-92664158D01*
X134036998Y-92707783D01*
X133967500Y-92714977D01*
X133905145Y-92683454D01*
X133888425Y-92664158D01*
X133758494Y-92478597D01*
X133591402Y-92311506D01*
X133591395Y-92311501D01*
X133397834Y-92175967D01*
X133397830Y-92175965D01*
X133397828Y-92175964D01*
X133183663Y-92076097D01*
X133183659Y-92076096D01*
X133183655Y-92076094D01*
X132955413Y-92014938D01*
X132955403Y-92014936D01*
X132720001Y-91994341D01*
X132719999Y-91994341D01*
X132484596Y-92014936D01*
X132484586Y-92014938D01*
X132256344Y-92076094D01*
X132256335Y-92076098D01*
X132042171Y-92175964D01*
X132042169Y-92175965D01*
X131848597Y-92311505D01*
X131681505Y-92478597D01*
X131551575Y-92664158D01*
X131496998Y-92707783D01*
X131427500Y-92714977D01*
X131365145Y-92683454D01*
X131348425Y-92664158D01*
X131218494Y-92478597D01*
X131051402Y-92311506D01*
X131051395Y-92311501D01*
X130857834Y-92175967D01*
X130857830Y-92175965D01*
X130857828Y-92175964D01*
X130643663Y-92076097D01*
X130643659Y-92076096D01*
X130643655Y-92076094D01*
X130415413Y-92014938D01*
X130415403Y-92014936D01*
X130180001Y-91994341D01*
X130179999Y-91994341D01*
X129944596Y-92014936D01*
X129944586Y-92014938D01*
X129716344Y-92076094D01*
X129716335Y-92076098D01*
X129502171Y-92175964D01*
X129502169Y-92175965D01*
X129308597Y-92311505D01*
X129141505Y-92478597D01*
X129011575Y-92664158D01*
X128956998Y-92707783D01*
X128887500Y-92714977D01*
X128825145Y-92683454D01*
X128808425Y-92664158D01*
X128678494Y-92478597D01*
X128511402Y-92311506D01*
X128511395Y-92311501D01*
X128317834Y-92175967D01*
X128317830Y-92175965D01*
X128317828Y-92175964D01*
X128103663Y-92076097D01*
X128103659Y-92076096D01*
X128103655Y-92076094D01*
X127875413Y-92014938D01*
X127875403Y-92014936D01*
X127640001Y-91994341D01*
X127639999Y-91994341D01*
X127404596Y-92014936D01*
X127404586Y-92014938D01*
X127176344Y-92076094D01*
X127176335Y-92076098D01*
X126962171Y-92175964D01*
X126962169Y-92175965D01*
X126768597Y-92311505D01*
X126601508Y-92478594D01*
X126471269Y-92664595D01*
X126416692Y-92708219D01*
X126347193Y-92715412D01*
X126284839Y-92683890D01*
X126268119Y-92664594D01*
X126138113Y-92478926D01*
X126138108Y-92478920D01*
X125971082Y-92311894D01*
X125777578Y-92176399D01*
X125563492Y-92076570D01*
X125563486Y-92076567D01*
X125350000Y-92019364D01*
X125350000Y-92916988D01*
X125292993Y-92884075D01*
X125165826Y-92850000D01*
X125034174Y-92850000D01*
X124907007Y-92884075D01*
X124850000Y-92916988D01*
X124850000Y-92019364D01*
X124849999Y-92019364D01*
X124636513Y-92076567D01*
X124636507Y-92076570D01*
X124422422Y-92176399D01*
X124422420Y-92176400D01*
X124228926Y-92311886D01*
X124228920Y-92311891D01*
X124061891Y-92478920D01*
X124061890Y-92478922D01*
X123931880Y-92664595D01*
X123877303Y-92708219D01*
X123807804Y-92715412D01*
X123745450Y-92683890D01*
X123728730Y-92664594D01*
X123598494Y-92478597D01*
X123431402Y-92311506D01*
X123431395Y-92311501D01*
X123237834Y-92175967D01*
X123237830Y-92175965D01*
X123237828Y-92175964D01*
X123023663Y-92076097D01*
X123023659Y-92076096D01*
X123023655Y-92076094D01*
X122795413Y-92014938D01*
X122795403Y-92014936D01*
X122560001Y-91994341D01*
X122559999Y-91994341D01*
X122324596Y-92014936D01*
X122324586Y-92014938D01*
X122096344Y-92076094D01*
X122096335Y-92076098D01*
X121882171Y-92175964D01*
X121882169Y-92175965D01*
X121688597Y-92311505D01*
X121521505Y-92478597D01*
X121391575Y-92664158D01*
X121336998Y-92707783D01*
X121267500Y-92714977D01*
X121205145Y-92683454D01*
X121188425Y-92664158D01*
X121058494Y-92478597D01*
X120891402Y-92311506D01*
X120891395Y-92311501D01*
X120697834Y-92175967D01*
X120697830Y-92175965D01*
X120697828Y-92175964D01*
X120483663Y-92076097D01*
X120483659Y-92076096D01*
X120483655Y-92076094D01*
X120255413Y-92014938D01*
X120255403Y-92014936D01*
X120020001Y-91994341D01*
X120019999Y-91994341D01*
X119784596Y-92014936D01*
X119784586Y-92014938D01*
X119556344Y-92076094D01*
X119556335Y-92076098D01*
X119342171Y-92175964D01*
X119342169Y-92175965D01*
X119148597Y-92311505D01*
X118981508Y-92478594D01*
X118851269Y-92664595D01*
X118796692Y-92708219D01*
X118727193Y-92715412D01*
X118664839Y-92683890D01*
X118648119Y-92664594D01*
X118518113Y-92478926D01*
X118518108Y-92478920D01*
X118351082Y-92311894D01*
X118157578Y-92176399D01*
X117943492Y-92076570D01*
X117943486Y-92076567D01*
X117730000Y-92019364D01*
X117730000Y-92916988D01*
X117672993Y-92884075D01*
X117545826Y-92850000D01*
X117414174Y-92850000D01*
X117287007Y-92884075D01*
X117230000Y-92916988D01*
X117230000Y-92019364D01*
X117229999Y-92019364D01*
X117016513Y-92076567D01*
X117016507Y-92076570D01*
X116802422Y-92176399D01*
X116802420Y-92176400D01*
X116608926Y-92311886D01*
X116608920Y-92311891D01*
X116441891Y-92478920D01*
X116441890Y-92478922D01*
X116311880Y-92664595D01*
X116257303Y-92708219D01*
X116187804Y-92715412D01*
X116125450Y-92683890D01*
X116108730Y-92664594D01*
X115978494Y-92478597D01*
X115811402Y-92311506D01*
X115811395Y-92311501D01*
X115617834Y-92175967D01*
X115617830Y-92175965D01*
X115617828Y-92175964D01*
X115403663Y-92076097D01*
X115403659Y-92076096D01*
X115403655Y-92076094D01*
X115175413Y-92014938D01*
X115175403Y-92014936D01*
X114940001Y-91994341D01*
X114939999Y-91994341D01*
X114704596Y-92014936D01*
X114704586Y-92014938D01*
X114476344Y-92076094D01*
X114476335Y-92076098D01*
X114262171Y-92175964D01*
X114262169Y-92175965D01*
X114068597Y-92311505D01*
X113901505Y-92478597D01*
X113771575Y-92664158D01*
X113716998Y-92707783D01*
X113647500Y-92714977D01*
X113585145Y-92683454D01*
X113568425Y-92664158D01*
X113438494Y-92478597D01*
X113271402Y-92311506D01*
X113271395Y-92311501D01*
X113077834Y-92175967D01*
X113077830Y-92175965D01*
X113077828Y-92175964D01*
X112863663Y-92076097D01*
X112863659Y-92076096D01*
X112863655Y-92076094D01*
X112635413Y-92014938D01*
X112635403Y-92014936D01*
X112400001Y-91994341D01*
X112399999Y-91994341D01*
X112164590Y-92014937D01*
X112164589Y-92014937D01*
X112092008Y-92034384D01*
X112022158Y-92032720D01*
X111972236Y-92002290D01*
X111797130Y-91827183D01*
X111763645Y-91765860D01*
X111768629Y-91696168D01*
X111810501Y-91640235D01*
X111875965Y-91615818D01*
X111884811Y-91615502D01*
X157434106Y-91615502D01*
X157496753Y-91615502D01*
X157503241Y-91615671D01*
X157807059Y-91631593D01*
X157819935Y-91632947D01*
X158117210Y-91680031D01*
X158129894Y-91682726D01*
X158420624Y-91760627D01*
X158432965Y-91764638D01*
X158713933Y-91872491D01*
X158725790Y-91877770D01*
X158863068Y-91947716D01*
X158993967Y-92014412D01*
X159005182Y-92020886D01*
X159257616Y-92184820D01*
X159268107Y-92192442D01*
X159502009Y-92381852D01*
X159511654Y-92390537D01*
X159724462Y-92603345D01*
X159733147Y-92612990D01*
X159922557Y-92846892D01*
X159930181Y-92857385D01*
X160094109Y-93109811D01*
X160100590Y-93121037D01*
X160237229Y-93389209D01*
X160242508Y-93401066D01*
X160350361Y-93682034D01*
X160354372Y-93694377D01*
X160432271Y-93985099D01*
X160434969Y-93997795D01*
X160482050Y-94295048D01*
X160483407Y-94307957D01*
X160499328Y-94611758D01*
X160499498Y-94618247D01*
X160499498Y-143611753D01*
X160499328Y-143618243D01*
X160483405Y-143922046D01*
X160482048Y-143934953D01*
X160434969Y-144232205D01*
X160432271Y-144244902D01*
X160354372Y-144535623D01*
X160350361Y-144547966D01*
X160242508Y-144828934D01*
X160237229Y-144840792D01*
X160100589Y-145108962D01*
X160094099Y-145120202D01*
X159930181Y-145372613D01*
X159922552Y-145383113D01*
X159733152Y-145617004D01*
X159724467Y-145626650D01*
X159511653Y-145839463D01*
X159502008Y-145848148D01*
X159268107Y-146037557D01*
X159257607Y-146045186D01*
X159181969Y-146094305D01*
X159005201Y-146209101D01*
X158993962Y-146215590D01*
X158725794Y-146352228D01*
X158713937Y-146357507D01*
X158432961Y-146465364D01*
X158420616Y-146469375D01*
X158129902Y-146547271D01*
X158117207Y-146549969D01*
X157819951Y-146597050D01*
X157807042Y-146598407D01*
X157503203Y-146614330D01*
X157496714Y-146614500D01*
X95253246Y-146614500D01*
X95246756Y-146614330D01*
X94942953Y-146598407D01*
X94930046Y-146597050D01*
X94632794Y-146549971D01*
X94620097Y-146547273D01*
X94329376Y-146469374D01*
X94317033Y-146465363D01*
X94036064Y-146357510D01*
X94024206Y-146352231D01*
X93756036Y-146215591D01*
X93744796Y-146209101D01*
X93492391Y-146045187D01*
X93481890Y-146037558D01*
X93247989Y-145848149D01*
X93238344Y-145839464D01*
X93025535Y-145626655D01*
X93016850Y-145617010D01*
X92827441Y-145383109D01*
X92819812Y-145372608D01*
X92655896Y-145120199D01*
X92649408Y-145108963D01*
X92649407Y-145108962D01*
X92512767Y-144840790D01*
X92507489Y-144828935D01*
X92399636Y-144547966D01*
X92395625Y-144535623D01*
X92373713Y-144453848D01*
X92317724Y-144244896D01*
X92315028Y-144232205D01*
X92314580Y-144229379D01*
X92267949Y-143934953D01*
X92266592Y-143922046D01*
X92257102Y-143740962D01*
X93649500Y-143740962D01*
X93678181Y-143922046D01*
X93688910Y-143989785D01*
X93766760Y-144229383D01*
X93881132Y-144453848D01*
X94029201Y-144657649D01*
X94029205Y-144657654D01*
X94207345Y-144835794D01*
X94207350Y-144835798D01*
X94278763Y-144887682D01*
X94411155Y-144983870D01*
X94554184Y-145056747D01*
X94635616Y-145098239D01*
X94635618Y-145098239D01*
X94635621Y-145098241D01*
X94875215Y-145176090D01*
X95124038Y-145215500D01*
X95124039Y-145215500D01*
X95375961Y-145215500D01*
X95375962Y-145215500D01*
X95624785Y-145176090D01*
X95864379Y-145098241D01*
X96088845Y-144983870D01*
X96292656Y-144835793D01*
X96470793Y-144657656D01*
X96618870Y-144453845D01*
X96733241Y-144229379D01*
X96811090Y-143989785D01*
X96850500Y-143740962D01*
X155879500Y-143740962D01*
X155908181Y-143922046D01*
X155918910Y-143989785D01*
X155996760Y-144229383D01*
X156111132Y-144453848D01*
X156259201Y-144657649D01*
X156259205Y-144657654D01*
X156437345Y-144835794D01*
X156437350Y-144835798D01*
X156508763Y-144887682D01*
X156641155Y-144983870D01*
X156784184Y-145056747D01*
X156865616Y-145098239D01*
X156865618Y-145098239D01*
X156865621Y-145098241D01*
X157105215Y-145176090D01*
X157354038Y-145215500D01*
X157354039Y-145215500D01*
X157605961Y-145215500D01*
X157605962Y-145215500D01*
X157854785Y-145176090D01*
X158094379Y-145098241D01*
X158318845Y-144983870D01*
X158522656Y-144835793D01*
X158700793Y-144657656D01*
X158848870Y-144453845D01*
X158963241Y-144229379D01*
X159041090Y-143989785D01*
X159080500Y-143740962D01*
X159080500Y-143489038D01*
X159041090Y-143240215D01*
X158963241Y-143000621D01*
X158963239Y-143000618D01*
X158963239Y-143000616D01*
X158921747Y-142919184D01*
X158848870Y-142776155D01*
X158829952Y-142750117D01*
X158700798Y-142572350D01*
X158700794Y-142572345D01*
X158522654Y-142394205D01*
X158522649Y-142394201D01*
X158318848Y-142246132D01*
X158318847Y-142246131D01*
X158318845Y-142246130D01*
X158248747Y-142210413D01*
X158094383Y-142131760D01*
X157854785Y-142053910D01*
X157605962Y-142014500D01*
X157354038Y-142014500D01*
X157229626Y-142034205D01*
X157105214Y-142053910D01*
X156865616Y-142131760D01*
X156641151Y-142246132D01*
X156437350Y-142394201D01*
X156437345Y-142394205D01*
X156259205Y-142572345D01*
X156259201Y-142572350D01*
X156111132Y-142776151D01*
X155996760Y-143000616D01*
X155918910Y-143240214D01*
X155918910Y-143240215D01*
X155879500Y-143489038D01*
X155879500Y-143740962D01*
X96850500Y-143740962D01*
X96850500Y-143489038D01*
X96811090Y-143240215D01*
X96733241Y-143000621D01*
X96733239Y-143000618D01*
X96733239Y-143000616D01*
X96691747Y-142919184D01*
X96618870Y-142776155D01*
X96599952Y-142750117D01*
X96470798Y-142572350D01*
X96470794Y-142572345D01*
X96292654Y-142394205D01*
X96292649Y-142394201D01*
X96088848Y-142246132D01*
X96088847Y-142246131D01*
X96088845Y-142246130D01*
X96018747Y-142210413D01*
X95864383Y-142131760D01*
X95624785Y-142053910D01*
X95375962Y-142014500D01*
X95124038Y-142014500D01*
X94999626Y-142034205D01*
X94875214Y-142053910D01*
X94635616Y-142131760D01*
X94411151Y-142246132D01*
X94207350Y-142394201D01*
X94207345Y-142394205D01*
X94029205Y-142572345D01*
X94029201Y-142572350D01*
X93881132Y-142776151D01*
X93766760Y-143000616D01*
X93688910Y-143240214D01*
X93688910Y-143240215D01*
X93649500Y-143489038D01*
X93649500Y-143740962D01*
X92257102Y-143740962D01*
X92250670Y-143618243D01*
X92250500Y-143611753D01*
X92250500Y-136709892D01*
X92270185Y-136642853D01*
X92322989Y-136597098D01*
X92392147Y-136587154D01*
X92424854Y-136597878D01*
X92425192Y-136597063D01*
X92535741Y-136642853D01*
X92576503Y-136659737D01*
X92731153Y-136690499D01*
X92731156Y-136690500D01*
X92731158Y-136690500D01*
X92888844Y-136690500D01*
X92888845Y-136690499D01*
X93043497Y-136659737D01*
X93189179Y-136599394D01*
X93320289Y-136511789D01*
X93431789Y-136400289D01*
X93519394Y-136269179D01*
X93548188Y-136199663D01*
X93592027Y-136145262D01*
X93658320Y-136123196D01*
X93726020Y-136140474D01*
X93773631Y-136191611D01*
X93783322Y-136218170D01*
X93823603Y-136385956D01*
X93919980Y-136618631D01*
X94051568Y-136833362D01*
X94052266Y-136834179D01*
X94826212Y-136060234D01*
X94837482Y-136102292D01*
X94909890Y-136227708D01*
X95012292Y-136330110D01*
X95137708Y-136402518D01*
X95179765Y-136413787D01*
X94405819Y-137187732D01*
X94405819Y-137187733D01*
X94406634Y-137188429D01*
X94621368Y-137320019D01*
X94854043Y-137416396D01*
X95098927Y-137475187D01*
X95350000Y-137494947D01*
X95601072Y-137475187D01*
X95845956Y-137416396D01*
X96078631Y-137320019D01*
X96293361Y-137188432D01*
X96293363Y-137188430D01*
X96294180Y-137187732D01*
X95520234Y-136413787D01*
X95562292Y-136402518D01*
X95687708Y-136330110D01*
X95790110Y-136227708D01*
X95862518Y-136102292D01*
X95873787Y-136060234D01*
X96647732Y-136834180D01*
X96648430Y-136833363D01*
X96648432Y-136833361D01*
X96780019Y-136618631D01*
X96876396Y-136385956D01*
X96935187Y-136141072D01*
X96954947Y-135890000D01*
X96935187Y-135638927D01*
X96876396Y-135394043D01*
X96780019Y-135161368D01*
X96648429Y-134946634D01*
X96647733Y-134945819D01*
X96647732Y-134945819D01*
X95873787Y-135719764D01*
X95862518Y-135677708D01*
X95790110Y-135552292D01*
X95687708Y-135449890D01*
X95562292Y-135377482D01*
X95520234Y-135366212D01*
X96138526Y-134747919D01*
X96161408Y-134729879D01*
X96293659Y-134648836D01*
X96485224Y-134485224D01*
X96648836Y-134293659D01*
X96780466Y-134078859D01*
X96876873Y-133846111D01*
X96935683Y-133601148D01*
X96955449Y-133350000D01*
X96935683Y-133098852D01*
X96876873Y-132853889D01*
X96870999Y-132839707D01*
X96780466Y-132621140D01*
X96699479Y-132488983D01*
X96681234Y-132421538D01*
X96702350Y-132354935D01*
X96730891Y-132324929D01*
X96807546Y-132267546D01*
X96893796Y-132152331D01*
X96944091Y-132017483D01*
X96950500Y-131957873D01*
X96950499Y-129662128D01*
X96944091Y-129602517D01*
X96939929Y-129591359D01*
X96893797Y-129467671D01*
X96893793Y-129467664D01*
X96807547Y-129352455D01*
X96807544Y-129352452D01*
X96692335Y-129266206D01*
X96692328Y-129266202D01*
X96557482Y-129215908D01*
X96557483Y-129215908D01*
X96497883Y-129209501D01*
X96497881Y-129209500D01*
X96497873Y-129209500D01*
X96497864Y-129209500D01*
X94202129Y-129209500D01*
X94202123Y-129209501D01*
X94142516Y-129215908D01*
X94007671Y-129266202D01*
X94007664Y-129266206D01*
X93892455Y-129352452D01*
X93892452Y-129352455D01*
X93806206Y-129467664D01*
X93806202Y-129467671D01*
X93755908Y-129602517D01*
X93750396Y-129653789D01*
X93749501Y-129662123D01*
X93749500Y-129662135D01*
X93749500Y-130366425D01*
X93729815Y-130433464D01*
X93677011Y-130479219D01*
X93607853Y-130489163D01*
X93544297Y-130460138D01*
X93522398Y-130435316D01*
X93431789Y-130299711D01*
X93431786Y-130299707D01*
X93320292Y-130188213D01*
X93320288Y-130188210D01*
X93189185Y-130100609D01*
X93189172Y-130100602D01*
X93043501Y-130040264D01*
X93043489Y-130040261D01*
X92888845Y-130009500D01*
X92888842Y-130009500D01*
X92731158Y-130009500D01*
X92731155Y-130009500D01*
X92576510Y-130040261D01*
X92576498Y-130040264D01*
X92425192Y-130102937D01*
X92424486Y-130101233D01*
X92364526Y-130113705D01*
X92299287Y-130088692D01*
X92257928Y-130032379D01*
X92250500Y-129990107D01*
X92250500Y-109215004D01*
X95044451Y-109215004D01*
X95064616Y-109484101D01*
X95124664Y-109747188D01*
X95124666Y-109747195D01*
X95223257Y-109998398D01*
X95358185Y-110232102D01*
X95494080Y-110402509D01*
X95526442Y-110443089D01*
X95713183Y-110616358D01*
X95724259Y-110626635D01*
X95947226Y-110778651D01*
X96190359Y-110895738D01*
X96448228Y-110975280D01*
X96448229Y-110975280D01*
X96448232Y-110975281D01*
X96715063Y-111015499D01*
X96715068Y-111015499D01*
X96715071Y-111015500D01*
X96715072Y-111015500D01*
X96984928Y-111015500D01*
X96984929Y-111015500D01*
X96984936Y-111015499D01*
X97251767Y-110975281D01*
X97251768Y-110975280D01*
X97251772Y-110975280D01*
X97509641Y-110895738D01*
X97752775Y-110778651D01*
X97975741Y-110626635D01*
X98173561Y-110443085D01*
X98341815Y-110232102D01*
X98476743Y-109998398D01*
X98575334Y-109747195D01*
X98635383Y-109484103D01*
X98655549Y-109215000D01*
X98635383Y-108945897D01*
X98575334Y-108682805D01*
X98476743Y-108431602D01*
X98341815Y-108197898D01*
X98173561Y-107986915D01*
X98173560Y-107986914D01*
X98173557Y-107986910D01*
X97975741Y-107803365D01*
X97752775Y-107651349D01*
X97752769Y-107651346D01*
X97752768Y-107651345D01*
X97752767Y-107651344D01*
X97509643Y-107534263D01*
X97509645Y-107534263D01*
X97251773Y-107454720D01*
X97251767Y-107454718D01*
X96984936Y-107414500D01*
X96984929Y-107414500D01*
X96715071Y-107414500D01*
X96715063Y-107414500D01*
X96448232Y-107454718D01*
X96448226Y-107454720D01*
X96190358Y-107534262D01*
X95947230Y-107651346D01*
X95724258Y-107803365D01*
X95526442Y-107986910D01*
X95358185Y-108197898D01*
X95223258Y-108431599D01*
X95223256Y-108431603D01*
X95124666Y-108682804D01*
X95124664Y-108682811D01*
X95064616Y-108945898D01*
X95044451Y-109214995D01*
X95044451Y-109215004D01*
X92250500Y-109215004D01*
X92250500Y-94740962D01*
X93649500Y-94740962D01*
X93667009Y-94851506D01*
X93688910Y-94989785D01*
X93766760Y-95229383D01*
X93780023Y-95255412D01*
X93865961Y-95424075D01*
X93881132Y-95453848D01*
X94029201Y-95657649D01*
X94029205Y-95657654D01*
X94207345Y-95835794D01*
X94207350Y-95835798D01*
X94372556Y-95955826D01*
X94411155Y-95983870D01*
X94554184Y-96056747D01*
X94635616Y-96098239D01*
X94635618Y-96098239D01*
X94635621Y-96098241D01*
X94875215Y-96176090D01*
X95124038Y-96215500D01*
X95124039Y-96215500D01*
X95375961Y-96215500D01*
X95375962Y-96215500D01*
X95624785Y-96176090D01*
X95864379Y-96098241D01*
X96088845Y-95983870D01*
X96292656Y-95835793D01*
X96470793Y-95657656D01*
X96618870Y-95453845D01*
X96733241Y-95229379D01*
X96811090Y-94989785D01*
X96850500Y-94740962D01*
X96850500Y-94489038D01*
X96811090Y-94240215D01*
X96733241Y-94000621D01*
X96733239Y-94000618D01*
X96733239Y-94000616D01*
X96672523Y-93881455D01*
X96618870Y-93776155D01*
X96554898Y-93688105D01*
X96470798Y-93572350D01*
X96470794Y-93572345D01*
X96292654Y-93394205D01*
X96292649Y-93394201D01*
X96088848Y-93246132D01*
X96088847Y-93246131D01*
X96088845Y-93246130D01*
X96003921Y-93202859D01*
X95864383Y-93131760D01*
X95624785Y-93053910D01*
X95555858Y-93042993D01*
X95375962Y-93014500D01*
X95124038Y-93014500D01*
X94999626Y-93034205D01*
X94875214Y-93053910D01*
X94635616Y-93131760D01*
X94411151Y-93246132D01*
X94207350Y-93394201D01*
X94207345Y-93394205D01*
X94029205Y-93572345D01*
X94029201Y-93572350D01*
X93881132Y-93776151D01*
X93766760Y-94000616D01*
X93688910Y-94240214D01*
X93668325Y-94370185D01*
X93649500Y-94489038D01*
X93649500Y-94740962D01*
X92250500Y-94740962D01*
X92250500Y-94618247D01*
X92250670Y-94611758D01*
X92251485Y-94596202D01*
X92266591Y-94307937D01*
X92267945Y-94295065D01*
X92315030Y-93997784D01*
X92317726Y-93985099D01*
X92395627Y-93694369D01*
X92399636Y-93682034D01*
X92431126Y-93600000D01*
X92507493Y-93401056D01*
X92512768Y-93389209D01*
X92532746Y-93349999D01*
X92649414Y-93121023D01*
X92655879Y-93109825D01*
X92819827Y-92857367D01*
X92827440Y-92846892D01*
X93016853Y-92612984D01*
X93025519Y-92603359D01*
X93238352Y-92390527D01*
X93247978Y-92381859D01*
X93481899Y-92192434D01*
X93492371Y-92184825D01*
X93744824Y-92020880D01*
X93756014Y-92014419D01*
X94024220Y-91877762D01*
X94036042Y-91872498D01*
X94317045Y-91764631D01*
X94329367Y-91760627D01*
X94620107Y-91682723D01*
X94632786Y-91680029D01*
X94930046Y-91632949D01*
X94942951Y-91631592D01*
X95246718Y-91615671D01*
X95253208Y-91615502D01*
X95315892Y-91615502D01*
X108678132Y-91615502D01*
X108745171Y-91635187D01*
G37*
%TD.AperFunction*%
%TA.AperFunction,Conductor*%
G36*
X93725696Y-133601261D02*
G01*
X93773307Y-133652398D01*
X93782997Y-133678956D01*
X93823126Y-133846110D01*
X93919533Y-134078859D01*
X94051160Y-134293653D01*
X94051161Y-134293656D01*
X94051164Y-134293659D01*
X94214776Y-134485224D01*
X94406341Y-134648836D01*
X94538586Y-134729876D01*
X94561472Y-134747919D01*
X95179765Y-135366212D01*
X95137708Y-135377482D01*
X95012292Y-135449890D01*
X94909890Y-135552292D01*
X94837482Y-135677708D01*
X94826212Y-135719765D01*
X94052266Y-134945819D01*
X94051567Y-134946637D01*
X93919980Y-135161368D01*
X93823603Y-135394043D01*
X93783322Y-135561829D01*
X93748531Y-135622421D01*
X93686505Y-135654585D01*
X93616936Y-135648109D01*
X93561912Y-135605049D01*
X93548189Y-135580341D01*
X93519394Y-135510821D01*
X93519392Y-135510818D01*
X93519390Y-135510814D01*
X93431789Y-135379711D01*
X93431786Y-135379707D01*
X93320292Y-135268213D01*
X93320288Y-135268210D01*
X93189185Y-135180609D01*
X93189172Y-135180602D01*
X93043501Y-135120264D01*
X93043489Y-135120261D01*
X92888845Y-135089500D01*
X92888842Y-135089500D01*
X92731158Y-135089500D01*
X92731155Y-135089500D01*
X92576510Y-135120261D01*
X92576498Y-135120264D01*
X92425192Y-135182937D01*
X92424486Y-135181233D01*
X92364526Y-135193705D01*
X92299287Y-135168692D01*
X92257928Y-135112379D01*
X92250500Y-135070107D01*
X92250500Y-134169892D01*
X92270185Y-134102853D01*
X92322989Y-134057098D01*
X92392147Y-134047154D01*
X92424854Y-134057878D01*
X92425192Y-134057063D01*
X92535741Y-134102853D01*
X92576503Y-134119737D01*
X92731153Y-134150499D01*
X92731156Y-134150500D01*
X92731158Y-134150500D01*
X92888844Y-134150500D01*
X92888845Y-134150499D01*
X93043497Y-134119737D01*
X93189179Y-134059394D01*
X93320289Y-133971789D01*
X93431789Y-133860289D01*
X93519394Y-133729179D01*
X93519395Y-133729176D01*
X93519397Y-133729173D01*
X93547862Y-133660451D01*
X93591702Y-133606047D01*
X93657996Y-133583982D01*
X93725696Y-133601261D01*
G37*
%TD.AperFunction*%
%TA.AperFunction,Conductor*%
G36*
X113754855Y-94016546D02*
G01*
X113771575Y-94035842D01*
X113901501Y-94221396D01*
X113901506Y-94221402D01*
X114068597Y-94388493D01*
X114068603Y-94388498D01*
X114254158Y-94518425D01*
X114297783Y-94573002D01*
X114304977Y-94642500D01*
X114273454Y-94704855D01*
X114254158Y-94721575D01*
X114068597Y-94851505D01*
X113901508Y-95018594D01*
X113771269Y-95204595D01*
X113716692Y-95248219D01*
X113647193Y-95255412D01*
X113584839Y-95223890D01*
X113568119Y-95204594D01*
X113438113Y-95018926D01*
X113438108Y-95018920D01*
X113271078Y-94851890D01*
X113085405Y-94721879D01*
X113041780Y-94667302D01*
X113034588Y-94597804D01*
X113066110Y-94535449D01*
X113085406Y-94518730D01*
X113086279Y-94518119D01*
X113271401Y-94388495D01*
X113438495Y-94221401D01*
X113568425Y-94035842D01*
X113623002Y-93992217D01*
X113692500Y-93985023D01*
X113754855Y-94016546D01*
G37*
%TD.AperFunction*%
%TA.AperFunction,Conductor*%
G36*
X116295160Y-94016110D02*
G01*
X116311879Y-94035405D01*
X116441890Y-94221078D01*
X116608917Y-94388105D01*
X116794595Y-94518119D01*
X116838219Y-94572696D01*
X116845412Y-94642195D01*
X116813890Y-94704549D01*
X116794595Y-94721269D01*
X116608594Y-94851508D01*
X116441505Y-95018597D01*
X116311575Y-95204158D01*
X116256998Y-95247783D01*
X116187500Y-95254977D01*
X116125145Y-95223454D01*
X116108425Y-95204158D01*
X115978494Y-95018597D01*
X115811402Y-94851506D01*
X115811396Y-94851501D01*
X115625842Y-94721575D01*
X115582217Y-94666998D01*
X115575023Y-94597500D01*
X115606546Y-94535145D01*
X115625842Y-94518425D01*
X115752057Y-94430048D01*
X115811401Y-94388495D01*
X115978495Y-94221401D01*
X116108730Y-94035405D01*
X116163307Y-93991781D01*
X116232805Y-93984587D01*
X116295160Y-94016110D01*
G37*
%TD.AperFunction*%
%TD*%
M02*
