M48
; DRILL file {KiCad 8.0.0} date 2024-03-02T01:19:26-0600
; FORMAT={-:-/ absolute / inch / decimal}
; #@! TF.CreationDate,2024-03-02T01:19:26-06:00
; #@! TF.GenerationSoftware,Kicad,Pcbnew,8.0.0
; #@! TF.FileFunction,Plated,1,2,PTH
FMAT,2
INCH
; #@! TA.AperFunction,Plated,PTH,ViaDrill
T1C0.0118
; #@! TA.AperFunction,Plated,PTH,ViaDrill
T2C0.0236
; #@! TA.AperFunction,Plated,PTH,ViaDrill
T3C0.0315
; #@! TA.AperFunction,Plated,PTH,ComponentDrill
T4C0.0394
; #@! TA.AperFunction,Plated,PTH,ComponentDrill
T5C0.0433
; #@! TA.AperFunction,Plated,PTH,ComponentDrill
T6C0.0512
%
G90
G05
T1
X3.96Y-5.306
X4.53Y-5.476
X4.564Y-5.282
X4.86Y-5.44
T2
X3.71Y-4.63
X3.71Y-4.73
X3.71Y-4.83
X3.71Y-4.93
X3.79Y-4.68
X3.79Y-4.78
X3.79Y-4.88
X3.87Y-4.63
X3.87Y-4.73
X3.87Y-4.83
X3.87Y-4.93
X3.95Y-4.68
X3.95Y-4.78
X3.95Y-4.88
X4.024Y-5.054
X4.14Y-4.59
X4.18Y-4.59
X4.22Y-4.59
X4.22Y-5.14
X4.23Y-5.59
X4.3013Y-4.7787
X4.34Y-4.7787
X4.36Y-5.24
X4.38Y-4.78
X4.4819Y-5.2181
X4.85Y-5.59
X4.97Y-4.96
X5.02Y-4.96
X5.03Y-4.28
X5.03Y-4.35
X5.28Y-3.92
X5.28Y-3.99
X5.28Y-4.55
X5.28Y-4.63
X5.46Y-5.59
X5.47Y-3.92
X5.47Y-3.99
X5.48Y-4.55
X5.48Y-4.63
T3
X4.4Y-4.7118
X4.73Y-4.7
X5.22Y-4.95
T4
X4.0252Y-3.6752
X4.0252Y-3.7752
X4.1252Y-3.6752
X4.1252Y-3.7752
X4.2252Y-3.6752
X4.2252Y-3.7752
X4.3252Y-3.6752
X4.3252Y-3.7752
X4.4252Y-3.6752
X4.4252Y-3.7752
X4.5252Y-3.6752
X4.5252Y-3.7752
X4.6252Y-3.6752
X4.6252Y-3.7752
X4.7252Y-3.6752
X4.7252Y-3.7752
X4.8252Y-3.6752
X4.8252Y-3.7752
X4.9252Y-3.6752
X4.9252Y-3.7752
X5.0252Y-3.6752
X5.0252Y-3.7752
X5.1252Y-3.6752
X5.1252Y-3.7752
X5.2252Y-3.6752
X5.2252Y-3.7752
X5.3252Y-3.6752
X5.3252Y-3.7752
X5.4252Y-3.6752
X5.4252Y-3.7752
X5.5252Y-3.6752
X5.5252Y-3.7752
X5.6252Y-3.6752
X5.6252Y-3.7752
X5.7252Y-3.6752
X5.7252Y-3.7752
X5.8252Y-3.6752
X5.8252Y-3.7752
X5.9252Y-3.6752
X5.9252Y-3.7752
T5
X3.7539Y-5.15
X3.7539Y-5.25
X3.7539Y-5.35
T6
X3.813Y-4.0998
X3.813Y-4.2998
M30
