%TF.GenerationSoftware,KiCad,Pcbnew,8.0.0*%
%TF.CreationDate,2024-03-02T01:18:58-06:00*%
%TF.ProjectId,kicad-power-hat,6b696361-642d-4706-9f77-65722d686174,rev?*%
%TF.SameCoordinates,Original*%
%TF.FileFunction,Copper,L1,Top*%
%TF.FilePolarity,Positive*%
%FSLAX46Y46*%
G04 Gerber Fmt 4.6, Leading zero omitted, Abs format (unit mm)*
G04 Created by KiCad (PCBNEW 8.0.0) date 2024-03-02 01:18:58*
%MOMM*%
%LPD*%
G01*
G04 APERTURE LIST*
G04 Aperture macros list*
%AMRoundRect*
0 Rectangle with rounded corners*
0 $1 Rounding radius*
0 $2 $3 $4 $5 $6 $7 $8 $9 X,Y pos of 4 corners*
0 Add a 4 corners polygon primitive as box body*
4,1,4,$2,$3,$4,$5,$6,$7,$8,$9,$2,$3,0*
0 Add four circle primitives for the rounded corners*
1,1,$1+$1,$2,$3*
1,1,$1+$1,$4,$5*
1,1,$1+$1,$6,$7*
1,1,$1+$1,$8,$9*
0 Add four rect primitives between the rounded corners*
20,1,$1+$1,$2,$3,$4,$5,0*
20,1,$1+$1,$4,$5,$6,$7,0*
20,1,$1+$1,$6,$7,$8,$9,0*
20,1,$1+$1,$8,$9,$2,$3,0*%
G04 Aperture macros list end*
%TA.AperFunction,SMDPad,CuDef*%
%ADD10R,2.400000X4.400000*%
%TD*%
%TA.AperFunction,SMDPad,CuDef*%
%ADD11RoundRect,0.250000X0.700000X-1.950000X0.700000X1.950000X-0.700000X1.950000X-0.700000X-1.950000X0*%
%TD*%
%TA.AperFunction,SMDPad,CuDef*%
%ADD12RoundRect,0.150000X0.150000X-0.675000X0.150000X0.675000X-0.150000X0.675000X-0.150000X-0.675000X0*%
%TD*%
%TA.AperFunction,SMDPad,CuDef*%
%ADD13RoundRect,0.250000X2.050000X0.300000X-2.050000X0.300000X-2.050000X-0.300000X2.050000X-0.300000X0*%
%TD*%
%TA.AperFunction,SMDPad,CuDef*%
%ADD14RoundRect,0.250000X2.025000X2.375000X-2.025000X2.375000X-2.025000X-2.375000X2.025000X-2.375000X0*%
%TD*%
%TA.AperFunction,SMDPad,CuDef*%
%ADD15RoundRect,0.250002X4.449998X5.149998X-4.449998X5.149998X-4.449998X-5.149998X4.449998X-5.149998X0*%
%TD*%
%TA.AperFunction,SMDPad,CuDef*%
%ADD16RoundRect,0.250000X-0.262500X-0.450000X0.262500X-0.450000X0.262500X0.450000X-0.262500X0.450000X0*%
%TD*%
%TA.AperFunction,SMDPad,CuDef*%
%ADD17RoundRect,0.250000X0.450000X-0.262500X0.450000X0.262500X-0.450000X0.262500X-0.450000X-0.262500X0*%
%TD*%
%TA.AperFunction,SMDPad,CuDef*%
%ADD18RoundRect,0.250000X-0.450000X0.262500X-0.450000X-0.262500X0.450000X-0.262500X0.450000X0.262500X0*%
%TD*%
%TA.AperFunction,SMDPad,CuDef*%
%ADD19RoundRect,0.150000X-0.587500X-0.150000X0.587500X-0.150000X0.587500X0.150000X-0.587500X0.150000X0*%
%TD*%
%TA.AperFunction,SMDPad,CuDef*%
%ADD20RoundRect,0.150000X0.587500X0.150000X-0.587500X0.150000X-0.587500X-0.150000X0.587500X-0.150000X0*%
%TD*%
%TA.AperFunction,SMDPad,CuDef*%
%ADD21R,5.400000X2.900000*%
%TD*%
%TA.AperFunction,ComponentPad*%
%ADD22R,2.200000X2.200000*%
%TD*%
%TA.AperFunction,ComponentPad*%
%ADD23C,2.200000*%
%TD*%
%TA.AperFunction,ComponentPad*%
%ADD24O,1.700000X1.700000*%
%TD*%
%TA.AperFunction,ComponentPad*%
%ADD25R,1.700000X1.700000*%
%TD*%
%TA.AperFunction,ComponentPad*%
%ADD26R,2.600000X2.600000*%
%TD*%
%TA.AperFunction,ComponentPad*%
%ADD27C,2.600000*%
%TD*%
%TA.AperFunction,SMDPad,CuDef*%
%ADD28RoundRect,0.250000X-0.312500X-1.450000X0.312500X-1.450000X0.312500X1.450000X-0.312500X1.450000X0*%
%TD*%
%TA.AperFunction,SMDPad,CuDef*%
%ADD29RoundRect,0.218750X-0.218750X-0.256250X0.218750X-0.256250X0.218750X0.256250X-0.218750X0.256250X0*%
%TD*%
%TA.AperFunction,SMDPad,CuDef*%
%ADD30RoundRect,0.250000X-0.650000X1.000000X-0.650000X-1.000000X0.650000X-1.000000X0.650000X1.000000X0*%
%TD*%
%TA.AperFunction,SMDPad,CuDef*%
%ADD31RoundRect,0.250000X-1.000000X1.400000X-1.000000X-1.400000X1.000000X-1.400000X1.000000X1.400000X0*%
%TD*%
%TA.AperFunction,ViaPad*%
%ADD32C,0.600000*%
%TD*%
%TA.AperFunction,ViaPad*%
%ADD33C,0.900000*%
%TD*%
%TA.AperFunction,ViaPad*%
%ADD34C,1.200000*%
%TD*%
%TA.AperFunction,Conductor*%
%ADD35C,0.300000*%
%TD*%
%TA.AperFunction,Conductor*%
%ADD36C,0.600000*%
%TD*%
%TA.AperFunction,Conductor*%
%ADD37C,1.000000*%
%TD*%
%TA.AperFunction,Conductor*%
%ADD38C,2.000000*%
%TD*%
G04 APERTURE END LIST*
D10*
%TO.P,D3,1,-*%
%TO.N,GND*%
X125195000Y-109815000D03*
%TO.P,D3,2*%
%TO.N,/AC N*%
X125195000Y-102115000D03*
%TO.P,D3,3*%
%TO.N,/AC L*%
X119995000Y-102115000D03*
%TO.P,D3,4,+*%
%TO.N,/DC+*%
X119995000Y-109815000D03*
%TD*%
D11*
%TO.P,C1,1*%
%TO.N,/DC+*%
X136525000Y-109815000D03*
%TO.P,C1,2*%
%TO.N,GND*%
X136525000Y-101115000D03*
%TD*%
D12*
%TO.P,U1,8,VCC*%
%TO.N,3V3*%
X102235000Y-130640000D03*
%TO.P,U1,7,B*%
%TO.N,Net-(J3-Pin_1)*%
X103505000Y-130640000D03*
%TO.P,U1,6,A*%
%TO.N,Net-(J3-Pin_2)*%
X104775000Y-130640000D03*
%TO.P,U1,5,GND*%
%TO.N,GND*%
X106045000Y-130640000D03*
%TO.P,U1,4,DI*%
%TO.N,TXD*%
X106045000Y-135890000D03*
%TO.P,U1,3,DE*%
%TO.N,Net-(Q1-C)*%
X104775000Y-135890000D03*
%TO.P,U1,2,~{RE}*%
X103505000Y-135890000D03*
%TO.P,U1,1,RO*%
%TO.N,RXD*%
X102235000Y-135890000D03*
%TD*%
D13*
%TO.P,U2,1,VIN*%
%TO.N,/DC+*%
X106305000Y-124780000D03*
%TO.P,U2,2,OUT*%
%TO.N,Net-(D5-K)*%
X106305000Y-123080000D03*
%TO.P,U2,3,GND*%
%TO.N,GND*%
X106305000Y-121380000D03*
D14*
X99580000Y-124155000D03*
X99580000Y-118605000D03*
D15*
X97155000Y-121380000D03*
D14*
X94730000Y-124155000D03*
X94730000Y-118605000D03*
D13*
%TO.P,U2,4,FB*%
%TO.N,5V*%
X106305000Y-119680000D03*
%TO.P,U2,5,~{ON}/OFF*%
%TO.N,GND*%
X106305000Y-117980000D03*
%TD*%
D16*
%TO.P,R1,1*%
%TO.N,Net-(D1-A)*%
X112371500Y-141986000D03*
%TO.P,R1,2*%
%TO.N,3V3*%
X114196500Y-141986000D03*
%TD*%
%TO.P,R5,1*%
%TO.N,Net-(D4-A)*%
X127865500Y-141986000D03*
%TO.P,R5,2*%
%TO.N,Net-(Q2-C)*%
X129690500Y-141986000D03*
%TD*%
D17*
%TO.P,R4,1*%
%TO.N,USRLED*%
X125300500Y-138072500D03*
%TO.P,R4,2*%
%TO.N,Net-(Q2-B)*%
X125300500Y-136247500D03*
%TD*%
D16*
%TO.P,R7,1*%
%TO.N,Net-(D6-A)*%
X143613500Y-141986000D03*
%TO.P,R7,2*%
%TO.N,Net-(Q3-C)*%
X145438500Y-141986000D03*
%TD*%
D17*
%TO.P,R6,1*%
%TO.N,TXD*%
X140891500Y-138072500D03*
%TO.P,R6,2*%
%TO.N,Net-(Q3-B)*%
X140891500Y-136247500D03*
%TD*%
D18*
%TO.P,R2,2*%
%TO.N,Net-(Q1-B)*%
X117172500Y-136020500D03*
%TO.P,R2,1*%
%TO.N,TXD*%
X117172500Y-134195500D03*
%TD*%
%TO.P,R3,2*%
%TO.N,Net-(Q1-C)*%
X113870500Y-136020500D03*
%TO.P,R3,1*%
%TO.N,3V3*%
X113870500Y-134195500D03*
%TD*%
D19*
%TO.P,Q2,3,C*%
%TO.N,Net-(Q2-C)*%
X129540000Y-137160000D03*
%TO.P,Q2,2,E*%
%TO.N,3V3*%
X127665000Y-138110000D03*
%TO.P,Q2,1,B*%
%TO.N,Net-(Q2-B)*%
X127665000Y-136210000D03*
%TD*%
%TO.P,Q3,1,B*%
%TO.N,Net-(Q3-B)*%
X143334500Y-136210000D03*
%TO.P,Q3,2,E*%
%TO.N,3V3*%
X143334500Y-138110000D03*
%TO.P,Q3,3,C*%
%TO.N,Net-(Q3-C)*%
X145209500Y-137160000D03*
%TD*%
D20*
%TO.P,Q1,3,C*%
%TO.N,Net-(Q1-C)*%
X108790500Y-135128000D03*
%TO.P,Q1,2,E*%
%TO.N,GND*%
X110665500Y-134178000D03*
%TO.P,Q1,1,B*%
%TO.N,Net-(Q1-B)*%
X110665500Y-136078000D03*
%TD*%
D21*
%TO.P,L1,1*%
%TO.N,Net-(D5-K)*%
X117331666Y-126330000D03*
%TO.P,L1,2*%
%TO.N,5V*%
X117331666Y-116430000D03*
%TD*%
D22*
%TO.P,J3,1,Pin_1*%
%TO.N,Net-(J3-Pin_1)*%
X95350000Y-130810000D03*
D23*
%TO.P,J3,2,Pin_2*%
%TO.N,Net-(J3-Pin_2)*%
X95350000Y-133350000D03*
%TO.P,J3,3,Pin_3*%
%TO.N,GND*%
X95350000Y-135890000D03*
%TD*%
D24*
%TO.P,J1,40,GPIO21/SCLK1*%
%TO.N,unconnected-(J1-GPIO21{slash}SCLK1-Pad40)*%
X150500000Y-93350000D03*
%TO.P,J1,39,GND*%
%TO.N,GND*%
X150500000Y-95890000D03*
%TO.P,J1,38,GPIO20/MOSI1*%
%TO.N,unconnected-(J1-GPIO20{slash}MOSI1-Pad38)*%
X147960000Y-93350000D03*
%TO.P,J1,37,GPIO26*%
%TO.N,unconnected-(J1-GPIO26-Pad37)*%
X147960000Y-95890000D03*
%TO.P,J1,36,GPIO16*%
%TO.N,unconnected-(J1-GPIO16-Pad36)*%
X145420000Y-93350000D03*
%TO.P,J1,35,GPIO19/MISO1*%
%TO.N,unconnected-(J1-GPIO19{slash}MISO1-Pad35)*%
X145420000Y-95890000D03*
%TO.P,J1,34,GND*%
%TO.N,GND*%
X142880000Y-93350000D03*
%TO.P,J1,33,PWM1/GPIO13*%
%TO.N,unconnected-(J1-PWM1{slash}GPIO13-Pad33)*%
X142880000Y-95890000D03*
%TO.P,J1,32,PWM0/GPIO12*%
%TO.N,unconnected-(J1-PWM0{slash}GPIO12-Pad32)*%
X140340000Y-93350000D03*
%TO.P,J1,31,GCLK2/GPIO6*%
%TO.N,unconnected-(J1-GCLK2{slash}GPIO6-Pad31)*%
X140340000Y-95890000D03*
%TO.P,J1,30,GND*%
%TO.N,GND*%
X137800000Y-93350000D03*
%TO.P,J1,29,GCLK1/GPIO5*%
%TO.N,unconnected-(J1-GCLK1{slash}GPIO5-Pad29)*%
X137800000Y-95890000D03*
%TO.P,J1,28,ID_SC/GPIO1*%
%TO.N,unconnected-(J1-ID_SC{slash}GPIO1-Pad28)*%
X135260000Y-93350000D03*
%TO.P,J1,27,ID_SD/GPIO0*%
%TO.N,unconnected-(J1-ID_SD{slash}GPIO0-Pad27)*%
X135260000Y-95890000D03*
%TO.P,J1,26,~{CE1}/GPIO7*%
%TO.N,unconnected-(J1-~{CE1}{slash}GPIO7-Pad26)*%
X132720000Y-93350000D03*
%TO.P,J1,25,GND*%
%TO.N,GND*%
X132720000Y-95890000D03*
%TO.P,J1,24,~{CE0}/GPIO8*%
%TO.N,unconnected-(J1-~{CE0}{slash}GPIO8-Pad24)*%
X130180000Y-93350000D03*
%TO.P,J1,23,SCLK0/GPIO11*%
%TO.N,unconnected-(J1-SCLK0{slash}GPIO11-Pad23)*%
X130180000Y-95890000D03*
%TO.P,J1,22,GPIO25*%
%TO.N,unconnected-(J1-GPIO25-Pad22)*%
X127640000Y-93350000D03*
%TO.P,J1,21,MISO0/GPIO9*%
%TO.N,unconnected-(J1-MISO0{slash}GPIO9-Pad21)*%
X127640000Y-95890000D03*
%TO.P,J1,20,GND*%
%TO.N,GND*%
X125100000Y-93350000D03*
%TO.P,J1,19,MOSI0/GPIO10*%
%TO.N,unconnected-(J1-MOSI0{slash}GPIO10-Pad19)*%
X125100000Y-95890000D03*
%TO.P,J1,18,GPIO24*%
%TO.N,unconnected-(J1-GPIO24-Pad18)*%
X122560000Y-93350000D03*
%TO.P,J1,17,3V3*%
%TO.N,3V3*%
X122560000Y-95890000D03*
%TO.P,J1,16,GPIO23*%
%TO.N,unconnected-(J1-GPIO23-Pad16)*%
X120020000Y-93350000D03*
%TO.P,J1,15,GPIO22*%
%TO.N,USRLED*%
X120020000Y-95890000D03*
%TO.P,J1,14,GND*%
%TO.N,GND*%
X117480000Y-93350000D03*
%TO.P,J1,13,GPIO27*%
%TO.N,unconnected-(J1-GPIO27-Pad13)*%
X117480000Y-95890000D03*
%TO.P,J1,12,GPIO18/PWM0*%
%TO.N,unconnected-(J1-GPIO18{slash}PWM0-Pad12)*%
X114940000Y-93350000D03*
%TO.P,J1,11,GPIO17*%
%TO.N,unconnected-(J1-GPIO17-Pad11)*%
X114940000Y-95890000D03*
%TO.P,J1,10,GPIO15/RXD*%
%TO.N,RXD*%
X112400000Y-93350000D03*
%TO.P,J1,9,GND*%
%TO.N,GND*%
X112400000Y-95890000D03*
%TO.P,J1,8,GPIO14/TXD*%
%TO.N,TXD*%
X109860000Y-93350000D03*
%TO.P,J1,7,GCLK0/GPIO4*%
%TO.N,unconnected-(J1-GCLK0{slash}GPIO4-Pad7)*%
X109860000Y-95890000D03*
%TO.P,J1,6,GND*%
%TO.N,GND*%
X107320000Y-93350000D03*
%TO.P,J1,5,SCL/GPIO3*%
%TO.N,unconnected-(J1-SCL{slash}GPIO3-Pad5)*%
X107320000Y-95890000D03*
%TO.P,J1,4,5V*%
%TO.N,5V*%
X104780000Y-93350000D03*
%TO.P,J1,3,SDA/GPIO2*%
%TO.N,unconnected-(J1-SDA{slash}GPIO2-Pad3)*%
X104780000Y-95890000D03*
%TO.P,J1,2,5V*%
%TO.N,5V*%
X102240000Y-93350000D03*
D25*
%TO.P,J1,1,3V3*%
%TO.N,3V3*%
X102240000Y-95890000D03*
%TD*%
D26*
%TO.P,J2,1,Pin_1*%
%TO.N,/AC N*%
X96850000Y-104135000D03*
D27*
%TO.P,J2,2,Pin_2*%
%TO.N,Net-(J2-Pin_2)*%
X96850000Y-109215000D03*
%TD*%
D28*
%TO.P,F1,1*%
%TO.N,Net-(J2-Pin_2)*%
X105410000Y-102235000D03*
%TO.P,F1,2*%
%TO.N,/AC L*%
X109685000Y-102235000D03*
%TD*%
D29*
%TO.P,D1,1,K*%
%TO.N,GND*%
X108790000Y-141986000D03*
%TO.P,D1,2,A*%
%TO.N,Net-(D1-A)*%
X110365000Y-141986000D03*
%TD*%
%TO.P,D4,1,K*%
%TO.N,GND*%
X124411000Y-141986000D03*
%TO.P,D4,2,A*%
%TO.N,Net-(D4-A)*%
X125986000Y-141986000D03*
%TD*%
%TO.P,D6,1,K*%
%TO.N,GND*%
X140032000Y-141986000D03*
%TO.P,D6,2,A*%
%TO.N,Net-(D6-A)*%
X141607000Y-141986000D03*
%TD*%
D30*
%TO.P,D5,1,K*%
%TO.N,Net-(D5-K)*%
X127000000Y-119402500D03*
%TO.P,D5,2,A*%
%TO.N,GND*%
X127000000Y-123402500D03*
%TD*%
D31*
%TO.P,D2,1,A1*%
%TO.N,/AC N*%
X112845000Y-108915000D03*
%TO.P,D2,2,A2*%
%TO.N,/AC L*%
X106045000Y-108915000D03*
%TD*%
D11*
%TO.P,C2,1*%
%TO.N,5V*%
X136640000Y-125730000D03*
%TO.P,C2,2*%
%TO.N,GND*%
X136640000Y-117030000D03*
%TD*%
D32*
%TO.N,RXD*%
X115062000Y-139090400D03*
%TO.N,3V3*%
X100584034Y-134772366D03*
D33*
%TO.N,GND*%
X111252000Y-121412000D03*
X109252014Y-121380000D03*
X107188000Y-116586000D03*
X105156000Y-116586000D03*
X106172000Y-116586000D03*
X110236000Y-121380000D03*
D32*
%TO.N,USRLED*%
X123444000Y-138176000D03*
%TO.N,TXD*%
X115925600Y-134162800D03*
D33*
%TO.N,GND*%
X107188000Y-130556000D03*
X110744000Y-133096000D03*
X107442000Y-141986000D03*
X123190000Y-141986000D03*
X138684000Y-141986000D03*
D34*
%TO.N,5V*%
X120142004Y-119379990D03*
X132588000Y-125730000D03*
D33*
%TO.N,GND*%
X127508000Y-125984000D03*
X126238000Y-125984000D03*
X138938000Y-101346000D03*
X138938000Y-99568000D03*
X139192000Y-117602000D03*
X139192000Y-115570000D03*
X134112000Y-117602000D03*
X134112000Y-115570000D03*
X134112000Y-101346000D03*
X134112000Y-99568000D03*
X127762000Y-110490000D03*
X127762000Y-108712000D03*
X100330000Y-118872000D03*
X100330000Y-121412000D03*
X100330000Y-123952000D03*
X98298000Y-125222000D03*
X98298000Y-122682000D03*
X98298000Y-120142000D03*
X98298000Y-117602000D03*
X96266000Y-118872000D03*
X96266000Y-121412000D03*
X96266000Y-123952000D03*
X94234000Y-125222000D03*
X94234000Y-122682000D03*
X94234000Y-120142000D03*
X94234000Y-117602000D03*
%TO.N,3V3*%
X113839231Y-132540759D03*
X102209600Y-128371600D03*
D34*
%TO.N,5V*%
X111760000Y-119680000D03*
%TD*%
D35*
%TO.N,RXD*%
X103784400Y-139090400D02*
X102362000Y-137668000D01*
X115062000Y-139090400D02*
X103784400Y-139090400D01*
D36*
%TO.N,3V3*%
X102209600Y-140055600D02*
X100533200Y-138379200D01*
X100533200Y-134823200D02*
X100584034Y-134772366D01*
X112266100Y-140055600D02*
X102209600Y-140055600D01*
X114196500Y-141986000D02*
X112266100Y-140055600D01*
X100533200Y-138379200D02*
X100533200Y-134823200D01*
D35*
%TO.N,TXD*%
X117172500Y-134195500D02*
X115958300Y-134195500D01*
X115958300Y-134195500D02*
X115925600Y-134162800D01*
D36*
%TO.N,3V3*%
X113870500Y-132572028D02*
X113839231Y-132540759D01*
X113870500Y-134195500D02*
X113870500Y-132572028D01*
X102235000Y-128397000D02*
X102209600Y-128371600D01*
X102235000Y-130640000D02*
X102235000Y-128397000D01*
X120710800Y-97739200D02*
X104089200Y-97739200D01*
X104089200Y-97739200D02*
X102240000Y-95890000D01*
X122560000Y-95890000D02*
X120710800Y-97739200D01*
D37*
%TO.N,/AC L*%
X109805000Y-102115000D02*
X109685000Y-102235000D01*
X119995000Y-102115000D02*
X109805000Y-102115000D01*
X106718200Y-108775400D02*
X106184600Y-108775400D01*
X106184600Y-108775400D02*
X106045000Y-108915000D01*
X109685000Y-105808600D02*
X106718200Y-108775400D01*
X109685000Y-102235000D02*
X109685000Y-105808600D01*
%TO.N,/AC N*%
X125195000Y-103252600D02*
X125195000Y-102115000D01*
X122402600Y-106045000D02*
X125195000Y-103252600D01*
X115874800Y-106045000D02*
X122402600Y-106045000D01*
X115715000Y-106045000D02*
X115874800Y-106045000D01*
X112845000Y-108915000D02*
X115715000Y-106045000D01*
X109533800Y-112226200D02*
X112845000Y-108915000D01*
X95580200Y-112090200D02*
X95716200Y-112226200D01*
X95716200Y-112226200D02*
X109533800Y-112226200D01*
X93980000Y-110490000D02*
X95580200Y-112090200D01*
X93980000Y-107137200D02*
X93980000Y-110490000D01*
X96850000Y-104267200D02*
X93980000Y-107137200D01*
X96850000Y-104135000D02*
X96850000Y-104267200D01*
%TO.N,Net-(J2-Pin_2)*%
X103830000Y-102235000D02*
X105410000Y-102235000D01*
X96850000Y-109215000D02*
X103830000Y-102235000D01*
%TO.N,/DC+*%
X106442200Y-124917200D02*
X106305000Y-124780000D01*
X109169200Y-124917200D02*
X106442200Y-124917200D01*
X109982000Y-128397000D02*
X109982000Y-125730000D01*
X109982000Y-125730000D02*
X109169200Y-124917200D01*
X111760000Y-130175000D02*
X109982000Y-128397000D01*
X111760000Y-130175000D02*
X126365000Y-130175000D01*
X129667000Y-126873000D02*
X126365000Y-130175000D01*
X129857500Y-126682500D02*
X129667000Y-126873000D01*
X129857500Y-117792500D02*
X129857500Y-126682500D01*
X127635000Y-115570000D02*
X129857500Y-117792500D01*
X129540000Y-113665000D02*
X127635000Y-115570000D01*
X132675000Y-113665000D02*
X129540000Y-113665000D01*
X136525000Y-109815000D02*
X132675000Y-113665000D01*
X122936000Y-115316000D02*
X123190000Y-115570000D01*
X123190000Y-115570000D02*
X127635000Y-115570000D01*
X119995000Y-112375000D02*
X122936000Y-115316000D01*
X119995000Y-109815000D02*
X119995000Y-112375000D01*
%TO.N,Net-(D5-K)*%
X109719600Y-123080000D02*
X112969600Y-126330000D01*
X112969600Y-126330000D02*
X117331666Y-126330000D01*
X106305000Y-123080000D02*
X109719600Y-123080000D01*
D38*
X117408400Y-126330000D02*
X117331666Y-126330000D01*
X124335900Y-119402500D02*
X117408400Y-126330000D01*
X127000000Y-119402500D02*
X124335900Y-119402500D01*
D36*
%TO.N,3V3*%
X123190000Y-136906000D02*
X123190000Y-136245600D01*
X131572000Y-135128000D02*
X124307600Y-135128000D01*
X123190000Y-136245600D02*
X124307600Y-135128000D01*
X123190000Y-136906000D02*
X120650000Y-139446000D01*
X141998500Y-139446000D02*
X135890000Y-139446000D01*
X135890000Y-139446000D02*
X131572000Y-135128000D01*
X143334500Y-138110000D02*
X141998500Y-139446000D01*
%TO.N,GND*%
X105156000Y-116586000D02*
X106172000Y-116586000D01*
X107188000Y-116586000D02*
X106172000Y-116586000D01*
X110268000Y-121412000D02*
X110236000Y-121380000D01*
X111252000Y-121412000D02*
X110268000Y-121412000D01*
X110236000Y-121380000D02*
X109252014Y-121380000D01*
X106305000Y-121380000D02*
X109252014Y-121380000D01*
X106305000Y-117980000D02*
X106305000Y-116719000D01*
X106305000Y-116719000D02*
X106172000Y-116586000D01*
D35*
%TO.N,Net-(Q1-B)*%
X115779000Y-137414000D02*
X117172500Y-136020500D01*
X112776000Y-137414000D02*
X115779000Y-137414000D01*
X111440000Y-136078000D02*
X112776000Y-137414000D01*
X110665500Y-136078000D02*
X111440000Y-136078000D01*
%TO.N,TXD*%
X119126000Y-136906000D02*
X117856000Y-138176000D01*
X119126000Y-134195500D02*
X119126000Y-136906000D01*
X119126000Y-134195500D02*
X117172500Y-134195500D01*
X133687500Y-134195500D02*
X119126000Y-134195500D01*
X106680000Y-138176000D02*
X117856000Y-138176000D01*
%TO.N,Net-(Q1-C)*%
X112014000Y-135128000D02*
X108790500Y-135128000D01*
X112906500Y-136020500D02*
X112014000Y-135128000D01*
X113870500Y-136020500D02*
X112906500Y-136020500D01*
%TO.N,TXD*%
X106045000Y-135890000D02*
X106045000Y-137541000D01*
X106045000Y-137541000D02*
X106680000Y-138176000D01*
%TO.N,Net-(Q2-B)*%
X127627500Y-136247500D02*
X127665000Y-136210000D01*
X125300500Y-136247500D02*
X127627500Y-136247500D01*
%TO.N,Net-(Q3-B)*%
X140929000Y-136210000D02*
X140891500Y-136247500D01*
X143334500Y-136210000D02*
X140929000Y-136210000D01*
%TO.N,Net-(Q3-C)*%
X145209500Y-141757000D02*
X145438500Y-141986000D01*
X145209500Y-137160000D02*
X145209500Y-141757000D01*
%TO.N,Net-(Q2-C)*%
X129540000Y-141835500D02*
X129690500Y-141986000D01*
X129540000Y-137160000D02*
X129540000Y-141835500D01*
D36*
%TO.N,3V3*%
X126329000Y-139446000D02*
X127665000Y-138110000D01*
X120650000Y-139446000D02*
X126329000Y-139446000D01*
X118110000Y-141986000D02*
X120650000Y-139446000D01*
X114196500Y-141986000D02*
X118110000Y-141986000D01*
D35*
%TO.N,TXD*%
X137564500Y-138072500D02*
X133687500Y-134195500D01*
X140891500Y-138072500D02*
X137564500Y-138072500D01*
%TO.N,USRLED*%
X125197000Y-138176000D02*
X125300500Y-138072500D01*
X123444000Y-138176000D02*
X125197000Y-138176000D01*
D37*
%TO.N,5V*%
X120142004Y-119240338D02*
X120142004Y-119379990D01*
X117331666Y-116430000D02*
X120142004Y-119240338D01*
D35*
%TO.N,Net-(Q1-C)*%
X104775000Y-134747000D02*
X104775000Y-135890000D01*
X105410000Y-134112000D02*
X104775000Y-134747000D01*
X107442000Y-135128000D02*
X106426000Y-134112000D01*
X106426000Y-134112000D02*
X105410000Y-134112000D01*
X108790500Y-135128000D02*
X107442000Y-135128000D01*
X104775000Y-135890000D02*
X103505000Y-135890000D01*
D36*
%TO.N,GND*%
X106129000Y-130556000D02*
X106045000Y-130640000D01*
X107188000Y-130556000D02*
X106129000Y-130556000D01*
X110744000Y-134099500D02*
X110665500Y-134178000D01*
X110744000Y-133096000D02*
X110744000Y-134099500D01*
X123190000Y-141986000D02*
X124411000Y-141986000D01*
X107442000Y-141986000D02*
X108790000Y-141986000D01*
X140032000Y-141986000D02*
X138684000Y-141986000D01*
D35*
%TO.N,Net-(D6-A)*%
X141607000Y-141986000D02*
X143613500Y-141986000D01*
%TO.N,Net-(D4-A)*%
X125986000Y-141986000D02*
X127865500Y-141986000D01*
%TO.N,Net-(D1-A)*%
X110365000Y-141986000D02*
X112371500Y-141986000D01*
%TO.N,RXD*%
X102362000Y-136017000D02*
X102235000Y-135890000D01*
X102362000Y-137668000D02*
X102362000Y-136017000D01*
D37*
%TO.N,5V*%
X132588000Y-125730000D02*
X136640000Y-125730000D01*
X106305000Y-119680000D02*
X111760000Y-119680000D01*
X111760000Y-119680000D02*
X114081666Y-119680000D01*
X102240000Y-93350000D02*
X104780000Y-93350000D01*
X114081666Y-119680000D02*
X117331666Y-116430000D01*
D35*
%TO.N,Net-(J3-Pin_1)*%
X98425000Y-130810000D02*
X95885000Y-130810000D01*
X99580000Y-131965000D02*
X98425000Y-130810000D01*
X103505000Y-131464999D02*
X103004999Y-131965000D01*
X103004999Y-131965000D02*
X99580000Y-131965000D01*
X103505000Y-130640000D02*
X103505000Y-131464999D01*
%TO.N,Net-(J3-Pin_2)*%
X102889999Y-133350000D02*
X95885000Y-133350000D01*
X104775000Y-131464999D02*
X102889999Y-133350000D01*
X104775000Y-130640000D02*
X104775000Y-131464999D01*
X100265000Y-133350000D02*
X95885000Y-133350000D01*
X100330000Y-133285000D02*
X102954999Y-133285000D01*
X100330000Y-133285000D02*
X100265000Y-133350000D01*
X102954999Y-133285000D02*
X104775000Y-131464999D01*
%TD*%
%TA.AperFunction,Conductor*%
%TO.N,GND*%
G36*
X127769441Y-106953685D02*
G01*
X127799230Y-106980538D01*
X128750828Y-108170035D01*
X128777336Y-108234681D01*
X128778000Y-108247497D01*
X128778000Y-111471654D01*
X128760329Y-111535451D01*
X128364457Y-112195239D01*
X128059494Y-112703511D01*
X128052122Y-112715797D01*
X128000751Y-112763156D01*
X127945793Y-112776000D01*
X123314000Y-112776000D01*
X123246961Y-112756315D01*
X123201206Y-112703511D01*
X123190000Y-112652000D01*
X123190000Y-110215000D01*
X123745000Y-110215000D01*
X123745000Y-112039628D01*
X123759503Y-112112540D01*
X123759505Y-112112544D01*
X123814760Y-112195239D01*
X123897455Y-112250494D01*
X123897459Y-112250496D01*
X123970371Y-112264999D01*
X123970374Y-112265000D01*
X124795000Y-112265000D01*
X124795000Y-110215000D01*
X125595000Y-110215000D01*
X125595000Y-112265000D01*
X126419626Y-112265000D01*
X126419628Y-112264999D01*
X126492540Y-112250496D01*
X126492544Y-112250494D01*
X126575239Y-112195239D01*
X126630494Y-112112544D01*
X126630496Y-112112540D01*
X126644999Y-112039628D01*
X126645000Y-112039626D01*
X126645000Y-110215000D01*
X125595000Y-110215000D01*
X124795000Y-110215000D01*
X123745000Y-110215000D01*
X123190000Y-110215000D01*
X123190000Y-109415000D01*
X123745000Y-109415000D01*
X124795000Y-109415000D01*
X124795000Y-107365000D01*
X125595000Y-107365000D01*
X125595000Y-109415000D01*
X126645000Y-109415000D01*
X126645000Y-107590373D01*
X126644999Y-107590371D01*
X126630496Y-107517459D01*
X126630494Y-107517455D01*
X126575239Y-107434760D01*
X126492544Y-107379505D01*
X126492540Y-107379503D01*
X126419627Y-107365000D01*
X125595000Y-107365000D01*
X124795000Y-107365000D01*
X123970373Y-107365000D01*
X123897459Y-107379503D01*
X123897455Y-107379505D01*
X123814760Y-107434760D01*
X123759505Y-107517455D01*
X123759503Y-107517459D01*
X123745000Y-107590371D01*
X123745000Y-109415000D01*
X123190000Y-109415000D01*
X123190000Y-107058000D01*
X123209685Y-106990961D01*
X123262489Y-106945206D01*
X123314000Y-106934000D01*
X127702402Y-106934000D01*
X127769441Y-106953685D01*
G37*
%TD.AperFunction*%
%TD*%
%TA.AperFunction,Conductor*%
%TO.N,GND*%
G36*
X135504013Y-98571685D02*
G01*
X135549768Y-98624489D01*
X135559712Y-98693647D01*
X135530687Y-98757203D01*
X135511285Y-98775267D01*
X135467809Y-98807813D01*
X135381649Y-98922906D01*
X135381645Y-98922913D01*
X135331403Y-99057620D01*
X135331401Y-99057627D01*
X135325000Y-99117155D01*
X135325000Y-100715000D01*
X137725000Y-100715000D01*
X137725000Y-99117172D01*
X137724999Y-99117155D01*
X137718598Y-99057627D01*
X137718596Y-99057620D01*
X137668354Y-98922913D01*
X137668350Y-98922906D01*
X137582190Y-98807813D01*
X137538715Y-98775267D01*
X137496844Y-98719333D01*
X137491860Y-98649641D01*
X137525345Y-98588318D01*
X137586669Y-98554834D01*
X137613026Y-98552000D01*
X139830000Y-98552000D01*
X139897039Y-98571685D01*
X139942794Y-98624489D01*
X139954000Y-98676000D01*
X139954000Y-102056638D01*
X139934315Y-102123677D01*
X139917681Y-102144319D01*
X138466319Y-103595681D01*
X138404996Y-103629166D01*
X138378638Y-103632000D01*
X137671740Y-103632000D01*
X137604701Y-103612315D01*
X137558946Y-103559511D01*
X137549002Y-103490353D01*
X137576885Y-103429296D01*
X137576875Y-103429288D01*
X137576911Y-103429238D01*
X137578027Y-103426797D01*
X137581662Y-103422892D01*
X137668350Y-103307093D01*
X137668354Y-103307086D01*
X137718596Y-103172379D01*
X137718598Y-103172372D01*
X137724999Y-103112844D01*
X137725000Y-103112827D01*
X137725000Y-101515000D01*
X135325000Y-101515000D01*
X135325000Y-103112844D01*
X135331401Y-103172372D01*
X135331403Y-103172379D01*
X135381645Y-103307086D01*
X135381649Y-103307093D01*
X135473125Y-103429288D01*
X135471501Y-103430503D01*
X135499426Y-103481642D01*
X135494442Y-103551334D01*
X135452570Y-103607267D01*
X135387106Y-103631684D01*
X135378260Y-103632000D01*
X134671362Y-103632000D01*
X134604323Y-103612315D01*
X134583681Y-103595681D01*
X133132319Y-102144319D01*
X133098834Y-102082996D01*
X133096000Y-102056638D01*
X133096000Y-98676000D01*
X133115685Y-98608961D01*
X133168489Y-98563206D01*
X133220000Y-98552000D01*
X135436974Y-98552000D01*
X135504013Y-98571685D01*
G37*
%TD.AperFunction*%
%TD*%
%TA.AperFunction,Conductor*%
%TO.N,GND*%
G36*
X139897039Y-114319685D02*
G01*
X139942794Y-114372489D01*
X139954000Y-114424000D01*
X139954000Y-118820638D01*
X139934315Y-118887677D01*
X139917681Y-118908319D01*
X138974319Y-119851681D01*
X138912996Y-119885166D01*
X138886638Y-119888000D01*
X134417362Y-119888000D01*
X134350323Y-119868315D01*
X134329681Y-119851681D01*
X133386319Y-118908319D01*
X133352834Y-118846996D01*
X133350000Y-118820638D01*
X133350000Y-117430000D01*
X135440000Y-117430000D01*
X135440000Y-119027844D01*
X135446401Y-119087372D01*
X135446403Y-119087379D01*
X135496645Y-119222086D01*
X135496649Y-119222093D01*
X135582809Y-119337187D01*
X135582812Y-119337190D01*
X135697906Y-119423350D01*
X135697913Y-119423354D01*
X135832620Y-119473596D01*
X135832627Y-119473598D01*
X135892155Y-119479999D01*
X135892172Y-119480000D01*
X136240000Y-119480000D01*
X136240000Y-117430000D01*
X137040000Y-117430000D01*
X137040000Y-119480000D01*
X137387828Y-119480000D01*
X137387844Y-119479999D01*
X137447372Y-119473598D01*
X137447379Y-119473596D01*
X137582086Y-119423354D01*
X137582093Y-119423350D01*
X137697187Y-119337190D01*
X137697190Y-119337187D01*
X137783350Y-119222093D01*
X137783354Y-119222086D01*
X137833596Y-119087379D01*
X137833598Y-119087372D01*
X137839999Y-119027844D01*
X137840000Y-119027827D01*
X137840000Y-117430000D01*
X137040000Y-117430000D01*
X136240000Y-117430000D01*
X135440000Y-117430000D01*
X133350000Y-117430000D01*
X133350000Y-116630000D01*
X135440000Y-116630000D01*
X136240000Y-116630000D01*
X136240000Y-114580000D01*
X137040000Y-114580000D01*
X137040000Y-116630000D01*
X137840000Y-116630000D01*
X137840000Y-115032172D01*
X137839999Y-115032155D01*
X137833598Y-114972627D01*
X137833596Y-114972620D01*
X137783354Y-114837913D01*
X137783350Y-114837906D01*
X137697190Y-114722812D01*
X137697187Y-114722809D01*
X137582093Y-114636649D01*
X137582086Y-114636645D01*
X137447379Y-114586403D01*
X137447372Y-114586401D01*
X137387844Y-114580000D01*
X137040000Y-114580000D01*
X136240000Y-114580000D01*
X135892155Y-114580000D01*
X135832627Y-114586401D01*
X135832620Y-114586403D01*
X135697913Y-114636645D01*
X135697906Y-114636649D01*
X135582812Y-114722809D01*
X135582809Y-114722812D01*
X135496649Y-114837906D01*
X135496645Y-114837913D01*
X135446403Y-114972620D01*
X135446401Y-114972627D01*
X135440000Y-115032155D01*
X135440000Y-116630000D01*
X133350000Y-116630000D01*
X133350000Y-114456283D01*
X133369685Y-114389244D01*
X133386319Y-114368602D01*
X133418602Y-114336319D01*
X133479925Y-114302834D01*
X133506283Y-114300000D01*
X139830000Y-114300000D01*
X139897039Y-114319685D01*
G37*
%TD.AperFunction*%
%TD*%
%TA.AperFunction,Conductor*%
%TO.N,GND*%
G36*
X128721039Y-121177685D02*
G01*
X128766794Y-121230489D01*
X128778000Y-121282000D01*
X128778000Y-126295718D01*
X128758315Y-126362757D01*
X128741681Y-126383399D01*
X127653399Y-127471681D01*
X127592076Y-127505166D01*
X127565718Y-127508000D01*
X125092000Y-127508000D01*
X125024961Y-127488315D01*
X124979206Y-127435511D01*
X124968000Y-127384000D01*
X124968000Y-123802500D01*
X125850000Y-123802500D01*
X125850000Y-124450344D01*
X125856401Y-124509872D01*
X125856403Y-124509879D01*
X125906645Y-124644586D01*
X125906649Y-124644593D01*
X125992809Y-124759687D01*
X125992812Y-124759690D01*
X126107906Y-124845850D01*
X126107913Y-124845854D01*
X126242620Y-124896096D01*
X126242627Y-124896098D01*
X126302155Y-124902499D01*
X126302172Y-124902500D01*
X126600000Y-124902500D01*
X126600000Y-123802500D01*
X127400000Y-123802500D01*
X127400000Y-124902500D01*
X127697828Y-124902500D01*
X127697844Y-124902499D01*
X127757372Y-124896098D01*
X127757379Y-124896096D01*
X127892086Y-124845854D01*
X127892093Y-124845850D01*
X128007187Y-124759690D01*
X128007190Y-124759687D01*
X128093350Y-124644593D01*
X128093354Y-124644586D01*
X128143596Y-124509879D01*
X128143598Y-124509872D01*
X128149999Y-124450344D01*
X128150000Y-124450327D01*
X128150000Y-123802500D01*
X127400000Y-123802500D01*
X126600000Y-123802500D01*
X125850000Y-123802500D01*
X124968000Y-123802500D01*
X124968000Y-123002500D01*
X125850000Y-123002500D01*
X126600000Y-123002500D01*
X126600000Y-121902500D01*
X127400000Y-121902500D01*
X127400000Y-123002500D01*
X128150000Y-123002500D01*
X128150000Y-122354672D01*
X128149999Y-122354655D01*
X128143598Y-122295127D01*
X128143596Y-122295120D01*
X128093354Y-122160413D01*
X128093350Y-122160406D01*
X128007190Y-122045312D01*
X128007187Y-122045309D01*
X127892093Y-121959149D01*
X127892086Y-121959145D01*
X127757379Y-121908903D01*
X127757372Y-121908901D01*
X127697844Y-121902500D01*
X127400000Y-121902500D01*
X126600000Y-121902500D01*
X126302155Y-121902500D01*
X126242627Y-121908901D01*
X126242620Y-121908903D01*
X126107913Y-121959145D01*
X126107906Y-121959149D01*
X125992812Y-122045309D01*
X125992809Y-122045312D01*
X125906649Y-122160406D01*
X125906645Y-122160413D01*
X125856403Y-122295120D01*
X125856401Y-122295127D01*
X125850000Y-122354655D01*
X125850000Y-123002500D01*
X124968000Y-123002500D01*
X124968000Y-121282000D01*
X124987685Y-121214961D01*
X125040489Y-121169206D01*
X125092000Y-121158000D01*
X128654000Y-121158000D01*
X128721039Y-121177685D01*
G37*
%TD.AperFunction*%
%TD*%
M02*
